<?xml version="1.0" encoding="UTF-8"?>
<svg xmlns="http://www.w3.org/2000/svg" xmlns:xlink="http://www.w3.org/1999/xlink" version="1.2" >
<font id="Banny Light Round">
<font-face  font-family="Banny" units-per-em="1024" ascent="975" descent="-300" font-style="normal" font-weight="300" font-stretch="normal" cap-height="999" x-height="488" underline-position="-125" underline-thickness="50" />
<missing-glyph  horiz-adv-x="100" d="" />
<glyph glyph-name="NULL" d="" />
<glyph glyph-name="CR" unicode="&#xd;" horiz-adv-x="256" d="" />
<glyph glyph-name="space" unicode="&#x20;" horiz-adv-x="250" d="" />
<glyph glyph-name="exclam" unicode="&#x21;" horiz-adv-x="149" d="M74 0 C90.5591 0 104 13.4409 104 30 C104 46.5591 90.5591 60 74 60 C57.4409 60 44 46.5591 44 30 C44 13.4409 57.4409 0 74 0 L74 0 Z M45 720.5 L45 442.731 C45 442.597 45.2304 437.413 45.2423 437.28 L66.3346 200.47 C66.7004 196.363 70.3765 193 74.5 193 C78.6235 193 82.2996 196.363 82.6654 200.47 L103.758 437.28 C103.77 437.413 104 442.597 104 442.731 L104 720.5 C104 736.783 90.7831 750 74.5 750 C58.2169 750 45 736.783 45 720.5 L45 720.5 Z " />
<glyph glyph-name="quotedbl" unicode="&#x22;" horiz-adv-x="270" d="M167 722.5 L167 705.598 C167 703.638 169.894 686.861 170.55 685.015 L178.98 661.307 C181.071 655.426 188.759 650 195 650 C201.241 650 208.929 655.426 211.02 661.307 L219.45 685.015 C220.106 686.861 223 703.638 223 705.598 L223 722.5 C223 737.679 210.679 750 195.5 750 L194.5 750 C179.321 750 167 737.679 167 722.5 L167 722.5 Z M77 722.5 L77 705.598 C77 703.638 79.8938 686.861 80.5503 685.015 L88.9799 661.307 C91.0706 655.426 98.7591 650 105 650 C111.241 650 118.929 655.426 121.02 661.307 L129.45 685.015 C130.106 686.861 133 703.638 133 705.598 L133 722.5 C133 737.679 120.679 750 105.5 750 L104.5 750 C89.3208 750 77 737.679 77 722.5 L77 722.5 Z " />
<glyph glyph-name="numbersign" unicode="&#x23;" horiz-adv-x="662" d="M483.49 746.033 L463.892 593.605 C460.119 564.258 432.542 540 402.954 540 L331.845 540 C293.607 540 266.031 571.349 270.907 609.275 L288.49 746.033 C288.769 748.205 287.19 750 285 750 C282.81 750 280.769 748.205 280.49 746.033 L260.892 593.605 C257.119 564.258 229.542 540 199.954 540 L88.1556 540 C77.1162 540 66.8693 530.954 65.5 520 C64.1307 509.046 72.1162 500 83.1556 500 L179.194 500 C217.413 500 244.99 468.669 240.137 430.759 L223.866 303.639 C220.107 274.272 192.53 250 162.923 250 L45.2237 250 C34.1843 250 23.6376 240.917 22 230 C20.3624 219.083 28.1843 210 39.2237 210 L142.155 210 C180.393 210 207.969 178.651 203.093 140.725 L185.51 3.96734 C185.231 1.79537 186.81 0 189 0 C191.19 0 193.231 1.79537 193.51 3.96734 L213.108 156.395 C216.881 185.742 244.458 210 274.046 210 L345.155 210 C383.393 210 410.969 178.651 406.093 140.725 L388.51 3.96734 C388.231 1.79537 389.81 0 392 0 C394.19 0 396.231 1.79537 396.51 3.96734 L416.108 156.395 C419.881 185.742 447.458 210 477.046 210 L572.776 210 C583.816 210 594.362 219.083 596 230 C597.638 240.917 589.816 250 578.776 250 L497.806 250 C459.587 250 432.01 281.331 436.863 319.241 L453.134 446.361 C456.893 475.728 484.47 500 514.077 500 L616.844 500 C627.884 500 638.131 509.046 639.5 520 C640.869 530.954 632.884 540 621.844 540 L534.845 540 C496.607 540 469.031 571.349 473.907 609.275 L491.49 746.033 C491.769 748.205 490.19 750 488 750 C485.81 750 483.769 748.205 483.49 746.033 L483.49 746.033 Z M311.077 500 L382.194 500 C420.413 500 447.99 468.669 443.137 430.759 L426.866 303.639 C423.107 274.272 395.53 250 365.923 250 L294.806 250 C256.587 250 229.01 281.331 233.863 319.241 L250.134 446.361 C253.893 475.728 281.47 500 311.077 500 L311.077 500 Z " />
<glyph glyph-name="dollar" unicode="&#x24;" horiz-adv-x="551" d="M467.897 611.524 C458.528 623.006 428.79 660.536 373.053 701.586 C361.939 709.771 345 740.541 345 754.343 L345 808.5 C345 817.608 337.608 825 328.5 825 C319.392 825 312 817.608 312 808.5 L312 759.679 C312 750.421 303.33 744.522 294.832 748.196 C274.857 756.83 258.854 759.993 238.035 759.333 C228.527 759.031 220 767.095 220 776.608 L220 809.5 C220 818.608 212.608 826 203.5 826 C194.392 826 187 818.608 187 809.5 L187 789 C187 774.81 165.457 744.625 153.032 737.771 C92.8475 704.57 56 636.4 56 548 C56 483.4 87.79 433.25 150.756 398.778 C166.218 390.313 187 357.673 187 340.046 L187 64.7354 C187 51.4127 173.436 46.3354 163.154 54.807 C127.356 84.3005 94.3831 124.69 69.0978 177.512 C68.4164 178.935 65.6456 181.686 64.375 180.75 C63.0704 179.789 63.7874 175.243 64.4955 173.786 C91.3325 118.546 125.114 75.4826 162.767 45.1071 C171.183 38.3174 188 8.82239 188 -1.99138 L188 -58.5 C188 -67.6075 195.392 -75 204.5 -75 C213.608 -75 221 -67.6075 221 -58.5 L221 -6.34778 C221 1.55317 229.237 6.45466 236.685 3.81813 C256.057 -3.03937 275.376 -6.93937 296.016 -7.88187 C304.443 -8.26673 313 -16.0711 313 -24.5076 L313 -57.5 C313 -66.6075 320.392 -74 329.5 -74 C338.608 -74 346 -66.6075 346 -57.5 L346 -40 C346 -24.2667 363.079 -3.69946 378.247 0.479 C470.02 25.76 517 102.8 517 209 C517 289.5 472.594 349.328 385.791 385.805 C366.638 393.853 346 424.9 346 445.675 L346 689.673 C346 700.121 354.524 706.232 362.913 700.004 C394.391 676.638 428.387 645.683 463.779 606.578 C464.93 605.305 467.733 604.465 468.5 606 C469.227 607.455 468.925 610.264 467.897 611.524 L467.897 611.524 Z M467 608 L467 609 L467 608 L467 608 Z M297.427 411.605 C275.826 416.176 253.439 420.611 234.264 426.139 C226.856 428.275 222 436.047 222 443.757 L222 730.049 C222 741.349 228.142 749.817 239.396 750.843 C259.874 752.71 276.982 748.536 297.037 739.418 C306.447 735.14 314 722.101 314 711.765 L314 423.89 C314 415.427 305.707 409.852 297.427 411.605 L297.427 411.605 Z M165.485 458.569 C132.016 482.906 115 514.05 115 552 C115 625.1 135.23 683.028 169.549 716.571 C179.609 726.403 189 718.878 189 704.811 L189 471.735 C189 457.113 177.312 449.969 165.485 458.569 L165.485 458.569 Z M235.029 363.582 C255.149 358.699 277.57 354.772 298.293 349.957 C306.51 348.047 314 339.394 314 330.958 L314 11.5076 C314 1.59775 306.829 -5.34175 296.935 -4.79536 C276.107 -3.64527 256.326 0.810891 236.766 8.29848 C228.149 11.5971 221.021 22.3263 221.047 31.5529 L221.959 352.44 C221.98 359.937 227.743 365.351 235.029 363.582 L235.029 363.582 Z M382.49 320.274 C434.456 293.141 461 254.675 461 206 C461 116.075 434.456 47.2494 382.49 15.2456 C360.579 1.75144 346 13.4367 346 39.1695 L346 295.673 C346 318.661 362.113 330.913 382.49 320.274 L382.49 320.274 Z " />
<glyph glyph-name="percent" unicode="&#x25;" horiz-adv-x="734" d="M563 -5 C504 -5 474 53 474 141 C474 229 504 287 563 287 C622 287 652 229 652 141 C652 53 622 -5 563 -5 L563 -5 Z M563 -9 C640 -9 680 51 680 141 C680 231 640 291 563 291 C486 291 446 231 446 141 C446 51 486 -9 563 -9 L563 -9 Z M171 463 C112 463 82 521 82 609 C82 697 112 755 171 755 C230 755 260 697 260 609 C260 521 230 463 171 463 L171 463 Z M171 459 C248 459 288 519 288 609 C288 699 248 759 171 759 C94 759 54 699 54 609 C54 519 94 459 171 459 L171 459 Z M168.5 0 C172.647 0 179.037 3.84757 180.977 7.51244 L570.023 742.488 C571.963 746.152 569.647 750 565.5 750 C561.353 750 554.963 746.152 553.023 742.488 L163.977 7.51244 C162.037 3.84757 164.353 0 168.5 0 L168.5 0 Z " />
<glyph glyph-name="ampersand" unicode="&#x26;" horiz-adv-x="693" d="M632.5 5 C632.235 6.59106 631.604 7.82897 630.094 7.26056 C615.257 1.67361 595.292 -2 579 -2 C569.925 -2 548.599 21.1412 517.267 60.6856 C507.396 73.1449 506.161 104.281 513.211 118.528 C543.337 179.405 559.7 258.2 558 350 C557.964 351.926 556.407 350.228 554.5 350.5 C552.611 350.77 551.09 345.063 551.105 343.155 C551.768 257.195 536.198 182.296 507.765 124.071 C498.664 105.436 480.645 107.809 468.236 124.426 C398.502 217.807 289.464 365.087 273.773 385.712 C272.555 387.313 279.647 391.817 281.444 392.723 C403.147 454.079 483 513.725 483 542 C483 634 421 695 327 695 C227 695 160 629 160 529 C160 478 180.23 422.665 212.706 383.261 C220.935 373.277 218.864 357.979 207.531 351.737 C113.605 300.001 52 232.8 52 181 C52 60 155 -20 309 -20 C362.55 -20 409.597 -1.9375 448.3 31.1169 C457.278 38.7846 478.058 39.4495 486.835 31.5522 C516.372 4.97375 545.825 -10 578 -10 C594.32 -10 615.248 -5.8528 631.052 0.672128 C632.597 1.30997 632.775 3.35135 632.5 5 L632.5 5 Z M251.309 410.802 C224.016 444.736 207 490.75 207 532 C207 626 255 688 327 688 C395 688 440 628 440 539 C440 503.85 381.818 450.732 292.362 402.598 C277.454 394.576 261.919 397.611 251.309 410.802 L251.309 410.802 Z M239.664 350.682 C260.172 322.203 314.75 247.5 390 146 C411.45 117.125 431.539 90.9725 450.828 68.6655 C457.229 61.263 457.747 49.1064 450.643 42.376 C412.51 6.25 364.9 -14 310 -14 C186 -14 104 66 104 187 C104 249.7 150.93 313.754 221.641 353.44 C226.786 356.328 236.216 355.47 239.664 350.682 L239.664 350.682 Z " />
<glyph glyph-name="quotesingle" unicode="&#x27;" horiz-adv-x="180" d="M77 722.5 L77 705.598 C77 703.638 79.8938 686.861 80.5503 685.015 L88.9799 661.307 C91.0706 655.426 98.7591 650 105 650 C111.241 650 118.929 655.426 121.02 661.307 L129.45 685.015 C130.106 686.861 133 703.638 133 705.598 L133 722.5 C133 737.679 120.679 750 105.5 750 L104.5 750 C89.3208 750 77 737.679 77 722.5 L77 722.5 Z " />
<glyph glyph-name="parenleft" unicode="&#x28;" horiz-adv-x="348" d="M301.22 786.591 C175.643 676.177 111 523.175 111 335 C111 153.65 175.643 3.67063 301.22 -106.596 C306.621 -111.339 314.707 -110.857 319.5 -105.5 C324.085 -100.375 324.134 -92.7961 318.961 -88.2658 C202.889 13.3719 143 157.55 143 335 C143 519.275 202.889 666.476 318.961 768.26 C324.128 772.791 324.082 780.379 319.5 785.5 C314.704 790.86 306.622 791.34 301.22 786.591 L301.22 786.591 Z " />
<glyph glyph-name="parenright" unicode="&#x29;" horiz-adv-x="331" d="M46.7799 -106.591 C172.358 3.82313 237 156.825 237 345 C237 526.35 172.358 676.329 46.7799 786.596 C41.3786 791.339 33.2929 790.857 28.5 785.5 C23.9145 780.375 23.8656 772.796 29.0393 768.266 C145.111 666.628 205 522.45 205 345 C205 160.725 145.111 13.5244 29.0393 -88.2601 C23.8725 -92.791 23.9178 -100.379 28.5 -105.5 C33.2961 -110.86 41.3782 -111.34 46.7799 -106.591 L46.7799 -106.591 Z " />
<glyph glyph-name="asterisk" unicode="&#x2a;" horiz-adv-x="352" d="M304.937 660.121 L250.129 634.595 C216.304 618.84 183.045 642.952 187.5 680 L194.493 738.15 C195.867 749.576 187.508 759 176 759 C164.493 759 156.14 749.576 157.523 738.152 L164.5 680.5 C168.954 643.695 135.921 619.717 102.307 635.357 L49.2826 660.028 C38.7221 664.942 27.0599 659.84 23.5 648.75 C19.9364 637.648 26.4271 626.645 37.8675 624.394 L95.2713 613.098 C131.368 605.995 143.934 567.551 119 540.5 L79.8276 498.002 C72.2464 489.777 73.4536 477.579 82.5 471 C91.5448 464.422 103.511 467.039 108.984 476.792 L138 528.5 C156.374 561.243 197.626 561.243 216 528.5 L244.772 477.226 C250.37 467.251 262.582 464.658 271.75 471.5 C280.944 478.361 282.094 490.918 274.299 499.334 L235.25 541.5 C210.283 568.46 222.866 606.91 258.942 613.892 L316.353 625.004 C327.664 627.193 334.061 638.044 330.5 649 C326.939 659.958 315.381 664.986 304.937 660.121 L304.937 660.121 Z M99 459 L99 460 L100 459 L99 459 L99 459 Z " />
<glyph glyph-name="plus" unicode="&#x2b;" horiz-adv-x="590" d="M279 183.56 L279 16 C279 7.16848 286.168 0 295 0 C303.832 0 311 7.16848 311 16 L311 183.56 C311 217.473 338.527 245 372.44 245 L550 245 C558.28 245 565 251.72 565 260 C565 268.28 558.28 275 550 275 L372.44 275 C338.527 275 311 302.527 311 336.44 L311 504 C311 512.832 303.832 520 295 520 C286.168 520 279 512.832 279 504 L279 336.44 C279 302.527 251.473 275 217.56 275 L40 275 C31.7205 275 25 268.28 25 260 C25 251.72 31.7205 245 40 245 L217.56 245 C251.473 245 279 217.473 279 183.56 L279 183.56 Z " />
<glyph glyph-name="comma" unicode="&#x2c;" horiz-adv-x="160" d="M50 30 L50 13.5 C50 6.0484 56.0484 0 63.5 0 C71.2914 0 77.0858 -4.94191 76.7306 -12.7252 C75.5103 -39.4595 70.0918 -53.546 59.3989 -58.2131 C56.5156 -59.4717 50 -66.3539 50 -69.5 L50 -73 C50 -81.1033 54.0937 -86.3136 62.129 -85.266 C96.23 -80.82 110 -55.8 110 0 L110 30 C110 46.5591 96.5591 60 80 60 C63.4409 60 50 46.5591 50 30 L50 30 Z " />
<glyph glyph-name="hyphen" unicode="&#x2d;" horiz-adv-x="365" d="M71 242 L294 242 C305.591 242 315 251.409 315 263 C315 274.591 305.591 284 294 284 L71 284 C59.4086 284 50 274.591 50 263 C50 251.409 59.4086 242 71 242 L71 242 Z " />
<glyph glyph-name="period" unicode="&#x2e;" horiz-adv-x="160" d="M80 0 C96.5591 0 110 13.4409 110 30 C110 46.5591 96.5591 60 80 60 C63.4409 60 50 46.5591 50 30 C50 13.4409 63.4409 0 80 0 L80 0 Z " />
<glyph glyph-name="slash" unicode="&#x2f;" horiz-adv-x="264" d="M11 0 C16.7783 0 23.6035 4.9694 25.3778 10.4685 L260.622 739.531 C262.397 745.031 258.778 750 253 750 C247.222 750 240.397 745.031 238.622 739.531 L3.37785 10.4685 C1.60346 4.9694 5.22168 0 11 0 L11 0 Z " />
<glyph glyph-name="zero" unicode="0" horiz-adv-x="700" d="M128 375 C128 613 213 752 358 752 C503 752 588 613 588 375 C588 126 510 -2 358 -2 C206 -2 128 126 128 375 L128 375 Z M71 375 C71 122 169 -9 358 -9 C547 -9 645 122 645 375 C645 617 539 759 358 759 C177 759 71 617 71 375 L71 375 Z " />
<glyph glyph-name="one" unicode="1" horiz-adv-x="376" d="M276 28 L276 728.5 C276 740.367 266.367 750 254.5 750 L242.737 750 C238.735 750 229.171 745.73 226.5 742.75 L220 735.5 L53.6301 546.132 C52.3076 544.627 50 538.504 50 536.5 C50 534.499 52.3062 533.632 53.6248 535.137 L135 628 C165.921 663.286 220 642.945 220 596.027 L220 28 C220 12.5448 232.545 0 248 0 C263.455 0 276 12.5448 276 28 L276 28 Z " />
<glyph glyph-name="two" unicode="2" horiz-adv-x="579" d="M138.44 0 L517 0 C531.903 0 544 12.0968 544 27 C544 41.9032 531.903 54 517 54 L151.948 54 C112.684 54 87.094 76.6655 93.2891 115.438 C114.016 245.156 178 283 304 304 C438 326 528 416 528 529 C528 668 444 760 319 760 C193 760 109 670 109 536 C109 488.225 125.161 434.746 149.14 402.443 C150.626 400.441 152.771 400.885 155 402 C157.123 403.061 158.558 404.535 157.14 406.439 C133.161 438.646 117 490.175 117 536 C117 648 187 722 293 722 C403 722 477 635 477 505 C477 403 404 323 294 305 C152.7 281.6 89.565 236.735 78.351 63.242 C76.0224 27.2167 102.34 0 138.44 0 L138.44 0 Z " />
<glyph glyph-name="three" unicode="3" horiz-adv-x="599" d="M66.6331 211.666 C79.9756 78.2738 174.025 -9 310 -9 C456 -9 554 78 554 209 C554 292.3 501.98 359.705 417.592 393.405 C408.967 396.85 408.013 417.505 416.688 420.823 C484.801 446.871 527 499.65 527 564 C527 681 444 759 319 759 C203.375 759 123.686 683.705 112.383 568.73 C110.723 551.845 122.033 540 139 540 C153.307 540 166.953 553.581 168.016 567.848 C176.319 679.272 234.825 752 319 752 C413 752 475 675 475 560 C475 480 407 427 306 427 L247.5 427 C235.633 427 226 417.367 226 405.5 C226 393.633 235.633 384 247.5 384 L286 384 C411 384 495 315 495 212 C495 84 421 -2 311 -2 C206.475 -2 134.464 82.7069 124.25 212.548 C123.093 227.254 108.752 245 94 245 C76.3997 245 64.8813 229.179 66.6331 211.666 L66.6331 211.666 Z " />
<glyph glyph-name="four" unicode="4" horiz-adv-x="595" d="M25 213.5 C25 211.588 26.5716 210.225 28.4648 210.495 L28.5 210.5 C28.7732 210.539 35.2595 211 35.5355 211 L334.56 211 C368.473 211 396 183.473 396 149.56 L396 27.5 C396 12.3208 408.321 0 423.5 0 C438.679 0 451 12.3208 451 27.5 L451 149.56 C451 183.473 478.527 211 512.44 211 L571.5 211 C573.432 211 575 212.568 575 214.5 C575 216.432 573.432 218 571.5 218 L512.44 218 C478.527 218 451 245.527 451 279.44 L451 728.5 C451 740.367 441.367 750 429.5 750 C419.863 750 401.078 740.366 395.454 732.54 L27.0424 219.842 C26.3845 218.927 25 214.627 25 213.5 L25 213.5 Z M102.825 315.269 L352.672 663.318 C368.691 685.633 403.122 673.421 401.5 646 L396 553 L396 279.44 C396 245.527 368.473 218 334.56 218 L152.736 218 C99.0465 218 71.5153 271.654 102.825 315.269 L102.825 315.269 Z " />
<glyph glyph-name="five" unicode="5" horiz-adv-x="595" d="M487 696 L522.442 696 C529.894 696 536.563 702.08 537.25 709.5 L538.5 723 L539.25 736.5 C539.663 743.94 533.931 750 526.479 750 L242.026 750 C213.702 750 186.094 726.622 181.426 698.685 L122.664 346.976 C122.298 344.783 123.794 342.776 126 342.5 C127.735 342.283 132.318 344.586 133.509 345.866 C179.894 395.679 255.725 428 323 428 C426 428 495 351 495 235 C495 93 421 -2 311 -2 C206.475 -2 134.464 82.7069 124.25 212.548 C123.113 227.001 108.997 245 94.5 245 C77.2032 245 65.9115 228.877 67.6331 211.666 C80.9756 78.2738 175.025 -9 311 -9 C457 -9 555 89 555 235 C555 378 466 473 333 473 C273.5 473 208.22 449.158 161.725 410.684 C154.474 404.684 143.628 413.495 145.375 422.743 L187.547 645.966 C192.674 673.103 220.302 696 247.919 696 L486.5 696 L487 696 Z " />
<glyph glyph-name="six" unicode="6" horiz-adv-x="602" d="M549.938 626.174 C521.689 705.765 437.425 759 337 759 C164 759 75 604 75 372 C75 121 164 -9 338 -9 C483 -9 580 93 580 245 C580 382 490 474 354 474 C352.068 474 353.531 472.358 353 470.5 L352.971 470.4 C352.898 470.144 352.462 470.237 352.5 470.5 C352.778 472.443 347.118 473.964 345.156 473.927 C259.214 472.328 184.946 444.508 148.18 401.136 C143.638 395.778 132.18 401.894 132.375 408.915 C138.07 613.917 206.85 752 337 752 C433.525 752 515.791 700.666 543.015 622.097 C543.704 620.109 546.673 616.956 548.5 618 C550.475 619.129 550.699 624.03 549.938 626.174 L549.938 626.174 Z M352 467 C453 467 520 378 520 245 C520 97 447 -2 338 -2 C208.325 -2 138.539 116.828 132.351 347.996 C132.195 353.795 136.179 374.469 139.294 379.363 C173.29 432.775 255.8 467 352 467 L352 467 Z " />
<glyph glyph-name="seven" unicode="7" horiz-adv-x="490" d="M30 723 C30 708.097 42.0968 696 57 696 L324.84 696 C378.919 696 407.204 630.044 372.867 588.266 C237.715 423.826 180.5 253.995 177.156 21.9392 C176.906 4.58345 190.642 0 208 0 C224.935 0 238.952 7.85567 239.126 24.7893 C242.332 335.507 306.909 522.447 467.15 683.349 C474.124 690.353 480 712.199 480 722.083 L480 723 C480 737.903 467.903 750 453 750 L57 750 C42.0968 750 30 737.903 30 723 L30 723 Z " />
<glyph glyph-name="eight" unicode="8" horiz-adv-x="629" d="M155 559 C155 686 223 752 325 752 C436 752 493 675 493 559 C493 451 426 403 325 403 C208 403 155 465 155 559 L155 559 Z M103 563 C103 487.925 143.157 431.907 230.77 409.547 C235.063 408.451 232.888 391.814 228.579 390.785 C134.534 368.34 76 307.95 76 204 C76 76 153 -9 325 -9 C474 -9 574 57 574 204 C574 300.25 522.703 370.469 409.391 392.549 C405.539 393.299 409.174 406.303 412.993 407.204 C494.634 426.473 545 476.2 545 562 C545 680 470 758 325 758 C192 758 103 691.5 103 562.5 L103 563 Z M136 207 C136 337 212 395 325 395 C455 395 514 320 514 208 C514 62 438 -3 325 -3 C195 -3 136 81 136 207 L136 207 Z " />
<glyph glyph-name="nine" unicode="9" horiz-adv-x="602" d="M80.0618 123.826 C108.311 44.235 192.575 -9 293 -9 C466 -9 555 146 555 378 C555 629 466 759 292 759 C147 759 50 657 50 505 C50 368 140 276 276 276 C277.932 276 276.469 277.642 277 279.5 L277.029 279.6 C277.102 279.856 277.538 279.763 277.5 279.5 C277.222 277.557 282.882 276.036 284.844 276.073 C370.786 277.672 445.054 305.492 481.82 348.864 C486.362 354.222 497.82 348.106 497.625 341.085 C491.93 136.082 423.15 -2 293 -2 C196.475 -2 114.209 49.3337 86.9849 127.903 C86.2959 129.891 83.3271 133.044 81.5 132 C79.5246 130.871 79.3008 125.97 80.0618 123.826 L80.0618 123.826 Z M278 283 C177 283 110 372 110 505 C110 653 183 752 292 752 C421.675 752 491.461 633.172 497.649 402.004 C497.805 396.205 493.821 375.531 490.706 370.637 C456.71 317.225 374.2 283 278 283 L278 283 Z " />
<glyph glyph-name="colon" unicode="&#x3a;" horiz-adv-x="160" d="M80 460 C96.5591 460 110 473.441 110 490 C110 506.559 96.5591 520 80 520 C63.4409 520 50 506.559 50 490 C50 473.441 63.4409 460 80 460 L80 460 Z M80 0 C96.5591 0 110 13.4409 110 30 C110 46.5591 96.5591 60 80 60 C63.4409 60 50 46.5591 50 30 C50 13.4409 63.4409 0 80 0 L80 0 Z " />
<glyph glyph-name="semicolon" unicode="&#x3b;" horiz-adv-x="160" d="M80 460 C96.5591 460 110 473.441 110 490 C110 506.559 96.5591 520 80 520 C63.4409 520 50 506.559 50 490 C50 473.441 63.4409 460 80 460 L80 460 Z M50 30 L50 13.5 C50 6.0484 56.0484 0 63.5 0 C71.2914 0 77.0858 -4.94191 76.7306 -12.7252 C75.5103 -39.4595 70.0918 -53.546 59.3989 -58.2131 C56.5156 -59.4717 50 -66.3539 50 -69.5 L50 -73 C50 -81.1033 54.0937 -86.3136 62.129 -85.266 C96.23 -80.82 110 -55.8 110 0 L110 30 C110 46.5591 96.5591 60 80 60 C63.4409 60 50 46.5591 50 30 L50 30 Z " />
<glyph glyph-name="less" unicode="&#x3c;" horiz-adv-x="555" d="M476.298 471.605 L61.4214 285.371 C53.1522 281.659 45 269.064 45 260 C45 250.936 53.1522 238.341 61.4214 234.629 L476.298 48.3952 C485.716 44.1677 495 50.177 495 60.5 C495 70.8661 485.716 85.0631 476.22 89.2192 L214.608 203.714 C162.46 226.537 162.46 293.463 214.608 316.286 L476.22 430.781 C485.716 434.937 495 449.134 495 459.5 C495 469.823 485.716 475.832 476.298 471.605 L476.298 471.605 Z " />
<glyph glyph-name="equal" unicode="&#x3d;" horiz-adv-x="604" d="M39 165 C39 156.72 45.7205 150 54 150 L539 150 C547.28 150 554 156.72 554 165 C554 173.28 547.28 180 539 180 L54 180 C45.7205 180 39 173.28 39 165 L39 165 Z M39 365 C39 356.72 45.7205 350 54 350 L539 350 C547.28 350 554 356.72 554 365 C554 373.28 547.28 380 539 380 L54 380 C45.7205 380 39 373.28 39 365 L39 365 Z " />
<glyph glyph-name="greater" unicode="&#x3e;" horiz-adv-x="555" d="M340.392 203.714 L78.7802 89.2192 C69.2837 85.0631 60 70.8661 60 60.5 C60 50.177 69.2845 44.1677 78.7022 48.3952 L493.579 234.629 C501.848 238.341 510 250.936 510 260 C510 269.064 501.848 281.659 493.579 285.371 L78.7022 471.605 C69.2845 475.832 60 469.823 60 459.5 C60 449.134 69.2837 434.937 78.7802 430.781 L340.392 316.286 C392.54 293.463 392.54 226.537 340.392 203.714 L340.392 203.714 Z " />
<glyph glyph-name="question" unicode="&#x3f;" horiz-adv-x="564" d="M286 0 C302.559 0 316 13.4409 316 30 C316 46.5591 302.559 60 286 60 C269.441 60 256 46.5591 256 30 C256 13.4409 269.441 0 286 0 L286 0 Z M55 553 C66.7963 551.034 79.8695 559.856 82.2733 571.57 C100.791 661.818 180.85 720 290 720 C393 720 462 654 462 555 C462 476 440 436 383 409 C288.65 365.525 265.317 332.318 262.348 221.526 C261.983 207.929 272.398 193 286 193 C298.865 193 309.939 203.788 310.311 216.647 C312.966 308.568 333.825 337.15 418 376 C487 408 514 458 514 555 C514 677 424 759 290 759 C155.875 759 57.6862 689.694 35.0064 583.533 C31.8464 568.741 40.0806 555.487 55 553 L55 553 Z " />
<glyph glyph-name="at" unicode="&#x40;" horiz-adv-x="1160" d="M985.387 -129.207 C884.962 -196.321 728.45 -241 590 -241 C292 -241 94 -37 94 269 C94 575 292 779 590 779 C877 779 1068 610 1068 357 C1068 145 999 3 896 3 C803 3 750 85 765 208 C765 208 776.979 456.987 795.396 494.335 C795.396 494.335 793.26 494.84 793.26 494.84 L791.636 498.495 C791.636 498.495 789.5 499 789.5 499 L755 499 C745.925 499 738.211 439.786 732.42 374.701 C732.154 371.708 725.668 365.633 725.209 368.602 C709.72 468.88 657.7 511 583 511 C448 511 346 415 329 270 C311 119 391 19 530 19 C607.55 19 670.807 62.56 703.487 132.835 C705.749 137.7 722.683 139.901 723.67 134.626 C739.068 52.2975 801.5 1 895 1 C1022 1 1107 144 1107 359 C1107 615 901 786 592 786 C272 786 59 580 59 271 C59 -38 272 -244 592 -244 C734 -244 897 -197 998 -126 C999.019 -125.284 996.656 -125.462 995.5 -125 C994.391 -124.556 986.38 -128.543 985.387 -129.207 L985.387 -129.207 Z M727.704 303.969 C723.901 251.828 722 210 722 210 C709 100 632 27 531 27 C422 27 361 125 379 271 C396 411 477 505 582 505 C669 505 726 448 728 308 C728.002 307.872 727.713 304.097 727.704 303.969 L727.704 303.969 Z " />
<glyph glyph-name="A" unicode="A" horiz-adv-x="738" d="M577.786 216.279 L648 48.5 L658.5 24.25 C663.819 11.9667 682.04 0 695.426 0 L715.537 0 C722.437 0 726.562 6.09386 724 12.5 L719 25 C715 36 711 44 709 48 L427.748 721.853 C421.764 736.191 401.036 750 385.5 750 L381.426 750 C368.04 750 349.819 738.033 344.5 725.75 L334 701.5 L61 47 L51 25 L42.6713 4.17815 C41.8148 2.03688 43.1938 0 45.5 0 C47.7794 0 50.8823 2.03781 51.788 4.12952 L71 48.5 L141.214 216.279 C149.252 235.486 177.07 254 197.891 254 L521.109 254 C541.93 254 569.748 235.486 577.786 216.279 L577.786 216.279 Z M194.264 344.987 L302.251 605.236 C324.428 658.681 393.572 658.681 415.749 605.236 L523.736 344.987 C541.714 301.659 513.897 260 466.987 260 L251.013 260 C204.103 260 176.286 301.659 194.264 344.987 L194.264 344.987 Z " />
<glyph glyph-name="B" unicode="B" horiz-adv-x="691" d="M409.888 414.684 C537.296 424.664 620 476.9 620 551 C620 694 543 750 345 750 L167.44 750 C133.527 750 106 722.473 106 688.56 L106 61.44 C106 27.527 133.527 0 167.44 0 L382 0 C580 0 657 61 657 219 C657 336 559 414 412 414 L406 414 C405.801 414 409.69 414.669 409.888 414.684 L409.888 414.684 Z M162 477.748 L162 681.895 C162 715.623 189.377 743.15 223.104 743.334 L345 744 C502 744 563 689 563 547 C563 469 483 417 362 417 L223.747 416.309 C189.665 416.138 162 443.665 162 477.748 L162 477.748 Z M162 68.44 L162 348.56 C162 382.473 189.527 410 223.44 410 L406 410 C521 410 597 336 597 225 C597 68 536 7 380 7 L223.44 7 C189.527 7 162 34.527 162 68.44 L162 68.44 Z " />
<glyph glyph-name="C" unicode="C" horiz-adv-x="712" d="M681.283 169.041 C631.446 66.445 523.05 -2 408 -2 C242 -2 131 171 131 375 C131 579 242 752 408 752 C512 752 623 680 685 573 C686.185 570.955 686.577 574.126 688.5 575.5 C690.475 576.911 688.448 584.034 687.182 586.105 C623.353 690.555 513.3 759 408 759 C206 759 71 582 71 375 C71 168 206 -9 408 -9 C530 -9 644 63 692 172 C692.937 174.127 690.391 173.149 688.5 174.5 C686.654 175.819 682.274 171.082 681.283 169.041 L681.283 169.041 Z M688 578 L688 578 L688 578 Z " />
<glyph glyph-name="D" unicode="D" horiz-adv-x="764" d="M349 0 C593 0 709 121 709 375 C709 623 576 750 319 750 L166.44 750 C132.527 750 105 722.473 105 688.56 L105 61.44 C105 27.527 132.527 0 166.44 0 L349 0 L349 0 Z M161 35 L161 719.5 C161 732.406 170.87 742.998 183.776 743.064 C227.29 743.284 279.231 744 319 744 C537 744 649 619 649 375 C649 125 552 6 348 6 C299.179 6 235.918 6.76003 183.395 6.9549 C167.998 7.01204 161 19.6022 161 35 L161 35 Z " />
<glyph glyph-name="E" unicode="E" horiz-adv-x="586" d="M532.5 7 L222.44 7 C188.527 7 161 34.527 161 68.44 L161 322.56 C161 356.473 188.527 384 222.44 384 L498 384 C499.656 384 501 385.344 501 387 C501 388.656 499.656 390 498 390 L222.44 390 C188.527 390 161 417.527 161 451.44 L161 681.56 C161 715.473 188.527 743 222.44 743 L517.5 743 C519.432 743 521 744.568 521 746.5 C521 748.432 519.432 750 517.5 750 L166.44 750 C132.527 750 105 722.473 105 688.56 L105 61.44 C105 27.527 132.527 0 166.44 0 L532.5 0 C534.432 0 536 1.5681 536 3.5 C536 5.4319 534.432 7 532.5 7 L532.5 7 Z " />
<glyph glyph-name="F" unicode="F" horiz-adv-x="551" d="M488 390 L222.44 390 C188.527 390 161 417.527 161 451.44 L161 681.56 C161 715.473 188.527 743 222.44 743 L517.5 743 C519.432 743 521 744.568 521 746.5 C521 748.432 519.432 750 517.5 750 L166.44 750 C132.527 750 105 722.473 105 688.56 L105 28 C105 12.5448 117.545 0 133 0 C148.455 0 161 12.5448 161 28 L161 322.56 C161 356.473 188.527 384 222.44 384 L488 384 C489.656 384 491 385.344 491 387 C491 388.656 489.656 390 488 390 L488 390 Z " />
<glyph glyph-name="G" unicode="G" horiz-adv-x="762" d="M482.5 402 L647.56 402 C681.473 402 709 374.473 709 340.56 L709 137.453 C709 123.862 695.553 97.7554 684.671 89.611 C609.89 33.64 519.8 -2 437 -2 C253 -2 131 149 131 375 C131 601 253 752 437 752 C525 752 625 680 687 573 C688.065 571.162 688.368 574.14 690 575.5 C691.672 576.893 689.331 584.244 688.203 586.105 C624.907 690.555 525.725 759 437 759 C217 759 71 605 71 375 C71 145 217 -9 437 -9 C522.5 -9 614.48 28.26 691.799 85.284 C702.892 93.4655 717 120.083 717 133.867 L717 347.56 C717 381.473 689.473 409 655.56 409 L482.5 409 C480.568 409 479 407.432 479 405.5 C479 403.568 480.568 402 482.5 402 L482.5 402 Z M689 578 L688 578 L688 579 L689 578 L689 578 Z " />
<glyph glyph-name="H" unicode="H" horiz-adv-x="706" d="M621 28 L621 722 C621 737.455 608.455 750 593 750 C577.545 750 565 737.455 565 722 L565 459.44 C565 425.527 537.473 398 503.56 398 L222.44 398 C188.527 398 161 425.527 161 459.44 L161 722 C161 737.455 148.455 750 133 750 C117.545 750 105 737.455 105 722 L105 28 C105 12.5448 117.545 0 133 0 C148.455 0 161 12.5448 161 28 L161 330.56 C161 364.473 188.527 392 222.44 392 L503.56 392 C537.473 392 565 364.473 565 330.56 L565 28 C565 12.5448 577.545 0 593 0 C608.455 0 621 12.5448 621 28 L621 28 Z " />
<glyph glyph-name="I" unicode="I" horiz-adv-x="227" d="M142 28 L142 722 C142 737.455 129.455 750 114 750 C98.5448 750 86 737.455 86 722 L86 28 C86 12.5448 98.5448 0 114 0 C129.455 0 142 12.5448 142 28 L142 28 Z " />
<glyph glyph-name="J" unicode="J" horiz-adv-x="493" d="M67 254.641 L67 221 C67 62 120 -9 238 -9 C350 -9 408 83 408 220 L408 722 C408 737.455 395.455 750 380 750 C364.545 750 352 737.455 352 722 L352 220 C352 87 313 -1 238 -1 C159 -1 123 73 123 237 L123 264.5 C123 279.487 110.645 290.014 95.8484 287.636 L95 287.5 C79.7407 285.048 67 270.096 67 254.641 L67 254.641 Z " />
<glyph glyph-name="K" unicode="K" horiz-adv-x="608" d="M590.5 12.5 L583 25 C578 33 574 40 571 44 L332.868 431.762 C320.945 451.178 323.243 485.186 337.672 502.821 L499 700 C501 703 509 712 519 725 L535.564 745.705 C537.045 747.556 535.871 750 533.5 750 C531.15 750 526.005 747.562 524.517 745.743 L492 706 L487 700 L269.15 431.518 C231.189 384.734 160 409.983 160 470.23 L160 722 C160 737.455 147.455 750 132 750 C116.545 750 104 737.455 104 722 L104 28 C104 12.5448 116.545 0 132 0 C147.455 0 160 12.5448 160 28 L160 265.11 C160 272.75 169.01 298.04 173.841 303.959 L216.189 355.844 C244.735 390.82 292.664 387.558 316.21 349.039 L499 50 L503 44 L516.5 22 C522.851 11.65 543.668 0 555.812 0 L583.423 0 C590.322 0 594.05 6.58362 590.5 12.5 L590.5 12.5 Z " />
<glyph glyph-name="L" unicode="L" horiz-adv-x="497" d="M463.5 7 L203.44 7 C169.527 7 142 34.527 142 68.44 L142 722 C142 737.455 129.455 750 114 750 C98.5448 750 86 737.455 86 722 L86 61.44 C86 27.527 113.527 0 147.44 0 L463.5 0 C465.432 0 467 1.5681 467 3.5 C467 5.4319 465.432 7 463.5 7 L463.5 7 Z " />
<glyph glyph-name="M" unicode="M" horiz-adv-x="799" d="M125 4 L125 370.5 C125 434.225 220.593 449.499 240.451 388.947 L360.21 23.7553 C364.296 11.2959 379.888 0 393 0 C406.112 0 421.704 11.2959 425.79 23.7553 L545.549 388.947 C565.407 449.499 661 434.225 661 370.5 L661 26.5 C661 11.8728 672.873 0 687.5 0 C702.127 0 714 11.8728 714 26.5 L714 721 C714 737.007 701.007 750 685 750 C669.782 750 651.727 736.897 647.009 722.429 L473.412 190.115 C454.405 131.83 375.595 131.83 356.588 190.115 L182.836 722.904 C178.199 737.123 160.456 750 145.5 750 C129.769 750 117 737.231 117 721.5 L117 4 C117 1.79212 118.792 0 121 0 C123.208 0 125 1.79212 125 4 L125 4 Z " />
<glyph glyph-name="N" unicode="N" horiz-adv-x="654" d="M125 4 L125 480.501 C125 544.564 211.732 565.585 241.062 508.63 L487.891 29.3381 C495.305 14.9413 519.806 0 536 0 C554.215 0 569 14.785 569 33 L569 746 C569 748.208 567.208 750 565 750 C562.792 750 561 748.208 561 746 L561 261.57 C561 197.505 474.258 176.488 444.934 233.447 L193.19 722.438 C186.226 735.964 163.213 750 148 750 C130.889 750 117 736.111 117 719 L117 4 C117 1.79212 118.792 0 121 0 C123.208 0 125 1.79212 125 4 L125 4 Z " />
<glyph glyph-name="O" unicode="O" horiz-adv-x="814" d="M136 375 C136 590 257 752 418 752 C578 752 699 590 699 375 C699 149 587 -2 418 -2 C249 -2 136 149 136 375 L136 375 Z M76 375 C76 145 213 -9 418 -9 C623 -9 759 145 759 375 C759 594 612 759 418 759 C223 759 76 594 76 375 L76 375 Z " />
<glyph glyph-name="P" unicode="P" horiz-adv-x="624" d="M161 28 L161 262.56 C161 296.473 188.527 324 222.44 324 L398 324 C524 324 589 392 589 525 C589 674 524 750 398 750 L166.44 750 C132.527 750 105 722.473 105 688.56 L105 28 C105 12.5448 117.545 0 133 0 C148.455 0 161 12.5448 161 28 L161 28 Z M161 392.182 L161 704.5 C161 725.675 181.273 743.005 202.448 743.081 C268.918 743.319 340.425 744 399 744 C488 744 534 670 534 525 C534 396 488 330 399 330 L222.182 330.743 C188.412 330.885 161 358.412 161 392.182 L161 392.182 Z " />
<glyph glyph-name="Q" unicode="Q" horiz-adv-x="814" d="M136 375 C136 590 257 752 418 752 C578 752 699 590 699 375 C699 203.05 634.02 74.42 528.067 22.5476 C521.349 19.2588 504.121 18.4352 497.532 21.9758 C478.531 32.1869 461.594 42.9827 448.062 54.3633 C446.609 55.5853 443.842 55.8425 442.5 54.5 C441.107 53.1074 441.934 50.2987 443.426 49.0133 C456.657 37.6156 470.985 26.8056 485.509 16.5833 C489.722 13.6181 489.554 8.20119 484.592 6.81633 C463.531 0.938776 441 -2 417 -2 C248 -2 135.5 149 135.5 375 L136 375 Z M75 375 C75 145 212 -9 417 -9 C444.077 -9 469.722 -6.13609 493.935 -1.01411 C498.851 0.0258696 515.966 -3.63309 520.261 -6.24075 C604.555 -57.4125 693 -89 693 -89 C693 -89 695.778 -85.8515 708 -72 C715.239 -63.7952 733.476 -57.352 722.799 -54.9551 C718.544 -53.9996 647.216 -37.8281 574.351 -11.0486 C558.323 -5.15766 552.574 16.8097 567.974 24.189 C685.91 80.7 758 207.6 758 375 C758 594 611 759 417 759 C222 759 75 594 75 375 L75 375 Z " />
<glyph glyph-name="R" unicode="R" horiz-adv-x="624" d="M578 50 L450.072 311.26 C443.096 325.508 419.863 340 404 340 C388.128 340 379.076 325.507 386.04 311.244 L523.96 28.7557 C530.924 14.4926 554.128 0 570 0 L595.958 0 C598.994 0 600.756 2.73628 599.5 5.5 L597 11 L578.5 50.5 L578 50 Z M162 29 L162 283.56 C162 317.473 189.527 345 223.44 345 L399 345 C525 345 590 407 590 526 C590 675 525 751 399 751 L167.44 751 C133.527 751 106 723.473 106 689.56 L106 29 C106 13.5448 118.545 1 134 1 C149.455 1 162 13.5448 162 29 L162 29 Z M162 412.44 L162 705.5 C162 726.675 182.273 744.005 203.448 744.081 C269.918 744.319 341.425 745 400 745 C489 745 535 671 535 526 C535 411 489 352 400 352 C400 352 338.949 351.277 226.672 351.061 C192.694 350.995 162 378.461 162 412.44 L162 412.44 Z " />
<glyph glyph-name="S" unicode="S" horiz-adv-x="551" d="M465 609 L465 610 L465 609 L465 609 Z M467.239 612.761 L464 616 C464 616 338 760 245 760 C131 760 55 675 55 548 C55 450 128 386 271 359 C395 336 459 285 459 209 C459 83 407 -1 306 -1 C215 -1 122.75 60.5 65.75 183.5 C65.0791 184.948 64.6595 182.696 63.375 181.75 C62.0565 180.778 64.6901 172.281 65.4151 170.813 C123.651 52.84 214.35 -8 306 -8 C444 -8 515 79 515 210 C515 317 437 387 286 415 C171 436 112 484 112 555 C112 674 165 753 245 753 C296 753 376 703 464 605 C465.439 603.397 465.345 606.121 467 607.5 C468.649 608.874 468.757 611.243 467.239 612.761 L467.239 612.761 Z " />
<glyph glyph-name="T" unicode="T" horiz-adv-x="595" d="M581.5 750 L13.5 750 C11.5681 750 10 748.432 10 746.5 C10 744.568 11.5681 743 13.5 743 L208.56 743 C242.473 743 270 715.473 270 681.56 L270 27.5 C270 12.3208 282.321 0 297.5 0 C312.679 0 325 12.3208 325 27.5 L325 681.56 C325 715.473 352.527 743 386.44 743 L581.5 743 C583.432 743 585 744.568 585 746.5 C585 748.432 583.432 750 581.5 750 L581.5 750 Z " />
<glyph glyph-name="U" unicode="U" horiz-adv-x="647" d="M559 746 L559 296 C559 100 482 -1 333 -1 C215 -1 154 102 154 302 L154 722 C154 737.455 141.455 750 126 750 C110.545 750 98 737.455 98 722 L98 293 C98 94 178 -9 333 -9 C487 -9 567 94 567 295 L567 746 C567 748.208 565.208 750 563 750 C560.792 750 559 748.208 559 746 L559 746 Z " />
<glyph glyph-name="V" unicode="V" horiz-adv-x="576" d="M527.5 750 C525.114 750 522.414 747.969 521.752 745.677 L509 701.5 L363.92 214.242 C346.091 154.363 263.248 154.755 245.986 214.8 L95 740 L93.5 745.5 C92.7012 748.429 89.335 751 86.2991 751 L37.2202 751 C34.486 751 32.4714 749.43 33.2243 746.801 C36.4826 735.426 42.3252 714.015 46.01 703.645 C46.0242 703.605 47.7744 698.419 47.7866 698.378 L249.673 25.4246 C253.547 12.5115 269.018 1 282.5 1 C295.982 1 311.453 12.5115 315.327 25.4246 L518 701 L531.235 746.181 C531.905 748.469 529.884 750 527.5 750 L527.5 750 Z " />
<glyph glyph-name="W" unicode="W" horiz-adv-x="776" d="M734.159 745.364 C731.281 729.917 727.727 714.545 725 700 L652.041 325.881 C639.538 261.769 544.061 261.69 531.453 325.782 L453.212 723.508 C450.389 737.856 435.623 750 421 750 C406.373 750 391.628 737.856 388.823 723.501 L312.538 333.007 C299.994 268.792 203.908 269.156 191.85 333.464 L122 706 L118 724 L115.5 736.5 C114.147 743.266 107.152 749 100.252 749 L83 749 C66.7501 749 55.6447 735.507 58.7702 719.56 L194.807 25.4959 C197.62 11.144 212.375 -1 227 -1 C241.615 -1 256.422 11.1455 259.281 25.4785 L338.747 423.903 C351.506 487.874 446.494 487.874 459.253 423.903 L538.817 24.9881 C541.622 10.9205 556.155 -1 570.5 -1 C584.85 -1 599.352 10.9197 602.13 24.9986 L744.027 744.07 C744.562 746.779 742.747 749.225 740 749.5 C737.276 749.772 734.66 748.056 734.159 745.364 L734.159 745.364 Z " />
<glyph glyph-name="X" unicode="X" horiz-adv-x="637" d="M61.5772 3.72263 L68 13 C75 22 97 50 95 50 L265.447 288.324 C293.352 327.342 344.72 324.815 368.662 283.246 L503 50 L517.5 25 C524.423 13.0632 547.101 0 560.901 0 L561 0 C574.812 0 584.964 8.62029 578.015 20.5573 C508.183 140.515 439.768 261.163 370.759 381.159 C360.907 398.292 364.414 428.039 375.873 444.141 L585 738 C591 746 594 751 594 751 C594 751 591.996 751 591.085 751 L589 751 C586.768 751 582.372 748.761 581.059 746.956 L576 740 C570 732 546 701 548 701 L403.555 497.332 C375.713 458.076 324.137 460.539 300.164 502.27 L186 701 C186 701 160 747 157 751 L128.5 751 C114.933 751 109.576 734.59 116.393 722.859 C176.384 619.62 235.167 515.802 294.427 412.528 C304.239 395.428 304.595 358.953 293.173 342.883 L58 12 L52.6631 4.66171 C51.3861 2.90585 52.3422 0.73976 54.5 0.5 C56.6859 0.257127 60.3253 1.91438 61.5772 3.72263 L61.5772 3.72263 Z " />
<glyph glyph-name="Y" unicode="Y" horiz-adv-x="630" d="M50.8 741.844 C59.2 727.586 67.6 713.44 76 700 L291.119 344.67 C293.657 340.477 300 317.753 300 312.851 L300 28 C300 12.5448 312.545 0 328 0 C343.455 0 356 12.5448 356 28 L356 332.816 C356 337.727 364.098 363.35 366.643 367.55 C434.003 478.697 500.55 589.8 568 700 L595.942 746.57 C596.916 748.193 595.893 750 594 750 C592.112 750 588.905 748.194 587.927 746.579 L352.332 357.848 C351.231 356.032 347.624 354 345.5 354 C343.371 354 339.779 356.032 338.682 357.857 L117.681 725.572 C110.736 737.129 87.9833 750 74.5 750 L55.8615 750 C51.168 750 48.4176 745.888 50.8 741.844 L50.8 741.844 Z " />
<glyph glyph-name="Z" unicode="Z" horiz-adv-x="655" d="M606.5 7 L224.277 7 C171.255 7 143.642 59.2566 173.519 103.06 L608.028 740.109 C608.641 741.008 610 745.411 610 746.5 C610 748.432 608.432 750 606.5 750 L63.5 750 C61.5681 750 60 748.432 60 746.5 C60 744.568 61.5681 743 63.5 743 L430.723 743 C483.745 743 511.358 690.743 481.481 646.94 L46.9722 9.89146 C46.3588 8.99215 45 4.58858 45 3.5 C45 1.5681 46.5681 0 48.5 0 L606.5 0 C608.432 0 610 1.5681 610 3.5 C610 5.4319 608.432 7 606.5 7 L606.5 7 Z " />
<glyph glyph-name="bracketleft" unicode="&#x5b;" horiz-adv-x="328" d="M229.44 722 L284 722 C291.728 722 298 728.272 298 736 C298 743.728 291.728 750 284 750 L197.44 750 C163.527 750 136 722.473 136 688.56 L136 -53.56 C136 -87.473 163.527 -115 197.44 -115 L284 -115 C291.728 -115 298 -108.728 298 -101 C298 -93.2724 291.728 -87 284 -87 L229.44 -87 C195.527 -87 168 -59.473 168 -25.56 L168 660.56 C168 694.473 195.527 722 229.44 722 L229.44 722 Z " />
<glyph glyph-name="backslash" unicode="&#x5c;" horiz-adv-x="312" d="M301 0 C306.663 0 310.075 4.97778 308.033 10.2597 L25.9671 739.74 C23.9247 745.022 16.6631 750 11 750 C5.33693 750 1.92474 745.022 3.9671 739.74 L286.033 10.2597 C288.075 4.97778 295.337 0 301 0 L301 0 Z " />
<glyph glyph-name="bracketright" unicode="&#x5d;" horiz-adv-x="318" d="M160 660.56 L160 -25.56 C160 -59.473 132.473 -87 98.56 -87 L44 -87 C36.2724 -87 30 -93.2724 30 -101 C30 -108.728 36.2724 -115 44 -115 L131.56 -115 C165.473 -115 193 -87.473 193 -53.56 L193 688.56 C193 722.473 165.473 750 131.56 750 L44 750 C36.2724 750 30 743.728 30 736 C30 728.272 36.2724 722 44 722 L98.56 722 C132.473 722 160 694.473 160 660.56 L160 660.56 Z " />
<glyph glyph-name="asciicircum" unicode="&#x5e;" horiz-adv-x="340" d="M185.951 706.23 C227.391 684.984 294 600 294 600 C294 600 290.919 600 317 600 C326.128 600 330.359 609.974 324.014 616.537 L212.376 732.025 C205.48 739.159 179.922 750 170 750 C160.078 750 134.52 739.159 127.624 732.025 L15.9855 616.537 C9.6415 609.974 13.8722 600 23 600 C31.4674 600 56.828 609.693 63.1369 615.34 L156.216 698.661 C168.982 710.088 170.705 714.047 185.951 706.23 L185.951 706.23 Z " />
<glyph glyph-name="underscore" unicode="&#x5f;" horiz-adv-x="680" d="M65 -115 L615 -115 C623.28 -115 630 -108.28 630 -100 C630 -91.7205 623.28 -85 615 -85 L65 -85 C56.7205 -85 50 -91.7205 50 -100 C50 -108.28 56.7205 -115 65 -115 L65 -115 Z " />
<glyph glyph-name="grave" unicode="&#x60;" horiz-adv-x="340" d="M170 600 C181.649 600 188.487 610.415 183.855 621.104 L141.121 719.721 C134.476 735.056 111.713 750 95 750 C79.1525 750 70.4564 735.077 78.2694 721.289 L135.661 620.011 C141.106 610.401 158.955 600 170 600 L170 600 Z " />
<glyph glyph-name="a" unicode="a" horiz-adv-x="550" d="M82.5 381.5 C84.3709 380.698 87.5011 384.48 88.1894 386.395 C117.807 468.814 192.175 523 277 523 C366 523 425 483 425 381 C425 269 353 238 246 238 C133 238 57 179 57 91 C57 31 111 -9 249 -9 C330.375 -9 391.078 13.9688 416.371 86.7031 C417.457 89.8259 425 87.8062 425 84.5 L425 48 C425 5.45 428.423 0.5475 500.958 0.0514687 C511.239 -0.0188376 520 8.21873 520 18.5 C520 28.5851 510.461 36.9413 500.377 37.0661 C476.339 37.3636 475 39 475 48 L475 360 C475 482 396 529 277 529 C189.25 529 111.006 473.864 81.1968 389.543 C80.4751 387.502 80.5098 382.353 82.5 381.5 L82.5 381.5 Z M425 295.208 L425 174 C425 35 355 -4 251 -4 C147 -4 106 35 106 93 C106 177 164 233 250 233 C325.9 233 384.444 248.995 411.594 299.514 C413.579 303.208 425 299.401 425 295.208 L425 295.208 Z " />
<glyph glyph-name="b" unicode="b" horiz-adv-x="599" d="M137 25 L137 129.06 C137 133.388 149.645 137.195 150.935 133.063 C181.28 35.9212 250.25 -9 341 -9 C466 -9 549 99 549 260 C549 421 466 529 341 529 C250.25 529 181.28 484.079 150.935 386.937 C149.645 382.805 137 386.612 137 390.94 L137 725 C137 738.799 125.799 750 112 750 C98.2007 750 87 738.799 87 725 L87 25 C87 11.2007 98.2007 0 112 0 C125.799 0 137 11.2007 137 25 L137 25 Z M137 260 C137 441 218 523 339 523 C432 523 494 418 494 260 C494 106 431 4 336 4 C217 4 137 83 137 260 L137 260 Z " />
<glyph glyph-name="c" unicode="c" horiz-adv-x="547" d="M507.589 130.753 C475.144 50.235 399.85 -3 316 -3 C200 -3 122 79 122 260 C122 441 200 523 316 523 C401 523 464 460 510 366 C510.923 364.114 511.571 366.673 513.5 367.5 C515.455 368.338 514.483 374.033 513.512 375.926 C467.685 465.308 402.75 529 315 529 C166 529 66 446 66 260 C66 74 166 -9 315 -9 C404 -9 485 48 516 134 C516.623 135.73 514.644 134.678 513 135.5 C511.398 136.301 508.259 132.415 507.589 130.753 L507.589 130.753 Z M512 369 L511 369 L511 372 L512 369 L512 369 Z " />
<glyph glyph-name="d" unicode="d" horiz-adv-x="588" d="M122 260 C122 418 182 523 271 523 C389 523 468 418 468 260 C468 102 389 -3 271 -3 C182 -3 122 102 122 260 L122 260 Z M67 260 C67 99 148 -9 269 -9 C357.275 -9 424.451 48.8531 454.243 143.222 C455.546 147.35 468 145.846 468 141.517 L468 25 C468 11.2007 479.201 0 493 0 C506.799 0 518 11.2007 518 25 L518 725 C518 738.799 506.799 750 493 750 C479.201 750 468 738.799 468 725 L468 378.483 C468 374.154 455.546 372.65 454.243 376.778 C424.451 471.147 357.275 529 269 529 C148 529 67 421 67 260 L67 260 Z " />
<glyph glyph-name="e" unicode="e" horiz-adv-x="553" d="M514.154 130.753 C488.586 50.235 402.25 -3 295 -3 C205.75 -3 142.531 57.4844 126.111 189.172 C121.396 226.988 146.399 250 184.508 250 L468.56 250 C506.193 250 531.01 272.53 526.883 309.936 C512.172 443.25 444.25 529 299 529 C160 529 67 446 67 260 C67 74 158 -9 295 -9 C406.15 -9 495.436 45.1856 521.148 127.605 C521.797 129.685 521.503 134.642 519.5 135.5 C517.654 136.291 514.762 132.668 514.154 130.753 L514.154 130.753 Z M418.177 255 L183.105 255 C145.698 255 121.076 281.849 124.93 319.057 C139.313 457.922 205.375 523 299 523 C411.875 523 465.031 441.078 477.227 312.74 C480.738 275.786 455.298 255 418.177 255 L418.177 255 Z " />
<glyph glyph-name="f" unicode="f" horiz-adv-x="362" d="M289 750 L197 750 C147 750 127 728 127 670 L127 568.5 C127 541.729 105.271 520 78.5 520 L33 520 C31.3441 520 30 518.656 30 517 C30 515.344 31.3441 514 33 514 L78.5 514 C105.271 514 127 492.271 127 465.5 L127 25 C127 11.2007 138.201 0 152 0 C165.799 0 177 11.2007 177 25 L177 456.5 C177 488.238 202.762 514 234.5 514 L289 514 C290.656 514 292 515.344 292 517 C292 518.656 290.656 520 289 520 L234.5 520 C202.762 520 177 545.762 177 577.5 L177 670 C177 723 183 744 199 744 L289 744 C290.656 744 292 745.344 292 747 C292 748.656 290.656 750 289 750 L289 750 Z " />
<glyph glyph-name="g" unicode="g" horiz-adv-x="578" d="M79.1587 -95.5439 C83.2769 -140.889 167.2 -158 292 -158 C448 -158 508 -86 508 21 L508 495 C508 508.799 496.799 520 483 520 C469.201 520 458 508.799 458 495 L458 378.928 C458 374.866 446.043 373.455 444.854 377.34 C416.151 471.147 350.625 529 264 529 C146 529 67 454 67 260 C67 73 146 0 264 0 C350.625 0 416.151 55.8112 444.854 146.658 C446.077 150.527 458 149.116 458 145.059 L458 0 C458 -91 411 -152 291 -152 C172.05 -152 91.125 -135.839 87.1531 -95.1764 C86.9593 -93.1926 84.9932 -92 83 -92 C80.5924 -92 78.941 -93.1462 79.1587 -95.5439 L79.1587 -95.5439 Z M122 260 C122 449 180 523 266 523 C381 523 458 418 458 260 C458 108 381 6 266 6 C180 6 122 77 122 260 L122 260 Z " />
<glyph glyph-name="h" unicode="h" horiz-adv-x="539" d="M469 24.5051 L469 315 C469 454 409 525 319 525 C237.325 525 175.388 485.524 149.473 421.732 C148.267 418.763 138 419.698 138 422.903 L138 726 C138 739.799 126.799 751 113 751 C99.2007 751 88 739.799 88 726 L88 26 C88 12.2007 99.2007 1 113 1 C126.799 1 138 12.2007 138 26 L138 349 C138 451 210 519 317 519 C379 519 420 450 420 316 L420 25.5051 C420 11.9818 430.98 0.775928 444.5 0.5 C458.02 0.224072 469 10.9818 469 24.5051 L469 24.5051 Z " />
<glyph glyph-name="i" unicode="i" horiz-adv-x="222" d="M127 600 C143.559 600 157 613.441 157 630 C157 646.559 143.559 660 127 660 C110.441 660 97 646.559 97 630 C97 613.441 110.441 600 127 600 L127 600 Z M152 25 L152 495 C152 508.799 140.799 520 127 520 C113.201 520 102 508.799 102 495 L102 25 C102 11.2007 113.201 0 127 0 C140.799 0 152 11.2007 152 25 L152 25 Z " />
<glyph glyph-name="j" unicode="j" horiz-adv-x="222" d="M127 600 C143.559 600 157 613.441 157 630 C157 646.559 143.559 660 127 660 C110.441 660 97 646.559 97 630 C97 613.441 110.441 600 127 600 L127 600 Z M17 -78 C17 -79.6559 18.3441 -81 20 -81 L54 -81 C130 -81 152 0 152 0 C152 0 152 -25.7178 152 8.19525 L152 495 C152 508.799 140.799 520 127 520 C113.201 520 102 508.799 102 495 L102 4.48163 C102 4.08986 102.038 0.248965 101.979 -0.138281 C101.433 -3.70313 90.025 -75 52 -75 L20 -75 C18.3441 -75 17 -76.3441 17 -78 L17 -78 Z " />
<glyph glyph-name="k" unicode="k" horiz-adv-x="517" d="M446.731 516.867 L426 497 C411 483 397 470 398 470 L241.028 319.042 C199.641 279.241 137 305.907 137 363.327 L137 725 C137 738.799 125.799 750 112 750 C98.2007 750 87 738.799 87 725 L87 25 C87 11.2007 98.2007 0 112 0 C125.799 0 137 11.2007 137 25 L137 183.773 C137 194.227 148.39 220.911 155.939 228.142 L184.5 255.5 C210.449 280.356 249.346 276.715 270.232 247.476 L429.563 24.412 C437.395 13.4472 463.525 0 477 0 L500.199 0 C503.215 0 504.423 3.57311 502.68 6.03469 C494.379 17.7584 482.72 34.76 476 44 L301.59 297.066 C285.475 320.449 289.1 356.474 309.551 376.178 L436 498 L455.798 517.798 C456.902 518.902 456.052 520.672 454.5 520.5 C452.99 520.332 447.828 517.919 446.731 516.867 L446.731 516.867 Z " />
<glyph glyph-name="l" unicode="l" horiz-adv-x="222" d="M152 25 L152 725 C152 738.799 140.799 750 127 750 C113.201 750 102 738.799 102 725 L102 25 C102 11.2007 113.201 0 127 0 C140.799 0 152 11.2007 152 25 L152 25 Z " />
<glyph glyph-name="m" unicode="m" horiz-adv-x="790" d="M725 24.5051 L725 315 C725 454 675 525 599 525 C524.75 525 470.238 479.398 451.748 406.724 C450.972 403.674 438.394 400.232 437.668 403.295 C418.605 483.818 370.75 525 307 525 C230.275 525 173.288 485.524 148.954 421.732 C147.807 418.726 138 419.685 138 422.903 L138 494 C138 507.799 126.799 519 113 519 C99.2007 519 88 507.799 88 494 L88 24 C88 10.2007 99.2007 -1 113 -1 C126.799 -1 138 10.2007 138 24 L138 347 C138 449 204 517 304 517 C360 517 397 448 397 314 L397 24 C397 10.2007 408.201 -1 422 -1 C435.799 -1 447 10.2007 447 24 L447 314 C447 324.214 447.431 334.429 446.692 344.643 C446.679 344.819 446.608 354.409 446.613 354.586 C449.543 452.357 509.25 517 597 517 C644 517 676 448 676 314 L676 23.5051 C676 9.98184 686.98 -0.775928 700.5 -0.5 C714.02 -0.224072 725 10.9818 725 24.5051 L725 24.5051 Z " />
<glyph glyph-name="n" unicode="n" horiz-adv-x="534" d="M469 24.5051 L469 315 C469 454 409 525 319 525 C237.325 525 175.388 485.524 149.473 421.732 C148.267 418.763 138 419.698 138 422.903 L138 496 C138 509.799 126.799 521 113 521 C99.2007 521 88 509.799 88 496 L88 26 C88 12.2007 99.2007 1 113 1 C126.799 1 138 12.2007 138 26 L138 349 C138 451 210 519 317 519 C379 519 420 450 420 316 L420 25.5051 C420 11.9818 430.98 0.775928 444.5 0.5 C458.02 0.224072 469 10.9818 469 24.5051 L469 24.5051 Z " />
<glyph glyph-name="o" unicode="o" horiz-adv-x="590" d="M122 260 C122 441 195 523 304 523 C429 523 485 418 485 260 C485 79 413 -3 304 -3 C178 -3 122 102 122 260 L122 260 Z M67 260 C67 99 140 -9 304 -9 C446 -9 540 74 540 260 C540 421 467 529 304 529 C162 529 67 446 67 260 L67 260 Z " />
<glyph glyph-name="p" unicode="p" horiz-adv-x="599" d="M137 -130 L137 129.06 C137 133.388 149.645 137.195 150.935 133.063 C181.28 35.9212 250.25 -9 341 -9 C466 -9 549 99 549 260 C549 421 466 529 341 529 C250.25 529 181.28 484.079 150.935 386.937 C149.645 382.805 137 386.612 137 390.94 L137 495 C137 508.799 125.799 520 112 520 C98.2007 520 87 508.799 87 495 L87 -130 C87 -143.799 98.2007 -155 112 -155 C125.799 -155 137 -143.799 137 -130 L137 -130 Z M137 260 C137 441 218 523 339 523 C432 523 494 418 494 260 C494 102 432 -3 339 -3 C218 -3 137 79 137 260 L137 260 Z " />
<glyph glyph-name="q" unicode="q" horiz-adv-x="588" d="M122 260 C122 418 182 523 271 523 C389 523 468 418 468 260 C468 102 389 -3 271 -3 C182 -3 122 102 122 260 L122 260 Z M67 260 C67 99 148 -9 269 -9 C357.275 -9 424.451 48.8531 454.243 143.222 C455.546 147.35 468 145.846 468 141.517 L468 -130 C468 -143.799 479.201 -155 493 -155 C506.799 -155 518 -143.799 518 -130 L518 495 C518 508.799 506.799 520 493 520 C479.201 520 468 508.799 468 495 L468 378.483 C468 374.154 455.546 372.65 454.243 376.778 C424.451 471.147 357.275 529 269 529 C148 529 67 421 67 260 L67 260 Z " />
<glyph glyph-name="r" unicode="r" horiz-adv-x="370" d="M350 516 C350 518.208 348.208 520 346 520 L340 520 C231.1 520 171.205 462.828 147.4 369.82 C146.658 366.92 137 368.239 137 371.232 L137 494 C137 507.799 125.799 519 112 519 C98.2007 519 87 507.799 87 494 L87 24 C87 10.2007 98.2007 -1 112 -1 C125.799 -1 137 10.2007 137 24 L137 257 C137 409 194 511 339 511 C339.139 511 341.637 511.24 341.776 511.252 L346.016 511.638 C348.206 511.837 350 513.801 350 516 L350 516 Z " />
<glyph glyph-name="s" unicode="s" horiz-adv-x="509" d="M56 139 L56 139 L56 139 Z M456 378 L455 378 L455 381 L456 378 L456 378 Z M57 127 C93 48 178 -4 274 -4 C397 -4 479 54 479 141 C479 217 410 272 276 282 C174 289 122 329 122 383 C122 465 180 519 267 519 C338.175 519 410.301 463.864 449.083 381.397 C449.956 379.54 453.614 375.692 455.5 376.5 C457.423 377.324 458.179 379.506 457.177 381.343 L453 389 C413 471 339 525 266 525 C150 525 73 467 73 379 C73 303 138 247 263 238 C373 230 429 190 429 137 C429 55 367 1 273 1 C176 1 86.75 56.25 54.75 141.25 C54.2407 142.603 53.6815 140.744 52.375 140.125 L50 139 C51 136 56 130.5 56 127.5 L57 127 Z " />
<glyph glyph-name="t" unicode="t" horiz-adv-x="345" d="M312 520 L233.44 520 C199.527 520 172 547.527 172 581.44 L172 664.35 C172 678.15 157.566 684.876 147 676 L143.922 673.415 C134.657 665.632 122 638.47 122 626.37 L122 576 C122 545.09 96.9103 520 66 520 L13 520 C11.3441 520 10 518.656 10 517 C10 515.344 11.3441 514 13 514 L66 514 C96.9103 514 122 488.91 122 458 L122 137 C122 34 126 0 219 0 L312 0 C313.656 0 315 1.34409 315 3 C315 4.65591 313.656 6 312 6 L222 6 C174 6 172 39 172 137 L172 452.56 C172 486.473 199.527 514 233.44 514 L312 514 C313.656 514 315 515.344 315 517 C315 518.656 313.656 520 312 520 L312 520 Z " />
<glyph glyph-name="u" unicode="u" horiz-adv-x="519" d="M449 25.005 L449 495 C449 508.799 437.799 520 424 520 C410.201 520 399 508.799 399 495 L399 149 C399 58 342 -2 256 -2 C159 -2 132 57 132 172 L132 495 C132 508.799 120.799 520 107 520 C93.2007 520 82 508.799 82 495 L82 172 C82 53 120 -9 253 -9 C318.175 -9 367.696 25.0312 389.209 80.7404 C390.271 83.4908 399 82.5625 399 79.6141 L399 24.005 C399 10.2057 410.204 -0.77593 424 -0.5 C437.796 -0.22407 449 11.2057 449 25.005 L449 25.005 Z " />
<glyph glyph-name="v" unicode="v" horiz-adv-x="497" d="M469.217 517.783 C463.476 501.524 457.696 485.304 451 470 L335.168 163.542 C314.036 107.633 239.886 108.338 219.822 164.64 L111 470 C111 470 100.188 500.891 94.8526 515.166 C93.8536 517.839 90.4681 520 87.6148 520 L42.2202 520 C39.4501 520 36.2367 522.498 37.0459 519.849 C37.4439 518.546 40.4286 508.929 46 495 L55 473 L225.859 21.5112 C230.062 10.4062 245.126 0 257 0 C268.872 0 285.216 13.6631 289.443 24.7571 C349.202 181.595 408.15 339.2 468 495 C474 510 477 520 477 520 C477 520 474.937 520 473.5 520 C471.679 520 469.824 519.5 469.217 517.783 L469.217 517.783 Z " />
<glyph glyph-name="w" unicode="w" horiz-adv-x="751" d="M700 470 C700 470 709 501 711 509 L712.5 514 C713.347 516.823 711.359 519.145 708.424 518.872 C702.92 518.36 704.2 515.8 701 503 L619.268 215.488 C602.101 155.099 518.122 155.162 501.046 215.577 L420.848 499.311 C417.742 510.3 404.92 520 393.5 520 C382.098 520 369.201 510.298 366.04 499.342 L285.664 220.742 C268.196 160.193 183.31 161.161 167.227 222.093 L101 473 C100 478 89 519 89 519 C89 519 83.0481 519 67.775 519 L41.7009 519 C38.6504 519 36.7144 516.38 37.5356 513.443 C40.755 501.925 45.6 485.35 49 476 L181.292 19.6892 C184.318 9.25119 196.632 0 207.5 0 C218.373 0 230.666 9.25065 233.678 19.6981 L315.963 305.179 C333.308 365.353 416.692 365.353 434.037 305.179 L516.184 20.1785 C519.269 9.47628 531.862 0 543 0 C554.142 0 567.68 12.8388 570.75 23.5499 C613.502 172.698 656.3 321.8 700 470 L700 470 Z " />
<glyph glyph-name="x" unicode="x" horiz-adv-x="486" d="M76 470 L207.385 289.554 C221.411 270.29 221.235 235.84 207.013 216.72 L83 50 L76 41 L48.0155 3.9883 C46.6878 2.23231 47.7986 0 50 0 C52.2205 0 56.6506 2.23631 57.9693 4.02287 L86 42 L189.134 180.186 C215.424 215.412 262.191 215.128 288.053 179.587 L399.761 26.0664 C407.901 14.8788 435.164 1 449 1 L460.296 1 C469.128 1 485.08 -6.06661 479.925 1.10459 C478.486 3.10667 456.8 33.2667 451 41 L296.749 252.349 C282.638 271.684 282.832 306.172 297.16 325.347 L406 471 L413 480 L440.984 517.012 C442.312 518.768 441.201 521 439 521 C436.779 521 432.349 518.764 431.031 516.977 L403 479 L315.72 361.778 C289.496 326.557 242.773 326.755 216.849 362.198 L138 470 L131 479 L116.5 499 C110.02 507.938 88.3362 519 77.2968 519 L45.3012 519 C43.3894 519 42.1328 517.388 43.2125 515.81 C51.4806 503.729 74.3077 469.5 77 469.5 L76 470 Z " />
<glyph glyph-name="y" unicode="y" horiz-adv-x="477" d="M253.5 -26 L282 46.5 L465.544 516.274 C466.293 518.19 465.056 520 463 520 C460.95 520 458.276 518.189 457.514 516.286 L439 470 L332.298 197.316 C311.063 143.049 240.907 142.228 218.407 195.982 L103.5 470.5 L93.25 494.75 C88.0387 507.079 70.058 519 56.6727 519 L40.4629 519 C33.5633 519 29.4375 512.906 32 506.5 L37 494 L45 475 L238.551 5.90222 C242.259 -3.08597 244.006 -27.1351 240.352 -36.1455 C192.843 -153.29 162.3 -193 111 -193 L64.5 -193 C62.5681 -193 61 -194.568 61 -196.5 C61 -198.432 62.5681 -200 64.5 -200 L111 -200 C167 -200 199 -161 252 -25 L253.5 -26 Z " />
<glyph glyph-name="z" unicode="z" horiz-adv-x="460" d="M415 70.5 C415.414 70.5 415.425 71.2373 415.011 71.2497 L414.989 71.2503 C414.575 71.2627 414.586 70.5 415 70.5 L415 70.5 Z M48 514 L145 514 C238 514 333 513 424 515 L424 520 L48 520 C46.3441 520 45 518.656 45 517 C45 515.344 46.3441 514 48 514 L48 514 Z M30 5 L30 0 L437 0 C438.656 0 440 1.34409 440 3 C440 4.65465 432.203 6.00239 430.548 6.00366 C310.802 6.09509 190.222 7.85616 71.3787 6.14259 C70.3899 6.12834 74.0226 7.84963 75 8 C80.3002 8.81542 92.3154 16.4859 95.2859 20.9506 L407.638 490.408 C414.893 501.313 407.581 514.165 394.5 513.5 C381.388 512.833 355.954 498.309 348.716 487.356 L30 5 L30 5 Z " />
<glyph glyph-name="braceleft" unicode="&#x7b;" horiz-adv-x="320" d="M276.5 750 L220 750 C170 750 136 712 136 655 L136 387 C136 350 107.764 331.824 65.5393 329.305 C59.5801 328.95 55 323.47 55 317.5 C55 311.53 59.5801 306.05 65.5393 305.695 C107.764 303.176 136 285 136 248 L136 -20 C136 -77 170 -115 220 -115 L276 -115 C283.728 -115 290 -108.728 290 -101 C290 -93.2724 283.728 -87 276 -87 L220 -87 C189 -87 168 -60 168 -20 L168 241 C168 274.825 153.026 300.483 128.132 312.357 C125.235 313.739 125.235 322.261 128.132 323.643 C153.026 335.517 168 361.175 168 395 L168 656 C168 696 189 723 220 723 L276.5 723 C283.952 723 290 729.048 290 736.5 C290 743.952 283.952 750 276.5 750 L276.5 750 Z " />
<glyph glyph-name="bar" unicode="&#x7c;" horiz-adv-x="123" d="M45 783.5 L45 -233.5 C45 -242.608 52.3925 -250 61.5 -250 C70.6075 -250 78 -242.608 78 -233.5 L78 783.5 C78 792.608 70.6075 800 61.5 800 C52.3925 800 45 792.608 45 783.5 L45 783.5 Z " />
<glyph glyph-name="braceright" unicode="&#x7d;" horiz-adv-x="320" d="M30 736 C30 728.272 36.2724 722 44 722 L100 722 C131 722 152 695 152 655 L152 394 C152 360.175 166.974 334.518 191.868 322.643 C194.765 321.261 194.765 312.739 191.868 311.357 C166.974 299.482 152 273.825 152 240 L152 -21 C152 -61 131 -88 100 -88 L44 -88 C36.2724 -88 30 -94.2724 30 -102 C30 -109.728 36.2724 -116 44 -116 L100 -116 C150 -116 184 -78 184 -21 L184 247 C184 284 212.236 302.176 254.461 304.695 C260.42 305.05 265 310.53 265 316.5 C265 322.47 260.42 327.95 254.461 328.305 C212.236 330.824 184 349 184 386 L184 654 C184 711 150 749 100 749 L43.9986 749.8 C36.2726 749.91 30 743.727 30 736 L30 736 Z " />
<glyph glyph-name="asciitilde" unicode="&#x7e;" horiz-adv-x="340" d="M90.9012 276.572 C94.1657 305.101 106.077 323 123 323 C149 323 188 251 220 251 C219 251 217 290 217 290 C217 290 218.487 270.669 218.498 270.532 L218.5 270.5 C219.655 255.483 225.705 249.165 239.731 254.654 C265.121 264.592 282.39 294.148 286.204 335.321 C287.233 346.427 279.653 353 268.5 353 C259.662 353 249.967 342.621 248.778 333.864 C245.796 311.9 237.515 296.67 225.712 291.731 C218.088 288.541 222.437 284.016 216.88 290.133 C213.771 293.555 151.2 362 120 362 C120.818 362 121.636 355.306 122.455 347.394 C122.469 347.257 122.756 346.881 122.749 347.019 L122.5 352 C122.179 358.426 119.579 362.326 113.225 361.317 C81.899 356.341 60.1355 324.531 55.796 277.679 C54.823 267.174 61.9497 260 72.5 260 C81.0613 260 89.9279 268.066 90.9012 276.572 L90.9012 276.572 Z " />
<glyph glyph-name="nbspace" unicode="&#xa0;" horiz-adv-x="220" d="" />
<glyph glyph-name="exclamdown" unicode="&#xa1;" horiz-adv-x="149" d="M44 720 C44 703.441 57.4409 690 74 690 C90.5591 690 104 703.441 104 720 C104 736.559 90.5591 750 74 750 C57.4409 750 44 736.559 44 720 L44 720 Z M74.5 0 C90.7831 0 104 13.2169 104 29.5 L104 307.269 C104 307.403 103.77 312.587 103.758 312.72 L82.6654 549.53 C82.2996 553.637 78.6235 557 74.5 557 C70.3765 557 66.7004 553.637 66.3346 549.53 L45.2423 312.72 C45.2304 312.587 45 307.403 45 307.269 L45 29.5 C45 13.2169 58.2169 0 74.5 0 L74.5 0 Z " />
<glyph glyph-name="cent" unicode="&#xa2;" horiz-adv-x="547" d="M300 578.492 L300 562 C300 545.515 285.651 528.518 269.313 526.327 C146.573 509.866 67 425.575 67 260 C67 94.425 146.573 10.1344 269.313 -6.32658 C285.651 -8.51784 300 -25.5148 300 -42 L300 -59 C300 -67.8315 307.168 -75 316 -75 C324.832 -75 332 -67.8315 332 -59 L332 -41.5 C332 -25.9634 347.428 -6.89004 362.59 -3.49805 C430.563 11.709 488.241 60.2413 514.743 127.974 C515.531 129.988 515.488 134.648 513.5 135.5 C511.621 136.305 508.507 133.021 507.75 131.122 C482.965 68.9337 433.06 23.1132 373.395 5.43673 C348.442 -1.95594 333 11.5886 333 37.6138 L333 484.341 C333 510.36 347.188 523.23 371.701 514.508 C428.079 494.45 472.745 442.855 507.747 373.549 C508.68 371.701 512.597 367.684 514.5 368.5 C516.455 369.338 515.701 374.657 514.741 376.554 C478.523 448.147 430.019 502.844 368.107 522.114 C354.58 526.324 333 548.333 333 562.5 L333 579.492 C333 588.6 325.603 595.776 316.5 595.5 C307.397 595.224 300 587.6 300 578.492 L300 578.492 Z M514 370 L513 370 L513 373 L514 370 L514 370 Z M248.32 9.73253 C171.324 37.8062 123 119.275 123 262 C123 404.725 171.324 486.194 248.32 514.267 C283.285 527.016 301 508.602 301 471.386 L301 52.6144 C301 15.3977 283.285 -3.01618 248.32 9.73253 L248.32 9.73253 Z " />
<glyph glyph-name="guillemotleft" unicode="&#xab;" horiz-adv-x="483" d="M372.074 452.111 L266.721 294.081 C255.144 276.716 255.144 243.284 266.721 225.919 L372.074 67.8891 C377.551 59.6732 395.626 50 405.5 50 C415.374 50 420.551 59.6732 415.074 67.8891 L309.721 225.919 C298.144 243.284 298.144 276.716 309.721 294.081 L415.074 452.111 C420.551 460.327 415.374 470 405.5 470 C395.626 470 377.551 460.327 372.074 452.111 L372.074 452.111 Z M211.797 451.695 L106.721 294.081 C95.1442 276.716 95.1442 243.284 106.721 225.919 L211.797 68.3051 C217.401 59.8982 235.896 50 246 50 C256.104 50 261.401 59.8982 255.797 68.3051 L150.721 225.919 C139.144 243.284 139.144 276.716 150.721 294.081 L255.797 451.695 C261.401 460.102 256.104 470 246 470 C235.896 470 217.401 460.102 211.797 451.695 L211.797 451.695 Z " />
<glyph glyph-name="logicalnot" unicode="&#xac;" horiz-adv-x="408" d="M358 113.5 L358 204.56 C358 238.473 330.473 266 296.56 266 L53 266 C51.3441 266 50 264.656 50 263 C50 261.344 51.3441 260 53 260 L289.56 260 C323.473 260 351 232.473 351 198.56 L351 113.5 C351 111.568 352.568 110 354.5 110 C356.432 110 358 111.568 358 113.5 L358 113.5 Z " />
<glyph glyph-name="acute" unicode="&#xb4;" horiz-adv-x="340" d="M170 600 C181.045 600 198.894 610.401 204.339 620.011 L261.731 721.289 C269.544 735.077 260.847 750 245 750 C228.287 750 205.524 735.056 198.879 719.721 L156.145 621.104 C151.513 610.415 158.351 600 170 600 L170 600 Z " />
<glyph glyph-name="periodcentered" unicode="&#xb7;" horiz-adv-x="160" d="M80 230 C96.5591 230 110 243.441 110 260 C110 276.559 96.5591 290 80 290 C63.4409 290 50 276.559 50 260 C50 243.441 63.4409 230 80 230 L80 230 Z " />
<glyph glyph-name="guillemotright" unicode="&#xbb;" horiz-adv-x="465" d="M265.926 452.111 L371.279 294.081 C382.856 276.716 382.856 243.284 371.279 225.919 L265.926 67.8891 C260.449 59.6732 265.626 50 275.5 50 C285.374 50 303.449 59.6732 308.926 67.8891 L414.279 225.919 C425.856 243.284 425.856 276.716 414.279 294.081 L308.926 452.111 C303.449 460.327 285.374 470 275.5 470 C265.626 470 260.449 460.327 265.926 452.111 L265.926 452.111 Z M106.203 451.695 L211.279 294.081 C222.856 276.716 222.856 243.284 211.279 225.919 L106.203 68.3051 C100.599 59.8982 105.896 50 116 50 C126.104 50 144.599 59.8982 150.203 68.3051 L255.279 225.919 C266.856 243.284 266.856 276.716 255.279 294.081 L150.203 451.695 C144.599 460.102 126.104 470 116 470 C105.896 470 100.599 460.102 106.203 451.695 L106.203 451.695 Z " />
<glyph glyph-name="questiondown" unicode="&#xbf;" horiz-adv-x="549" d="M228 750 C211.441 750 198 736.559 198 720 C198 703.441 211.441 690 228 690 C244.559 690 258 703.441 258 720 C258 736.559 244.559 750 228 750 L228 750 Z M459 197 C447.204 198.966 434.13 190.144 431.727 178.43 C413.209 88.1825 333.15 30 224 30 C121 30 52 96 52 195 C52 274 74 314 131 341 C225.35 384.475 248.683 417.683 251.652 528.474 C252.017 542.071 241.602 557 228 557 C215.135 557 204.061 546.212 203.689 533.353 C201.034 441.433 180.175 412.85 96 374 C27 342 0 292 0 195 C0 73 90 -9 224 -9 C358.125 -9 456.314 60.3056 478.994 166.467 C482.154 181.259 473.919 194.513 459 197 L459 197 Z " />
<glyph glyph-name="Agrave" unicode="&#xc0;" horiz-adv-x="738" d="M386 830 C397.649 830 404.487 840.415 399.855 851.104 L357.121 949.721 C350.476 965.056 327.713 980 311 980 C295.153 980 286.456 965.077 294.269 951.289 L351.661 850.011 C357.106 840.401 374.955 830 386 830 L386 830 Z M577.786 216.279 L648 48.5 L658.5 24.25 C663.819 11.9667 682.04 0 695.426 0 L715.537 0 C722.437 0 726.562 6.09386 724 12.5 L719 25 C715 36 711 44 709 48 L427.748 721.853 C421.764 736.191 401.036 750 385.5 750 L381.426 750 C368.04 750 349.819 738.033 344.5 725.75 L334 701.5 L61 47 L51 25 L42.6713 4.17815 C41.8148 2.03688 43.1938 0 45.5 0 C47.7794 0 50.8823 2.03781 51.788 4.12952 L71 48.5 L141.214 216.279 C149.252 235.486 177.07 254 197.891 254 L521.109 254 C541.93 254 569.748 235.486 577.786 216.279 L577.786 216.279 Z M194.264 344.987 L302.251 605.236 C324.428 658.681 393.572 658.681 415.749 605.236 L523.736 344.987 C541.714 301.659 513.897 260 466.987 260 L251.013 260 C204.103 260 176.286 301.659 194.264 344.987 L194.264 344.987 Z " />
<glyph glyph-name="Aacute" unicode="&#xc1;" horiz-adv-x="738" d="M386 830 C397.045 830 414.894 840.401 420.339 850.011 L477.731 951.289 C485.544 965.077 476.847 980 461 980 C444.287 980 421.524 965.056 414.879 949.721 L372.145 851.104 C367.513 840.415 374.351 830 386 830 L386 830 Z M577.786 216.279 L648 48.5 L658.5 24.25 C663.819 11.9667 682.04 0 695.426 0 L715.537 0 C722.437 0 726.562 6.09386 724 12.5 L719 25 C715 36 711 44 709 48 L427.748 721.853 C421.764 736.191 401.036 750 385.5 750 L381.426 750 C368.04 750 349.819 738.033 344.5 725.75 L334 701.5 L61 47 L51 25 L42.6713 4.17815 C41.8148 2.03688 43.1938 0 45.5 0 C47.7794 0 50.8823 2.03781 51.788 4.12952 L71 48.5 L141.214 216.279 C149.252 235.486 177.07 254 197.891 254 L521.109 254 C541.93 254 569.748 235.486 577.786 216.279 L577.786 216.279 Z M194.264 344.987 L302.251 605.236 C324.428 658.681 393.572 658.681 415.749 605.236 L523.736 344.987 C541.714 301.659 513.897 260 466.987 260 L251.013 260 C204.103 260 176.286 301.659 194.264 344.987 L194.264 344.987 Z " />
<glyph glyph-name="Acircumflex" unicode="&#xc2;" horiz-adv-x="738" d="M401.951 936.23 C443.391 914.984 510 830 510 830 C510 830 506.919 830 533 830 C542.128 830 546.359 839.974 540.014 846.537 L428.376 962.025 C421.48 969.159 395.922 980 386 980 C376.078 980 350.52 969.159 343.624 962.025 L231.986 846.537 C225.641 839.974 229.872 830 239 830 C247.467 830 272.828 839.693 279.137 845.34 L372.216 928.661 C384.982 940.088 386.705 944.047 401.951 936.23 L401.951 936.23 Z M577.786 216.279 L648 48.5 L658.5 24.25 C663.819 11.9667 682.04 0 695.426 0 L715.537 0 C722.437 0 726.562 6.09386 724 12.5 L719 25 C715 36 711 44 709 48 L427.748 721.853 C421.764 736.191 401.036 750 385.5 750 L381.426 750 C368.04 750 349.819 738.033 344.5 725.75 L334 701.5 L61 47 L51 25 L42.6713 4.17815 C41.8148 2.03688 43.1938 0 45.5 0 C47.7794 0 50.8823 2.03781 51.788 4.12952 L71 48.5 L141.214 216.279 C149.252 235.486 177.07 254 197.891 254 L521.109 254 C541.93 254 569.748 235.486 577.786 216.279 L577.786 216.279 Z M194.264 344.987 L302.251 605.236 C324.428 658.681 393.572 658.681 415.749 605.236 L523.736 344.987 C541.714 301.659 513.897 260 466.987 260 L251.013 260 C204.103 260 176.286 301.659 194.264 344.987 L194.264 344.987 Z " />
<glyph glyph-name="Atilde" unicode="&#xc3;" horiz-adv-x="738" d="M306.901 846.572 C310.166 875.101 322.077 893 339 893 C365 893 404 821 436 821 C435 821 433 860 433 860 C433 860 434.487 840.669 434.498 840.532 L434.5 840.5 C435.655 825.483 441.705 819.165 455.731 824.654 C481.121 834.592 498.39 864.148 502.204 905.321 C503.233 916.427 495.653 923 484.5 923 C475.662 923 465.967 912.621 464.778 903.864 C461.796 881.9 453.515 866.67 441.712 861.731 C434.088 858.541 438.437 854.016 432.88 860.133 C429.771 863.555 367.2 932 336 932 C336.818 932 337.636 925.306 338.455 917.394 C338.469 917.257 338.756 916.881 338.749 917.019 L338.5 922 C338.179 928.426 335.579 932.326 329.225 931.317 C297.899 926.341 276.136 894.531 271.796 847.679 C270.823 837.174 277.95 830 288.5 830 C297.061 830 305.928 838.066 306.901 846.572 L306.901 846.572 Z M579.786 216.279 L650 48.5 L660.5 24.25 C665.819 11.9667 684.04 0 697.426 0 L717.537 0 C724.437 0 728.562 6.09386 726 12.5 L721 25 C717 36 713 44 711 48 L429.748 721.853 C423.764 736.191 403.036 750 387.5 750 L383.426 750 C370.04 750 351.819 738.033 346.5 725.75 L336 701.5 L63 47 L53 25 L44.6713 4.17815 C43.8148 2.03688 45.1938 0 47.5 0 C49.7794 0 52.8823 2.03781 53.788 4.12952 L73 48.5 L143.214 216.279 C151.252 235.486 179.07 254 199.891 254 L523.109 254 C543.93 254 571.748 235.486 579.786 216.279 L579.786 216.279 Z M196.264 344.987 L304.251 605.236 C326.428 658.681 395.572 658.681 417.749 605.236 L525.736 344.987 C543.714 301.659 515.897 260 468.987 260 L253.013 260 C206.103 260 178.286 301.659 196.264 344.987 L196.264 344.987 Z " />
<glyph glyph-name="Adieresis" unicode="&#xc4;" horiz-adv-x="738" d="M455 830 C471.559 830 485 843.441 485 860 C485 876.559 471.559 890 455 890 C438.441 890 425 876.559 425 860 C425 843.441 438.441 830 455 830 L455 830 Z M317 830 C333.559 830 347 843.441 347 860 C347 876.559 333.559 890 317 890 C300.441 890 287 876.559 287 860 C287 843.441 300.441 830 317 830 L317 830 Z M577.786 216.279 L648 48.5 L658.5 24.25 C663.819 11.9667 682.04 0 695.426 0 L715.537 0 C722.437 0 726.562 6.09386 724 12.5 L719 25 C715 36 711 44 709 48 L427.748 721.853 C421.764 736.191 401.036 750 385.5 750 L381.426 750 C368.04 750 349.819 738.033 344.5 725.75 L334 701.5 L61 47 L51 25 L42.6713 4.17815 C41.8148 2.03688 43.1938 0 45.5 0 C47.7794 0 50.8823 2.03781 51.788 4.12952 L71 48.5 L141.214 216.279 C149.252 235.486 177.07 254 197.891 254 L521.109 254 C541.93 254 569.748 235.486 577.786 216.279 L577.786 216.279 Z M194.264 344.987 L302.251 605.236 C324.428 658.681 393.572 658.681 415.749 605.236 L523.736 344.987 C541.714 301.659 513.897 260 466.987 260 L251.013 260 C204.103 260 176.286 301.659 194.264 344.987 L194.264 344.987 Z " />
<glyph glyph-name="Aring" unicode="&#xc5;" horiz-adv-x="738" d="M330 915 C330 953 351 976 386 976 C421 976 442 953 442 915 C442 874 423 853 386 853 C349 853 330 874 330 915 L330 915 Z M306 915 C306 859 333 830 386 830 C439 830 466 859 466 915 C466 968 436 999 386 999 C336 999 306 968 306 915 L306 915 Z M577.786 216.279 L648 48.5 L658.5 24.25 C663.819 11.9667 682.04 0 695.426 0 L715.537 0 C722.437 0 726.562 6.09386 724 12.5 L719 25 C715 36 711 44 709 48 L427.748 721.853 C421.764 736.191 401.036 750 385.5 750 L381.426 750 C368.04 750 349.819 738.033 344.5 725.75 L334 701.5 L61 47 L51 25 L42.6713 4.17815 C41.8148 2.03688 43.1938 0 45.5 0 C47.7794 0 50.8823 2.03781 51.788 4.12952 L71 48.5 L141.214 216.279 C149.252 235.486 177.07 254 197.891 254 L521.109 254 C541.93 254 569.748 235.486 577.786 216.279 L577.786 216.279 Z M194.264 344.987 L302.251 605.236 C324.428 658.681 393.572 658.681 415.749 605.236 L523.736 344.987 C541.714 301.659 513.897 260 466.987 260 L251.013 260 C204.103 260 176.286 301.659 194.264 344.987 L194.264 344.987 Z " />
<glyph glyph-name="Ccedilla" unicode="&#xc7;" horiz-adv-x="712" d="M389 -91 C415 -91 433 -112 433 -144 C433 -176 415 -198 388 -198 C361 -198 343.255 -190.881 341.372 -178.445 C341.347 -178.276 339.86 -179.55 339.833 -179.718 C335.81 -204.99 353.9 -222 389 -222 C432 -222 461 -191 461 -144 C461 -110 432 -87 389 -87 C371.857 -87 357.653 -90.6735 350.166 -96.7609 C349.628 -97.1983 348.584 -95.9953 348.839 -95.3506 L366.409 -50.9373 C373.72 -32.4585 403.989 -10.4634 423.836 -9.467 C544.49 -3.41 647 68.5 692 172 C692.926 174.129 690.389 173.15 688.5 174.5 C686.654 175.819 682.274 171.082 681.283 169.041 C631.446 66.445 523.05 -2 408 -2 C242 -2 131 171 131 375 C131 579 242 752 408 752 C512 752 623 680 685 573 C686.185 570.955 686.577 574.126 688.5 575.5 C690.475 576.911 688.448 584.034 687.182 586.105 C623.353 690.555 513.3 759 408 759 C206 759 71 582 71 375 C71 197.7 169.82 42.27 325.178 1.293 C348.322 -4.81145 369.753 -34.2949 361.813 -56.875 L346.259 -101.104 C346.189 -101.302 346.715 -102.555 346.856 -102.4 C353.253 -95.3478 369 -91 389 -91 L389 -91 Z M688 578 L688 578 L688 578 Z " />
<glyph glyph-name="Egrave" unicode="&#xc8;" horiz-adv-x="586" d="M313 830 C324.649 830 331.487 840.415 326.855 851.104 L284.121 949.721 C277.476 965.056 254.713 980 238 980 C222.153 980 213.456 965.077 221.269 951.289 L278.661 850.011 C284.106 840.401 301.955 830 313 830 L313 830 Z M532.5 7 L222.44 7 C188.527 7 161 34.527 161 68.44 L161 322.56 C161 356.473 188.527 384 222.44 384 L498 384 C499.656 384 501 385.344 501 387 C501 388.656 499.656 390 498 390 L222.44 390 C188.527 390 161 417.527 161 451.44 L161 681.56 C161 715.473 188.527 743 222.44 743 L517.5 743 C519.432 743 521 744.568 521 746.5 C521 748.432 519.432 750 517.5 750 L166.44 750 C132.527 750 105 722.473 105 688.56 L105 61.44 C105 27.527 132.527 0 166.44 0 L532.5 0 C534.432 0 536 1.5681 536 3.5 C536 5.4319 534.432 7 532.5 7 L532.5 7 Z " />
<glyph glyph-name="Eacute" unicode="&#xc9;" horiz-adv-x="586" d="M313 830 C324.045 830 341.894 840.401 347.339 850.011 L404.731 951.289 C412.544 965.077 403.847 980 388 980 C371.287 980 348.524 965.056 341.879 949.721 L299.145 851.104 C294.513 840.415 301.351 830 313 830 L313 830 Z M532.5 7 L222.44 7 C188.527 7 161 34.527 161 68.44 L161 322.56 C161 356.473 188.527 384 222.44 384 L498 384 C499.656 384 501 385.344 501 387 C501 388.656 499.656 390 498 390 L222.44 390 C188.527 390 161 417.527 161 451.44 L161 681.56 C161 715.473 188.527 743 222.44 743 L517.5 743 C519.432 743 521 744.568 521 746.5 C521 748.432 519.432 750 517.5 750 L166.44 750 C132.527 750 105 722.473 105 688.56 L105 61.44 C105 27.527 132.527 0 166.44 0 L532.5 0 C534.432 0 536 1.5681 536 3.5 C536 5.4319 534.432 7 532.5 7 L532.5 7 Z " />
<glyph glyph-name="Ecircumflex" unicode="&#xca;" horiz-adv-x="586" d="M328.951 936.23 C370.391 914.984 437 830 437 830 C437 830 433.919 830 460 830 C469.128 830 473.359 839.974 467.014 846.537 L355.376 962.025 C348.48 969.159 322.922 980 313 980 C303.078 980 277.52 969.159 270.624 962.025 L158.986 846.537 C152.641 839.974 156.872 830 166 830 C174.467 830 199.828 839.693 206.137 845.34 L299.216 928.661 C311.982 940.088 313.705 944.047 328.951 936.23 L328.951 936.23 Z M532.5 7 L222.44 7 C188.527 7 161 34.527 161 68.44 L161 322.56 C161 356.473 188.527 384 222.44 384 L498 384 C499.656 384 501 385.344 501 387 C501 388.656 499.656 390 498 390 L222.44 390 C188.527 390 161 417.527 161 451.44 L161 681.56 C161 715.473 188.527 743 222.44 743 L517.5 743 C519.432 743 521 744.568 521 746.5 C521 748.432 519.432 750 517.5 750 L166.44 750 C132.527 750 105 722.473 105 688.56 L105 61.44 C105 27.527 132.527 0 166.44 0 L532.5 0 C534.432 0 536 1.5681 536 3.5 C536 5.4319 534.432 7 532.5 7 L532.5 7 Z " />
<glyph glyph-name="Edieresis" unicode="&#xcb;" horiz-adv-x="586" d="M382 830 C398.559 830 412 843.441 412 860 C412 876.559 398.559 890 382 890 C365.441 890 352 876.559 352 860 C352 843.441 365.441 830 382 830 L382 830 Z M244 830 C260.559 830 274 843.441 274 860 C274 876.559 260.559 890 244 890 C227.441 890 214 876.559 214 860 C214 843.441 227.441 830 244 830 L244 830 Z M532.5 7 L222.44 7 C188.527 7 161 34.527 161 68.44 L161 322.56 C161 356.473 188.527 384 222.44 384 L498 384 C499.656 384 501 385.344 501 387 C501 388.656 499.656 390 498 390 L222.44 390 C188.527 390 161 417.527 161 451.44 L161 681.56 C161 715.473 188.527 743 222.44 743 L517.5 743 C519.432 743 521 744.568 521 746.5 C521 748.432 519.432 750 517.5 750 L166.44 750 C132.527 750 105 722.473 105 688.56 L105 61.44 C105 27.527 132.527 0 166.44 0 L532.5 0 C534.432 0 536 1.5681 536 3.5 C536 5.4319 534.432 7 532.5 7 L532.5 7 Z " />
<glyph glyph-name="Igrave" unicode="&#xcc;" horiz-adv-x="227" d="M114 830 C125.649 830 132.487 840.415 127.855 851.104 L85.121 949.721 C78.4757 965.056 55.7133 980 39 980 C23.1525 980 14.4564 965.077 22.2694 951.289 L79.6607 850.011 C85.1061 840.401 102.955 830 114 830 L114 830 Z M142 28 L142 722 C142 737.455 129.455 750 114 750 C98.5448 750 86 737.455 86 722 L86 28 C86 12.5448 98.5448 0 114 0 C129.455 0 142 12.5448 142 28 L142 28 Z " />
<glyph glyph-name="Iacute" unicode="&#xcd;" horiz-adv-x="227" d="M114 830 C125.045 830 142.894 840.401 148.339 850.011 L205.731 951.289 C213.544 965.077 204.847 980 189 980 C172.287 980 149.524 965.056 142.879 949.721 L100.145 851.104 C95.5134 840.415 102.351 830 114 830 L114 830 Z M142 28 L142 722 C142 737.455 129.455 750 114 750 C98.5448 750 86 737.455 86 722 L86 28 C86 12.5448 98.5448 0 114 0 C129.455 0 142 12.5448 142 28 L142 28 Z " />
<glyph glyph-name="Icircumflex" unicode="&#xce;" horiz-adv-x="227" d="M129.951 936.23 C171.391 914.984 238 830 238 830 C238 830 234.919 830 261 830 C270.128 830 274.359 839.974 268.014 846.537 L156.376 962.025 C149.48 969.159 123.922 980 114 980 C104.078 980 78.5201 969.159 71.6244 962.025 L-40.0145 846.537 C-46.3585 839.974 -42.1278 830 -33 830 C-24.5326 830 0.828012 839.693 7.13694 845.34 L100.216 928.661 C112.982 940.088 114.705 944.047 129.951 936.23 L129.951 936.23 Z M142 28 L142 722 C142 737.455 129.455 750 114 750 C98.5448 750 86 737.455 86 722 L86 28 C86 12.5448 98.5448 0 114 0 C129.455 0 142 12.5448 142 28 L142 28 Z " />
<glyph glyph-name="Idieresis" unicode="&#xcf;" horiz-adv-x="227" d="M183 830 C199.559 830 213 843.441 213 860 C213 876.559 199.559 890 183 890 C166.441 890 153 876.559 153 860 C153 843.441 166.441 830 183 830 L183 830 Z M45 830 C61.5591 830 75 843.441 75 860 C75 876.559 61.5591 890 45 890 C28.4409 890 15 876.559 15 860 C15 843.441 28.4409 830 45 830 L45 830 Z M142 28 L142 722 C142 737.455 129.455 750 114 750 C98.5448 750 86 737.455 86 722 L86 28 C86 12.5448 98.5448 0 114 0 C129.455 0 142 12.5448 142 28 L142 28 Z " />
<glyph glyph-name="Ntilde" unicode="&#xd1;" horiz-adv-x="654" d="M263.901 846.572 C267.166 875.101 279.077 893 296 893 C322 893 361 821 393 821 C392 821 390 860 390 860 C390 860 391.487 840.669 391.498 840.532 L391.5 840.5 C392.655 825.483 398.705 819.165 412.731 824.654 C438.121 834.592 455.39 864.148 459.204 905.321 C460.233 916.427 452.653 923 441.5 923 C432.662 923 422.967 912.621 421.778 903.864 C418.796 881.9 410.515 866.67 398.712 861.731 C391.088 858.541 395.437 854.016 389.88 860.133 C386.771 863.555 324.2 932 293 932 C293.818 932 294.636 925.306 295.455 917.394 C295.469 917.257 295.756 916.881 295.749 917.019 L295.5 922 C295.179 928.426 292.579 932.326 286.225 931.317 C254.899 926.341 233.136 894.531 228.796 847.679 C227.823 837.174 234.95 830 245.5 830 C254.061 830 262.928 838.066 263.901 846.572 L263.901 846.572 Z M127 4 L127 480.501 C127 544.564 213.732 565.585 243.062 508.63 L489.891 29.3381 C497.305 14.9413 521.806 0 538 0 C556.215 0 571 14.785 571 33 L571 746 C571 748.208 569.208 750 567 750 C564.792 750 563 748.208 563 746 L563 261.57 C563 197.505 476.258 176.488 446.934 233.447 L195.19 722.438 C188.226 735.964 165.213 750 150 750 C132.889 750 119 736.111 119 719 L119 4 C119 1.79212 120.792 0 123 0 C125.208 0 127 1.79212 127 4 L127 4 Z " />
<glyph glyph-name="Ograve" unicode="&#xd2;" horiz-adv-x="814" d="M418 830 C429.649 830 436.487 840.415 431.855 851.104 L389.121 949.721 C382.476 965.056 359.713 980 343 980 C327.153 980 318.456 965.077 326.269 951.289 L383.661 850.011 C389.106 840.401 406.955 830 418 830 L418 830 Z M136 375 C136 590 257 752 418 752 C578 752 699 590 699 375 C699 149 587 -2 418 -2 C249 -2 136 149 136 375 L136 375 Z M76 375 C76 145 213 -9 418 -9 C623 -9 759 145 759 375 C759 594 612 759 418 759 C223 759 76 594 76 375 L76 375 Z " />
<glyph glyph-name="Oacute" unicode="&#xd3;" horiz-adv-x="814" d="M418 830 C429.045 830 446.894 840.401 452.339 850.011 L509.731 951.289 C517.544 965.077 508.847 980 493 980 C476.287 980 453.524 965.056 446.879 949.721 L404.145 851.104 C399.513 840.415 406.351 830 418 830 L418 830 Z M136 375 C136 590 257 752 418 752 C578 752 699 590 699 375 C699 149 587 -2 418 -2 C249 -2 136 149 136 375 L136 375 Z M76 375 C76 145 213 -9 418 -9 C623 -9 759 145 759 375 C759 594 612 759 418 759 C223 759 76 594 76 375 L76 375 Z " />
<glyph glyph-name="Ocircumflex" unicode="&#xd4;" horiz-adv-x="814" d="M433.951 936.23 C475.391 914.984 542 830 542 830 C542 830 538.919 830 565 830 C574.128 830 578.359 839.974 572.014 846.537 L460.376 962.025 C453.48 969.159 427.922 980 418 980 C408.078 980 382.52 969.159 375.624 962.025 L263.986 846.537 C257.641 839.974 261.872 830 271 830 C279.467 830 304.828 839.693 311.137 845.34 L404.216 928.661 C416.982 940.088 418.705 944.047 433.951 936.23 L433.951 936.23 Z M136 375 C136 590 257 752 418 752 C578 752 699 590 699 375 C699 149 587 -2 418 -2 C249 -2 136 149 136 375 L136 375 Z M76 375 C76 145 213 -9 418 -9 C623 -9 759 145 759 375 C759 594 612 759 418 759 C223 759 76 594 76 375 L76 375 Z " />
<glyph glyph-name="Otilde" unicode="&#xd5;" horiz-adv-x="814" d="M338.901 846.572 C342.166 875.101 354.077 893 371 893 C397 893 436 821 468 821 C467 821 465 860 465 860 C465 860 466.487 840.669 466.498 840.532 L466.5 840.5 C467.655 825.483 473.705 819.165 487.731 824.654 C513.121 834.592 530.39 864.148 534.204 905.321 C535.233 916.427 527.653 923 516.5 923 C507.662 923 497.967 912.621 496.778 903.864 C493.796 881.9 485.515 866.67 473.712 861.731 C466.088 858.541 470.437 854.016 464.88 860.133 C461.771 863.555 399.2 932 368 932 C368.818 932 369.636 925.306 370.455 917.394 C370.469 917.257 370.756 916.881 370.749 917.019 L370.5 922 C370.179 928.426 367.579 932.326 361.225 931.317 C329.899 926.341 308.135 894.531 303.796 847.679 C302.823 837.174 309.95 830 320.5 830 C329.061 830 337.928 838.066 338.901 846.572 L338.901 846.572 Z M138 375 C138 590 259 752 420 752 C580 752 701 590 701 375 C701 149 589 -2 420 -2 C251 -2 138 149 138 375 L138 375 Z M78 375 C78 145 215 -9 420 -9 C625 -9 761 145 761 375 C761 594 614 759 420 759 C225 759 78 594 78 375 L78 375 Z " />
<glyph glyph-name="Odieresis" unicode="&#xd6;" horiz-adv-x="814" d="M487 830 C503.559 830 517 843.441 517 860 C517 876.559 503.559 890 487 890 C470.441 890 457 876.559 457 860 C457 843.441 470.441 830 487 830 L487 830 Z M349 830 C365.559 830 379 843.441 379 860 C379 876.559 365.559 890 349 890 C332.441 890 319 876.559 319 860 C319 843.441 332.441 830 349 830 L349 830 Z M136 375 C136 590 257 752 418 752 C578 752 699 590 699 375 C699 149 587 -2 418 -2 C249 -2 136 149 136 375 L136 375 Z M76 375 C76 145 213 -9 418 -9 C623 -9 759 145 759 375 C759 594 612 759 418 759 C223 759 76 594 76 375 L76 375 Z " />
<glyph glyph-name="Oslash" unicode="&#xd8;" horiz-adv-x="814" d="M76 375 C76 280.95 98.4606 199.832 139.451 136.699 C150.522 119.648 152.237 80.4961 139.054 65.0201 L86.0512 2.79927 C81.8279 -2.15859 84.9872 -9 91.5 -9 C98.0312 -9 112.793 -2.15332 117.012 2.83249 L157.279 50.4208 C170.081 65.5504 200.946 65.6855 216.872 53.8897 C271.459 13.4606 339.625 -9 418 -9 C623 -9 759 145 759 375 C759 464.1 734.498 544.352 692.231 607.894 C680.642 625.317 678.795 664.622 692.331 680.579 L747.974 746.18 C752.194 751.155 749.025 758 742.5 758 C735.99 758 721.167 751.159 716.943 746.205 L673.527 695.284 C660.247 679.709 628.982 679.725 612.716 692.15 C557.694 734.178 490.25 758 416 758 C221 758 75 593.5 75 374.5 L76 375 Z M593.432 602.383 L215.656 157.837 C202.497 142.352 185.003 141.309 176.447 159.741 C149.172 218.492 134 291.55 134 374 C134 589 255 751 416 751 C484.475 751 545.463 721.393 593.349 670.601 C612.487 650.302 611.497 623.641 593.432 602.383 L593.432 602.383 Z M653.967 578.703 C681.346 520.644 697 450.725 697 374 C697 148 585 -3 416 -3 C343.4 -3 281.009 24.9056 233.32 74.5402 C214.04 94.6066 215.108 120.871 233.149 142.059 L610.706 585.469 C624.406 601.558 644.954 597.817 653.967 578.703 L653.967 578.703 Z " />
<glyph glyph-name="Ugrave" unicode="&#xd9;" horiz-adv-x="647" d="M332.5 821 C343.895 821 350.585 831.189 346.054 841.645 L302.922 941.179 C296.378 956.282 273.96 971 257.5 971 C241.893 971 233.328 956.303 241.023 942.724 L298.907 840.575 C304.234 831.175 321.695 821 332.5 821 L332.5 821 Z M559 746 L559 296 C559 100 482 -1 333 -1 C215 -1 154 102 154 302 L154 722 C154 737.455 141.455 750 126 750 C110.545 750 98 737.455 98 722 L98 293 C98 94 178 -9 333 -9 C487 -9 567 94 567 295 L567 746 C567 748.208 565.208 750 563 750 C560.792 750 559 748.208 559 746 L559 746 Z " />
<glyph glyph-name="Uacute" unicode="&#xda;" horiz-adv-x="647" d="M332.5 821 C343.305 821 360.766 831.175 366.093 840.575 L423.977 942.724 C431.672 956.303 423.107 971 407.5 971 C391.04 971 368.622 956.282 362.078 941.179 L318.946 841.645 C314.415 831.189 321.105 821 332.5 821 L332.5 821 Z M559 746 L559 296 C559 100 482 -1 333 -1 C215 -1 154 102 154 302 L154 722 C154 737.455 141.455 750 126 750 C110.545 750 98 737.455 98 722 L98 293 C98 94 178 -9 333 -9 C487 -9 567 94 567 295 L567 746 C567 748.208 565.208 750 563 750 C560.792 750 559 748.208 559 746 L559 746 Z " />
<glyph glyph-name="Ucircumflex" unicode="&#xdb;" horiz-adv-x="647" d="M348.951 927.23 C390.391 905.984 457 821 457 821 C457 821 453.919 821 480 821 C489.128 821 493.359 830.974 487.014 837.537 L375.723 952.666 C368.689 959.942 342.62 971 332.5 971 C322.346 971 296.372 959.929 289.34 952.605 L178.582 837.231 C172.377 830.768 176.541 821 185.5 821 C193.746 821 218.658 830.464 224.824 835.94 L319.167 919.716 C331.98 931.094 333.702 935.049 348.951 927.23 L348.951 927.23 Z M559 746 L559 296 C559 100 482 -1 333 -1 C215 -1 154 102 154 302 L154 722 C154 737.455 141.455 750 126 750 C110.545 750 98 737.455 98 722 L98 293 C98 94 178 -9 333 -9 C487 -9 567 94 567 295 L567 746 C567 748.208 565.208 750 563 750 C560.792 750 559 748.208 559 746 L559 746 Z " />
<glyph glyph-name="Udieresis" unicode="&#xdc;" horiz-adv-x="647" d="M401 821 C417.559 821 431 834.441 431 851 C431 867.559 417.559 881 401 881 C384.441 881 371 867.559 371 851 C371 834.441 384.441 821 401 821 L401 821 Z M264 821 C280.559 821 294 834.441 294 851 C294 867.559 280.559 881 264 881 C247.441 881 234 867.559 234 851 C234 834.441 247.441 821 264 821 L264 821 Z M559 746 L559 296 C559 100 482 -1 333 -1 C215 -1 154 102 154 302 L154 722 C154 737.455 141.455 750 126 750 C110.545 750 98 737.455 98 722 L98 293 C98 94 178 -9 333 -9 C487 -9 567 94 567 295 L567 746 C567 748.208 565.208 750 563 750 C560.792 750 559 748.208 559 746 L559 746 Z " />
<glyph glyph-name="Yacute" unicode="&#xdd;" horiz-adv-x="597" d="M311 830 C322.045 830 339.894 840.401 345.339 850.011 L402.731 951.289 C410.544 965.077 401.847 980 386 980 C369.287 980 346.524 965.056 339.879 949.721 L297.145 851.104 C292.513 840.415 299.351 830 311 830 L311 830 Z M39.8 741.844 C48.2 727.586 56.6 713.44 65 700 L280.119 344.67 C282.657 340.477 289 317.753 289 312.851 L289 28 C289 12.5448 301.545 0 317 0 C332.455 0 345 12.5448 345 28 L345 332.816 C345 337.727 353.098 363.35 355.643 367.55 C423.003 478.697 489.55 589.8 557 700 L584.942 746.57 C585.916 748.193 584.893 750 583 750 C581.112 750 577.905 748.194 576.927 746.579 L341.332 357.848 C340.231 356.032 336.624 354 334.5 354 C332.371 354 328.779 356.032 327.682 357.857 L106.681 725.572 C99.7356 737.129 76.9833 750 63.5 750 L44.8615 750 C40.168 750 37.4176 745.888 39.8 741.844 L39.8 741.844 Z " />
<glyph glyph-name="Thorn" unicode="&#xde;" horiz-adv-x="624" d="M161 28 L161 88.56 C161 122.473 188.527 150 222.44 150 L398 150 C524 150 589 227 589 375 C589 524 524 600 398 600 L222.44 600 C188.527 600 161 627.527 161 661.44 L161 722 C161 737.455 148.455 750 133 750 C117.545 750 105 737.455 105 722 L105 28 C105 12.5448 117.545 0 133 0 C148.455 0 161 12.5448 161 28 L161 28 Z M161 218.44 L161 531.56 C161 565.471 127.546 592.998 161.457 593 C172.936 593.001 396.796 593.024 398.347 593.927 C398.366 593.938 404.573 593.862 404.594 593.861 C489.271 590.256 533 516.375 533 375 C533 230 487 156 398 156 C398 156 321.415 156.723 217.989 156.939 C184.147 157.01 161 184.598 161 218.44 L161 218.44 Z " />
<glyph glyph-name="agrave" unicode="&#xe0;" horiz-adv-x="550" d="M277 600 C288.649 600 295.487 610.415 290.855 621.104 L248.121 719.721 C241.476 735.056 218.713 750 202 750 C186.153 750 177.456 735.077 185.269 721.289 L242.661 620.011 C248.106 610.401 265.955 600 277 600 L277 600 Z M82.5 381.5 C84.3709 380.698 87.5011 384.48 88.1894 386.395 C117.807 468.814 192.175 523 277 523 C366 523 425 483 425 381 C425 269 353 238 246 238 C133 238 57 179 57 91 C57 31 111 -9 249 -9 C330.375 -9 391.078 13.9688 416.371 86.7031 C417.457 89.8259 425 87.8062 425 84.5 L425 48 C425 5.45 428.423 0.5475 500.958 0.0514687 C511.239 -0.0188376 520 8.21873 520 18.5 C520 28.5851 510.461 36.9413 500.377 37.0661 C476.339 37.3636 475 39 475 48 L475 360 C475 482 396 529 277 529 C189.25 529 111.006 473.864 81.1968 389.543 C80.4751 387.502 80.5098 382.353 82.5 381.5 L82.5 381.5 Z M425 295.208 L425 174 C425 35 355 -4 251 -4 C147 -4 106 35 106 93 C106 177 164 233 250 233 C325.9 233 384.444 248.995 411.594 299.514 C413.579 303.208 425 299.401 425 295.208 L425 295.208 Z " />
<glyph glyph-name="aacute" unicode="&#xe1;" horiz-adv-x="550" d="M277 600 C288.045 600 305.894 610.401 311.339 620.011 L368.731 721.289 C376.544 735.077 367.847 750 352 750 C335.287 750 312.524 735.056 305.879 719.721 L263.145 621.104 C258.513 610.415 265.351 600 277 600 L277 600 Z M82.5 381.5 C84.3709 380.698 87.5011 384.48 88.1894 386.395 C117.807 468.814 192.175 523 277 523 C366 523 425 483 425 381 C425 269 353 238 246 238 C133 238 57 179 57 91 C57 31 111 -9 249 -9 C330.375 -9 391.078 13.9688 416.371 86.7031 C417.457 89.8259 425 87.8062 425 84.5 L425 48 C425 5.45 428.423 0.5475 500.958 0.0514687 C511.239 -0.0188376 520 8.21873 520 18.5 C520 28.5851 510.461 36.9413 500.377 37.0661 C476.339 37.3636 475 39 475 48 L475 360 C475 482 396 529 277 529 C189.25 529 111.006 473.864 81.1968 389.543 C80.4751 387.502 80.5098 382.353 82.5 381.5 L82.5 381.5 Z M425 295.208 L425 174 C425 35 355 -4 251 -4 C147 -4 106 35 106 93 C106 177 164 233 250 233 C325.9 233 384.444 248.995 411.594 299.514 C413.579 303.208 425 299.401 425 295.208 L425 295.208 Z " />
<glyph glyph-name="acircumflex" unicode="&#xe2;" horiz-adv-x="550" d="M292.951 706.23 C334.391 684.984 401 600 401 600 C401 600 397.919 600 424 600 C433.128 600 437.359 609.974 431.014 616.537 L319.376 732.025 C312.48 739.159 286.922 750 277 750 C267.078 750 241.52 739.159 234.624 732.025 L122.986 616.537 C116.641 609.974 120.872 600 130 600 C138.467 600 163.828 609.693 170.137 615.34 L263.216 698.661 C275.982 710.088 277.705 714.047 292.951 706.23 L292.951 706.23 Z M82.5 381.5 C84.3709 380.698 87.5011 384.48 88.1894 386.395 C117.807 468.814 192.175 523 277 523 C366 523 425 483 425 381 C425 269 353 238 246 238 C133 238 57 179 57 91 C57 31 111 -9 249 -9 C330.375 -9 391.078 13.9688 416.371 86.7031 C417.457 89.8259 425 87.8062 425 84.5 L425 48 C425 5.45 428.423 0.5475 500.958 0.0514687 C511.239 -0.0188376 520 8.21873 520 18.5 C520 28.5851 510.461 36.9413 500.377 37.0661 C476.339 37.3636 475 39 475 48 L475 360 C475 482 396 529 277 529 C189.25 529 111.006 473.864 81.1968 389.543 C80.4751 387.502 80.5098 382.353 82.5 381.5 L82.5 381.5 Z M425 295.208 L425 174 C425 35 355 -4 251 -4 C147 -4 106 35 106 93 C106 177 164 233 250 233 C325.9 233 384.444 248.995 411.594 299.514 C413.579 303.208 425 299.401 425 295.208 L425 295.208 Z " />
<glyph glyph-name="atilde" unicode="&#xe3;" horiz-adv-x="550" d="M197.901 616.572 C201.166 645.101 213.077 663 230 663 C256 663 295 591 327 591 C326 591 324 630 324 630 C324 630 325.487 610.669 325.498 610.532 L325.5 610.5 C326.655 595.483 332.705 589.165 346.731 594.654 C372.121 604.592 389.39 634.148 393.204 675.321 C394.233 686.427 386.653 693 375.5 693 C366.662 693 356.967 682.621 355.778 673.864 C352.796 651.9 344.515 636.67 332.712 631.731 C325.088 628.541 329.437 624.016 323.88 630.133 C320.771 633.555 258.2 702 227 702 C227.818 702 228.636 695.306 229.455 687.394 C229.469 687.257 229.756 686.881 229.749 687.019 L229.5 692 C229.179 698.426 226.579 702.326 220.225 701.317 C188.899 696.341 167.136 664.531 162.796 617.679 C161.823 607.174 168.95 600 179.5 600 C188.061 600 196.928 608.066 197.901 616.572 L197.901 616.572 Z M84.5 381.5 C86.3709 380.698 89.5011 384.48 90.1894 386.395 C119.807 468.814 194.175 523 279 523 C368 523 427 483 427 381 C427 269 355 238 248 238 C135 238 59 179 59 91 C59 31 113 -9 251 -9 C332.375 -9 393.078 13.9688 418.371 86.7031 C419.457 89.8259 427 87.8062 427 84.5 L427 48 C427 5.45 430.423 0.5475 502.958 0.0514687 C513.239 -0.0188376 522 8.21873 522 18.5 C522 28.5851 512.461 36.9413 502.377 37.0661 C478.339 37.3636 477 39 477 48 L477 360 C477 482 398 529 279 529 C191.25 529 113.006 473.864 83.1968 389.543 C82.4751 387.502 82.5098 382.353 84.5 381.5 L84.5 381.5 Z M427 295.208 L427 174 C427 35 357 -4 253 -4 C149 -4 108 35 108 93 C108 177 166 233 252 233 C327.9 233 386.444 248.995 413.594 299.514 C415.579 303.208 427 299.401 427 295.208 L427 295.208 Z " />
<glyph glyph-name="adieresis" unicode="&#xe4;" horiz-adv-x="550" d="M355 600 C371.559 600 385 613.441 385 630 C385 646.559 371.559 660 355 660 C338.441 660 325 646.559 325 630 C325 613.441 338.441 600 355 600 L355 600 Z M200 600 C216.559 600 230 613.441 230 630 C230 646.559 216.559 660 200 660 C183.441 660 170 646.559 170 630 C170 613.441 183.441 600 200 600 L200 600 Z M82.5 381.5 C84.3709 380.698 87.5011 384.48 88.1894 386.395 C117.807 468.814 192.175 523 277 523 C366 523 425 483 425 381 C425 269 353 238 246 238 C133 238 57 179 57 91 C57 31 111 -9 249 -9 C330.375 -9 391.078 13.9688 416.371 86.7031 C417.457 89.8259 425 87.8062 425 84.5 L425 48 C425 5.45 428.423 0.5475 500.958 0.0514687 C511.239 -0.0188376 520 8.21873 520 18.5 C520 28.5851 510.461 36.9413 500.377 37.0661 C476.339 37.3636 475 39 475 48 L475 360 C475 482 396 529 277 529 C189.25 529 111.006 473.864 81.1968 389.543 C80.4751 387.502 80.5098 382.353 82.5 381.5 L82.5 381.5 Z M425 295.208 L425 174 C425 35 355 -4 251 -4 C147 -4 106 35 106 93 C106 177 164 233 250 233 C325.9 233 384.444 248.995 411.594 299.514 C413.579 303.208 425 299.401 425 295.208 L425 295.208 Z " />
<glyph glyph-name="aring" unicode="&#xe5;" horiz-adv-x="550" d="M221 685 C221 723 242 746 277 746 C312 746 333 723 333 685 C333 644 314 623 277 623 C240 623 221 644 221 685 L221 685 Z M197 685 C197 629 224 600 277 600 C330 600 357 629 357 685 C357 738 327 769 277 769 C227 769 197 738 197 685 L197 685 Z M82.5 381.5 C84.3709 380.698 87.5011 384.48 88.1894 386.395 C117.807 468.814 192.175 523 277 523 C366 523 425 483 425 381 C425 269 353 238 246 238 C133 238 57 179 57 91 C57 31 111 -9 249 -9 C330.375 -9 391.078 13.9688 416.371 86.7031 C417.457 89.8259 425 87.8062 425 84.5 L425 48 C425 5.45 428.423 0.5475 500.958 0.0514687 C511.239 -0.0188376 520 8.21873 520 18.5 C520 28.5851 510.461 36.9413 500.377 37.0661 C476.339 37.3636 475 39 475 48 L475 360 C475 482 396 529 277 529 C189.25 529 111.006 473.864 81.1968 389.543 C80.4751 387.502 80.5098 382.353 82.5 381.5 L82.5 381.5 Z M425 295.208 L425 174 C425 35 355 -4 251 -4 C147 -4 106 35 106 93 C106 177 164 233 250 233 C325.9 233 384.444 248.995 411.594 299.514 C413.579 303.208 425 299.401 425 295.208 L425 295.208 Z " />
<glyph glyph-name="ccedilla" unicode="&#xe7;" horiz-adv-x="547" d="M257 -104 C261 -95 278 -90 299 -90 C325 -90 343 -111 343 -143 C343 -175 325 -197 298 -197 C271 -197 253.255 -189.881 251.372 -177.445 C251.347 -177.276 249.86 -178.55 249.833 -178.718 C245.81 -203.99 263.9 -221 299 -221 C342 -221 371 -190 371 -143 C371 -109 343 -86 300 -86 C283.85 -86 269.868 -89.6125 262.351 -94.9951 C261.697 -95.4639 260.366 -94.4489 260.655 -93.6975 L277.907 -48.8418 C284.387 -31.9932 321.872 -7.8091 339.795 -5.65675 C420.895 4.08238 485.217 53.0936 515.355 129.023 C516.154 131.037 516.492 136.646 514.5 137.5 C512.625 138.304 509.352 134.645 508.589 132.753 C476.144 52.235 400.85 -1 317 -1 C201 -1 123 81 123 262 C123 443 201 525 317 525 C402 525 465 462 511 368 C511.923 366.114 512.571 368.673 514.5 369.5 C516.455 370.338 515.483 376.033 514.512 377.926 C468.685 467.308 403.75 531 316 531 C167 531 67 448 67 262 C67 108.875 134.375 25.4219 240.988 0.921875 C264.306 -4.43662 278.806 -31.7538 270 -54 L252.041 -99.3701 C251.461 -100.835 250.241 -101.352 251.424 -102.392 C252.48 -103.32 255.2 -105.4 256 -103 L257 -104 Z M512 371 L511 371 L511 374 L512 371 L512 371 Z " />
<glyph glyph-name="egrave" unicode="&#xe8;" horiz-adv-x="553" d="M299 600 C310.649 600 317.487 610.415 312.855 621.104 L270.121 719.721 C263.476 735.056 240.713 750 224 750 C208.153 750 199.456 735.077 207.269 721.289 L264.661 620.011 C270.106 610.401 287.955 600 299 600 L299 600 Z M514.154 130.753 C488.586 50.235 402.25 -3 295 -3 C205.75 -3 142.531 57.4844 126.111 189.172 C121.396 226.988 146.399 250 184.508 250 L468.56 250 C506.193 250 531.01 272.53 526.883 309.936 C512.172 443.25 444.25 529 299 529 C160 529 67 446 67 260 C67 74 158 -9 295 -9 C406.15 -9 495.436 45.1856 521.148 127.605 C521.797 129.685 521.503 134.642 519.5 135.5 C517.654 136.291 514.762 132.668 514.154 130.753 L514.154 130.753 Z M418.177 255 L183.105 255 C145.698 255 121.076 281.849 124.93 319.057 C139.313 457.922 205.375 523 299 523 C411.875 523 465.031 441.078 477.227 312.74 C480.738 275.786 455.298 255 418.177 255 L418.177 255 Z " />
<glyph glyph-name="eacute" unicode="&#xe9;" horiz-adv-x="553" d="M299 600 C310.045 600 327.894 610.401 333.339 620.011 L390.731 721.289 C398.544 735.077 389.847 750 374 750 C357.287 750 334.524 735.056 327.879 719.721 L285.145 621.104 C280.513 610.415 287.351 600 299 600 L299 600 Z M514.154 130.753 C488.586 50.235 402.25 -3 295 -3 C205.75 -3 142.531 57.4844 126.111 189.172 C121.396 226.988 146.399 250 184.508 250 L468.56 250 C506.193 250 531.01 272.53 526.883 309.936 C512.172 443.25 444.25 529 299 529 C160 529 67 446 67 260 C67 74 158 -9 295 -9 C406.15 -9 495.436 45.1856 521.148 127.605 C521.797 129.685 521.503 134.642 519.5 135.5 C517.654 136.291 514.762 132.668 514.154 130.753 L514.154 130.753 Z M418.177 255 L183.105 255 C145.698 255 121.076 281.849 124.93 319.057 C139.313 457.922 205.375 523 299 523 C411.875 523 465.031 441.078 477.227 312.74 C480.738 275.786 455.298 255 418.177 255 L418.177 255 Z " />
<glyph glyph-name="ecircumflex" unicode="&#xea;" horiz-adv-x="553" d="M314.951 706.23 C356.391 684.984 423 600 423 600 C423 600 419.919 600 446 600 C455.128 600 459.359 609.974 453.014 616.537 L341.376 732.025 C334.48 739.159 308.922 750 299 750 C289.078 750 263.52 739.159 256.624 732.025 L144.986 616.537 C138.641 609.974 142.872 600 152 600 C160.467 600 185.828 609.693 192.137 615.34 L285.216 698.661 C297.982 710.088 299.705 714.047 314.951 706.23 L314.951 706.23 Z M514.154 130.753 C488.586 50.235 402.25 -3 295 -3 C205.75 -3 142.531 57.4844 126.111 189.172 C121.396 226.988 146.399 250 184.508 250 L468.56 250 C506.193 250 531.01 272.53 526.883 309.936 C512.172 443.25 444.25 529 299 529 C160 529 67 446 67 260 C67 74 158 -9 295 -9 C406.15 -9 495.436 45.1856 521.148 127.605 C521.797 129.685 521.503 134.642 519.5 135.5 C517.654 136.291 514.762 132.668 514.154 130.753 L514.154 130.753 Z M418.177 255 L183.105 255 C145.698 255 121.076 281.849 124.93 319.057 C139.313 457.922 205.375 523 299 523 C411.875 523 465.031 441.078 477.227 312.74 C480.738 275.786 455.298 255 418.177 255 L418.177 255 Z " />
<glyph glyph-name="edieresis" unicode="&#xeb;" horiz-adv-x="553" d="M368 600 C384.559 600 398 613.441 398 630 C398 646.559 384.559 660 368 660 C351.441 660 338 646.559 338 630 C338 613.441 351.441 600 368 600 L368 600 Z M230 600 C246.559 600 260 613.441 260 630 C260 646.559 246.559 660 230 660 C213.441 660 200 646.559 200 630 C200 613.441 213.441 600 230 600 L230 600 Z M514.154 130.753 C488.586 50.235 402.25 -3 295 -3 C205.75 -3 142.531 57.4844 126.111 189.172 C121.396 226.988 146.399 250 184.508 250 L468.56 250 C506.193 250 531.01 272.53 526.883 309.936 C512.172 443.25 444.25 529 299 529 C160 529 67 446 67 260 C67 74 158 -9 295 -9 C406.15 -9 495.436 45.1856 521.148 127.605 C521.797 129.685 521.503 134.642 519.5 135.5 C517.654 136.291 514.762 132.668 514.154 130.753 L514.154 130.753 Z M418.177 255 L183.105 255 C145.698 255 121.076 281.849 124.93 319.057 C139.313 457.922 205.375 523 299 523 C411.875 523 465.031 441.078 477.227 312.74 C480.738 275.786 455.298 255 418.177 255 L418.177 255 Z " />
<glyph glyph-name="igrave" unicode="&#xec;" horiz-adv-x="262" d="M167 600 C178.649 600 185.487 610.415 180.855 621.104 L138.121 719.721 C131.476 735.056 108.713 750 92 750 C76.1525 750 67.4564 735.077 75.2694 721.289 L132.661 620.011 C138.106 610.401 155.955 600 167 600 L167 600 Z M167 0 C180.799 0 192 11.2007 192 25 L192 495 C192 508.799 180.799 520 167 520 C153.201 520 142 508.799 142 495 L142 25 C142 11.2007 153.201 0 167 0 L167 0 Z " />
<glyph glyph-name="iacute" unicode="&#xed;" horiz-adv-x="262" d="M167 600 C178.045 600 195.894 610.401 201.339 620.011 L258.731 721.289 C266.544 735.077 257.847 750 242 750 C225.287 750 202.524 735.056 195.879 719.721 L153.145 621.104 C148.513 610.415 155.351 600 167 600 L167 600 Z M167 0 C180.799 0 192 11.2007 192 25 L192 495 C192 508.799 180.799 520 167 520 C153.201 520 142 508.799 142 495 L142 25 C142 11.2007 153.201 0 167 0 L167 0 Z " />
<glyph glyph-name="icircumflex" unicode="&#xee;" horiz-adv-x="262" d="M182.951 706.23 C224.391 684.984 291 600 291 600 C291 600 287.919 600 314 600 C323.128 600 327.359 609.974 321.014 616.537 L209.376 732.025 C202.48 739.159 176.922 750 167 750 C157.078 750 131.52 739.159 124.624 732.025 L12.9855 616.537 C6.6415 609.974 10.8722 600 20 600 C28.4674 600 53.828 609.693 60.1369 615.34 L153.216 698.661 C165.982 710.088 167.705 714.047 182.951 706.23 L182.951 706.23 Z M167 0 C180.799 0 192 11.2007 192 25 L192 495 C192 508.799 180.799 520 167 520 C153.201 520 142 508.799 142 495 L142 25 C142 11.2007 153.201 0 167 0 L167 0 Z " />
<glyph glyph-name="idieresis" unicode="&#xef;" horiz-adv-x="262" d="M245 600 C261.559 600 275 613.441 275 630 C275 646.559 261.559 660 245 660 C228.441 660 215 646.559 215 630 C215 613.441 228.441 600 245 600 L245 600 Z M90 600 C106.559 600 120 613.441 120 630 C120 646.559 106.559 660 90 660 C73.4409 660 60 646.559 60 630 C60 613.441 73.4409 600 90 600 L90 600 Z M167 0 C180.799 0 192 11.2007 192 25 L192 495 C192 508.799 180.799 520 167 520 C153.201 520 142 508.799 142 495 L142 25 C142 11.2007 153.201 0 167 0 L167 0 Z " />
<glyph glyph-name="ntilde" unicode="&#xf1;" horiz-adv-x="534" d="M198.901 616.572 C202.166 645.101 214.077 663 231 663 C257 663 296 591 328 591 C327 591 325 630 325 630 C325 630 326.487 610.669 326.498 610.532 L326.5 610.5 C327.655 595.483 333.705 589.165 347.731 594.654 C373.121 604.592 390.39 634.148 394.204 675.321 C395.233 686.427 387.653 693 376.5 693 C367.662 693 357.967 682.621 356.778 673.864 C353.796 651.9 345.515 636.67 333.712 631.731 C326.088 628.541 330.437 624.016 324.88 630.133 C321.771 633.555 259.2 702 228 702 C228.818 702 229.636 695.306 230.455 687.394 C230.469 687.257 230.756 686.881 230.749 687.019 L230.5 692 C230.179 698.426 227.579 702.326 221.225 701.317 C189.899 696.341 168.136 664.531 163.796 617.679 C162.823 607.174 169.95 600 180.5 600 C189.061 600 197.928 608.066 198.901 616.572 L198.901 616.572 Z M471 24.5051 L471 315 C471 454 411 525 321 525 C239.325 525 177.388 485.524 151.473 421.732 C150.267 418.763 140 419.698 140 422.903 L140 496 C140 509.799 128.799 521 115 521 C101.201 521 90 509.799 90 496 L90 26 C90 12.2007 101.201 1 115 1 C128.799 1 140 12.2007 140 26 L140 349 C140 451 212 519 319 519 C381 519 422 450 422 316 L422 25.5051 C422 11.9818 432.98 0.775928 446.5 0.5 C460.02 0.224072 471 10.9818 471 24.5051 L471 24.5051 Z " />
<glyph glyph-name="ograve" unicode="&#xf2;" horiz-adv-x="590" d="M304 600 C315.649 600 322.487 610.415 317.855 621.104 L275.121 719.721 C268.476 735.056 245.713 750 229 750 C213.153 750 204.456 735.077 212.269 721.289 L269.661 620.011 C275.106 610.401 292.955 600 304 600 L304 600 Z M122 260 C122 441 195 523 304 523 C429 523 485 418 485 260 C485 79 413 -3 304 -3 C178 -3 122 102 122 260 L122 260 Z M67 260 C67 99 140 -9 304 -9 C446 -9 540 74 540 260 C540 421 467 529 304 529 C162 529 67 446 67 260 L67 260 Z " />
<glyph glyph-name="oacute" unicode="&#xf3;" horiz-adv-x="590" d="M304 600 C315.045 600 332.894 610.401 338.339 620.011 L395.731 721.289 C403.544 735.077 394.847 750 379 750 C362.287 750 339.524 735.056 332.879 719.721 L290.145 621.104 C285.513 610.415 292.351 600 304 600 L304 600 Z M122 260 C122 441 195 523 304 523 C429 523 485 418 485 260 C485 79 413 -3 304 -3 C178 -3 122 102 122 260 L122 260 Z M67 260 C67 99 140 -9 304 -9 C446 -9 540 74 540 260 C540 421 467 529 304 529 C162 529 67 446 67 260 L67 260 Z " />
<glyph glyph-name="ocircumflex" unicode="&#xf4;" horiz-adv-x="590" d="M319.951 706.23 C361.391 684.984 428 600 428 600 C428 600 424.919 600 451 600 C460.128 600 464.359 609.974 458.014 616.537 L346.376 732.025 C339.48 739.159 313.922 750 304 750 C294.078 750 268.52 739.159 261.624 732.025 L149.986 616.537 C143.641 609.974 147.872 600 157 600 C165.467 600 190.828 609.693 197.137 615.34 L290.216 698.661 C302.982 710.088 304.705 714.047 319.951 706.23 L319.951 706.23 Z M122 260 C122 441 195 523 304 523 C429 523 485 418 485 260 C485 79 413 -3 304 -3 C178 -3 122 102 122 260 L122 260 Z M67 260 C67 99 140 -9 304 -9 C446 -9 540 74 540 260 C540 421 467 529 304 529 C162 529 67 446 67 260 L67 260 Z " />
<glyph glyph-name="otilde" unicode="&#xf5;" horiz-adv-x="590" d="M224.901 616.572 C228.166 645.101 240.077 663 257 663 C283 663 322 591 354 591 C353 591 351 630 351 630 C351 630 352.487 610.669 352.498 610.532 L352.5 610.5 C353.655 595.483 359.705 589.165 373.731 594.654 C399.121 604.592 416.391 634.148 420.204 675.321 C421.233 686.427 413.653 693 402.5 693 C393.662 693 383.967 682.621 382.778 673.864 C379.796 651.9 371.515 636.67 359.712 631.731 C352.088 628.541 356.437 624.016 350.88 630.133 C347.771 633.555 285.2 702 254 702 C254.818 702 255.636 695.306 256.455 687.394 C256.469 687.257 256.756 686.881 256.749 687.019 L256.5 692 C256.179 698.426 253.579 702.326 247.225 701.317 C215.899 696.341 194.136 664.531 189.796 617.679 C188.823 607.174 195.95 600 206.5 600 C215.061 600 223.928 608.066 224.901 616.572 L224.901 616.572 Z M124 260 C124 441 197 523 306 523 C431 523 487 418 487 260 C487 79 415 -3 306 -3 C180 -3 124 102 124 260 L124 260 Z M69 260 C69 99 142 -9 306 -9 C448 -9 542 74 542 260 C542 421 469 529 306 529 C164 529 69 446 69 260 L69 260 Z " />
<glyph glyph-name="odieresis" unicode="&#xf6;" horiz-adv-x="590" d="M373 600 C389.559 600 403 613.441 403 630 C403 646.559 389.559 660 373 660 C356.441 660 343 646.559 343 630 C343 613.441 356.441 600 373 600 L373 600 Z M235 600 C251.559 600 265 613.441 265 630 C265 646.559 251.559 660 235 660 C218.441 660 205 646.559 205 630 C205 613.441 218.441 600 235 600 L235 600 Z M122 260 C122 441 195 523 304 523 C429 523 485 418 485 260 C485 79 413 -3 304 -3 C178 -3 122 102 122 260 L122 260 Z M67 260 C67 99 140 -9 304 -9 C446 -9 540 74 540 260 C540 421 467 529 304 529 C162 529 67 446 67 260 L67 260 Z " />
<glyph glyph-name="oslash" unicode="&#xf8;" horiz-adv-x="590" d="M67 260 C67 192.35 79.9319 134.229 107.48 89.5669 C114.729 77.8144 115.784 49.7279 106.871 39.1811 L74.1001 0.401736 C71.1067 -3.14036 73.3625 -8 78 -8 C82.6709 -8 93.0437 -3.13107 96.0279 0.462179 L120.833 30.3292 C128.909 40.0541 149.287 40.0598 159.517 32.6333 C195.801 6.29312 243.775 -8 304 -8 C446 -8 540 75 540 261 C540 328.65 527.068 386.771 500.081 431.433 C493.017 443.124 492.101 471.137 500.918 481.57 L533.9 520.598 C536.893 524.14 534.638 529 530 529 C525.329 529 514.956 524.131 511.972 520.538 L486.943 490.401 C478.923 480.744 458.777 480.623 448.569 487.928 C412.549 513.707 365.4 528 306 528 C164 528 68 445.5 68 259.5 L67 260 Z M429.17 419.507 L170.648 110.692 C162.346 100.775 150.785 100.537 146.289 112.664 C131.225 153.302 124 202.9 124 259 C124 440 197 522 306 522 C360.45 522 401.968 502.262 431.116 466.716 C443.151 452.039 441.354 434.061 429.17 419.507 L429.17 419.507 Z M464.711 405.336 C479.775 364.697 487 315.1 487 259 C487 78 415 -4 306 -4 C251.55 -4 210.032 15.7381 180.323 51.2838 C168.1 65.9075 169.756 84.0709 181.991 98.685 L440.352 407.308 C448.654 417.225 460.215 417.463 464.711 405.336 L464.711 405.336 Z " />
<glyph glyph-name="ugrave" unicode="&#xf9;" horiz-adv-x="519" d="M265.5 600 C276.895 600 283.585 610.189 279.054 620.645 L235.922 720.179 C229.378 735.282 206.96 750 190.5 750 C174.893 750 166.328 735.303 174.023 721.724 L231.907 619.575 C237.234 610.175 254.695 600 265.5 600 L265.5 600 Z M449 25.005 L449 495 C449 508.799 437.799 520 424 520 C410.201 520 399 508.799 399 495 L399 149 C399 58 342 -2 256 -2 C159 -2 132 57 132 172 L132 495 C132 508.799 120.799 520 107 520 C93.2007 520 82 508.799 82 495 L82 172 C82 53 120 -9 253 -9 C318.175 -9 367.696 25.0312 389.209 80.7404 C390.271 83.4908 399 82.5625 399 79.6141 L399 24.005 C399 10.2057 410.204 -0.77593 424 -0.5 C437.796 -0.22407 449 11.2057 449 25.005 L449 25.005 Z " />
<glyph glyph-name="uacute" unicode="&#xfa;" horiz-adv-x="519" d="M265.5 600 C276.305 600 293.766 610.175 299.093 619.575 L356.977 721.724 C364.672 735.303 356.107 750 340.5 750 C324.04 750 301.622 735.282 295.078 720.179 L251.946 620.645 C247.415 610.189 254.105 600 265.5 600 L265.5 600 Z M449 25.005 L449 495 C449 508.799 437.799 520 424 520 C410.201 520 399 508.799 399 495 L399 149 C399 58 342 -2 256 -2 C159 -2 132 57 132 172 L132 495 C132 508.799 120.799 520 107 520 C93.2007 520 82 508.799 82 495 L82 172 C82 53 120 -9 253 -9 C318.175 -9 367.696 25.0312 389.209 80.7404 C390.271 83.4908 399 82.5625 399 79.6141 L399 24.005 C399 10.2057 410.204 -0.77593 424 -0.5 C437.796 -0.22407 449 11.2057 449 25.005 L449 25.005 Z " />
<glyph glyph-name="ucircumflex" unicode="&#xfb;" horiz-adv-x="519" d="M281.951 706.23 C323.391 684.984 390 600 390 600 C390 600 386.919 600 413 600 C422.128 600 426.359 609.974 420.014 616.537 L308.723 731.666 C301.689 738.942 275.62 750 265.5 750 C255.346 750 229.372 738.929 222.34 731.605 L111.582 616.231 C105.377 609.768 109.541 600 118.5 600 C126.746 600 151.658 609.464 157.824 614.94 L252.167 698.716 C264.98 710.094 266.702 714.049 281.951 706.23 L281.951 706.23 Z M449 25.005 L449 495 C449 508.799 437.799 520 424 520 C410.201 520 399 508.799 399 495 L399 149 C399 58 342 -2 256 -2 C159 -2 132 57 132 172 L132 495 C132 508.799 120.799 520 107 520 C93.2007 520 82 508.799 82 495 L82 172 C82 53 120 -9 253 -9 C318.175 -9 367.696 25.0312 389.209 80.7404 C390.271 83.4908 399 82.5625 399 79.6141 L399 24.005 C399 10.2057 410.204 -0.77593 424 -0.5 C437.796 -0.22407 449 11.2057 449 25.005 L449 25.005 Z " />
<glyph glyph-name="udieresis" unicode="&#xfc;" horiz-adv-x="519" d="M334 600 C350.559 600 364 613.441 364 630 C364 646.559 350.559 660 334 660 C317.441 660 304 646.559 304 630 C304 613.441 317.441 600 334 600 L334 600 Z M197 600 C213.559 600 227 613.441 227 630 C227 646.559 213.559 660 197 660 C180.441 660 167 646.559 167 630 C167 613.441 180.441 600 197 600 L197 600 Z M449 25.005 L449 495 C449 508.799 437.799 520 424 520 C410.201 520 399 508.799 399 495 L399 149 C399 58 342 -2 256 -2 C159 -2 132 57 132 172 L132 495 C132 508.799 120.799 520 107 520 C93.2007 520 82 508.799 82 495 L82 172 C82 53 120 -9 253 -9 C318.175 -9 367.696 25.0312 389.209 80.7404 C390.271 83.4908 399 82.5625 399 79.6141 L399 24.005 C399 10.2057 410.204 -0.77593 424 -0.5 C437.796 -0.22407 449 11.2057 449 25.005 L449 25.005 Z " />
<glyph glyph-name="yacute" unicode="&#xfd;" horiz-adv-x="477" d="M247.5 600 C258.305 600 275.766 610.175 281.093 619.575 L338.977 721.724 C346.672 735.303 338.107 750 322.5 750 C306.04 750 283.622 735.282 277.078 720.179 L233.946 620.645 C229.415 610.189 236.105 600 247.5 600 L247.5 600 Z M253.5 -26 L282 46.5 L465.544 516.274 C466.293 518.19 465.056 520 463 520 C460.95 520 458.276 518.189 457.514 516.286 L439 470 L332.298 197.316 C311.063 143.049 240.907 142.228 218.407 195.982 L103.5 470.5 L93.25 494.75 C88.0387 507.079 70.058 519 56.6727 519 L40.4629 519 C33.5633 519 29.4375 512.906 32 506.5 L37 494 L45 475 L238.551 5.90222 C242.259 -3.08597 244.006 -27.1351 240.352 -36.1455 C192.843 -153.29 162.3 -193 111 -193 L64.5 -193 C62.5681 -193 61 -194.568 61 -196.5 C61 -198.432 62.5681 -200 64.5 -200 L111 -200 C167 -200 199 -161 252 -25 L253.5 -26 Z " />
<glyph glyph-name="thorn" unicode="&#xfe;" horiz-adv-x="599" d="M112 750 L99.5 750 C92.6004 750 87 744.4 87 737.5 L87 -225 C87 -238.799 98.2007 -250 112 -250 C125.799 -250 137 -238.799 137 -225 L137 129.06 C137 133.388 149.645 137.195 150.935 133.063 C181.28 35.9212 250.25 -9 341 -9 C466 -9 549 99 549 260 C549 421 466 529 341 529 C250.25 529 181.28 484.079 150.935 386.937 C149.645 382.805 137 386.612 137 390.94 L137 737.5 C137 744.4 131.4 750 124.5 750 L112 750 L112 750 Z M137 260 C137 441 218 523 339 523 C432 523 494 418 494 260 C494 106 431 4 336 4 C217 4 137 83 137 260 L137 260 Z " />
<glyph glyph-name="ydieresis" unicode="&#xff;" horiz-adv-x="477" d="M316 600 C332.559 600 346 613.441 346 630 C346 646.559 332.559 660 316 660 C299.441 660 286 646.559 286 630 C286 613.441 299.441 600 316 600 L316 600 Z M179 600 C195.559 600 209 613.441 209 630 C209 646.559 195.559 660 179 660 C162.441 660 149 646.559 149 630 C149 613.441 162.441 600 179 600 L179 600 Z M253.5 -26 L282 46.5 L465.544 516.274 C466.293 518.19 465.056 520 463 520 C460.95 520 458.276 518.189 457.514 516.286 L439 470 L332.298 197.316 C311.063 143.049 240.907 142.228 218.407 195.982 L103.5 470.5 L93.25 494.75 C88.0387 507.079 70.058 519 56.6727 519 L40.4629 519 C33.5633 519 29.4375 512.906 32 506.5 L37 494 L45 475 L238.551 5.90222 C242.259 -3.08597 244.006 -27.1351 240.352 -36.1455 C192.843 -153.29 162.3 -193 111 -193 L64.5 -193 C62.5681 -193 61 -194.568 61 -196.5 C61 -198.432 62.5681 -200 64.5 -200 L111 -200 C167 -200 199 -161 252 -25 L253.5 -26 Z " />
<glyph glyph-name="Amacron" unicode="&#x100;" horiz-adv-x="738" d="M263.5 830 L508.5 830 C518.159 830 526 837.841 526 847.5 C526 857.159 518.159 865 508.5 865 L263.5 865 C253.841 865 246 857.159 246 847.5 C246 837.841 253.841 830 263.5 830 L263.5 830 Z M577.786 216.279 L648 48.5 L658.5 24.25 C663.819 11.9667 682.04 0 695.426 0 L715.537 0 C722.437 0 726.562 6.09386 724 12.5 L719 25 C715 36 711 44 709 48 L427.748 721.853 C421.764 736.191 401.036 750 385.5 750 L381.426 750 C368.04 750 349.819 738.033 344.5 725.75 L334 701.5 L61 47 L51 25 L42.6713 4.17815 C41.8148 2.03688 43.1938 0 45.5 0 C47.7794 0 50.8823 2.03781 51.788 4.12952 L71 48.5 L141.214 216.279 C149.252 235.486 177.07 254 197.891 254 L521.109 254 C541.93 254 569.748 235.486 577.786 216.279 L577.786 216.279 Z M194.264 344.987 L302.251 605.236 C324.428 658.681 393.572 658.681 415.749 605.236 L523.736 344.987 C541.714 301.659 513.897 260 466.987 260 L251.013 260 C204.103 260 176.286 301.659 194.264 344.987 L194.264 344.987 Z " />
<glyph glyph-name="amacron" unicode="&#x101;" horiz-adv-x="550" d="M154.5 600 L399.5 600 C409.159 600 417 607.841 417 617.5 C417 627.159 409.159 635 399.5 635 L154.5 635 C144.841 635 137 627.159 137 617.5 C137 607.841 144.841 600 154.5 600 L154.5 600 Z M82.5 381.5 C84.3709 380.698 87.5011 384.48 88.1894 386.395 C117.807 468.814 192.175 523 277 523 C366 523 425 483 425 381 C425 269 353 238 246 238 C133 238 57 179 57 91 C57 31 111 -9 249 -9 C330.375 -9 391.078 13.9688 416.371 86.7031 C417.457 89.8259 425 87.8062 425 84.5 L425 48 C425 5.45 428.423 0.5475 500.958 0.0514687 C511.239 -0.0188376 520 8.21873 520 18.5 C520 28.5851 510.461 36.9413 500.377 37.0661 C476.339 37.3636 475 39 475 48 L475 360 C475 482 396 529 277 529 C189.25 529 111.006 473.864 81.1968 389.543 C80.4751 387.502 80.5098 382.353 82.5 381.5 L82.5 381.5 Z M425 295.208 L425 174 C425 35 355 -4 251 -4 C147 -4 106 35 106 93 C106 177 164 233 250 233 C325.9 233 384.444 248.995 411.594 299.514 C413.579 303.208 425 299.401 425 295.208 L425 295.208 Z " />
<glyph glyph-name="Abreve" unicode="&#x102;" horiz-adv-x="738" d="M247.933 928.766 C255.552 863.781 309.225 821 386 821 C462.775 821 516.448 863.781 524.067 928.766 C525.395 940.089 517.901 945 506.5 945 C498.337 945 487.757 933.956 486.119 925.959 C477.438 883.563 439.375 856 386 856 C332.625 856 294.563 883.563 285.881 925.959 C284.243 933.956 273.663 945 265.5 945 C254.099 945 246.605 940.089 247.933 928.766 L247.933 928.766 Z M577.786 216.279 L648 48.5 L658.5 24.25 C663.819 11.9667 682.04 0 695.426 0 L715.537 0 C722.437 0 726.562 6.09386 724 12.5 L719 25 C715 36 711 44 709 48 L427.748 721.853 C421.764 736.191 401.036 750 385.5 750 L381.426 750 C368.04 750 349.819 738.033 344.5 725.75 L334 701.5 L61 47 L51 25 L42.6713 4.17815 C41.8148 2.03688 43.1938 0 45.5 0 C47.7794 0 50.8823 2.03781 51.788 4.12952 L71 48.5 L141.214 216.279 C149.252 235.486 177.07 254 197.891 254 L521.109 254 C541.93 254 569.748 235.486 577.786 216.279 L577.786 216.279 Z M194.264 344.987 L302.251 605.236 C324.428 658.681 393.572 658.681 415.749 605.236 L523.736 344.987 C541.714 301.659 513.897 260 466.987 260 L251.013 260 C204.103 260 176.286 301.659 194.264 344.987 L194.264 344.987 Z " />
<glyph glyph-name="abreve" unicode="&#x103;" horiz-adv-x="550" d="M138.933 698.766 C146.552 633.781 200.225 591 277 591 C353.775 591 407.448 633.781 415.067 698.766 C416.395 710.089 408.901 715 397.5 715 C389.337 715 378.757 703.956 377.119 695.959 C368.438 653.563 330.375 626 277 626 C223.625 626 185.563 653.563 176.881 695.959 C175.243 703.956 164.663 715 156.5 715 C145.099 715 137.605 710.089 138.933 698.766 L138.933 698.766 Z M82.5 381.5 C84.3709 380.698 87.5011 384.48 88.1894 386.395 C117.807 468.814 192.175 523 277 523 C366 523 425 483 425 381 C425 269 353 238 246 238 C133 238 57 179 57 91 C57 31 111 -9 249 -9 C330.375 -9 391.078 13.9688 416.371 86.7031 C417.457 89.8259 425 87.8062 425 84.5 L425 48 C425 5.45 428.423 0.5475 500.958 0.0514687 C511.239 -0.0188376 520 8.21873 520 18.5 C520 28.5851 510.461 36.9413 500.377 37.0661 C476.339 37.3636 475 39 475 48 L475 360 C475 482 396 529 277 529 C189.25 529 111.006 473.864 81.1968 389.543 C80.4751 387.502 80.5098 382.353 82.5 381.5 L82.5 381.5 Z M425 295.208 L425 174 C425 35 355 -4 251 -4 C147 -4 106 35 106 93 C106 177 164 233 250 233 C325.9 233 384.444 248.995 411.594 299.514 C413.579 303.208 425 299.401 425 295.208 L425 295.208 Z " />
<glyph glyph-name="Aogonek" unicode="&#x104;" horiz-adv-x="738" d="M577.786 216.279 L648 48.5 L658.5 24.25 C663.819 11.9667 682.04 0 695.426 0 L708.357 0 C713.178 0 714.465 -7.35526 710.672 -10.3309 C680.905 -33.6825 639 -76.65 639 -103 C639 -162 680 -201 742 -201 C766.538 -201 792.151 -189.544 809.75 -173.903 C809.75 -173.903 809.501 -173.793 809.501 -173.793 C791.931 -188.199 766.579 -196 743 -196 C697 -196 667 -157 667 -98 C667 -65.625 700.688 -23.2969 721.838 -5.85156 C725.596 -2.75139 727.733 5.66842 725.923 10.1921 L720 25 C716 36 712 44 710 48 L428.748 721.853 C422.764 736.191 402.036 750 386.5 750 L382.426 750 C369.04 750 350.819 738.033 345.5 725.75 L335 701.5 L62 47 L52 25 L43.6713 4.17815 C42.8148 2.03688 44.1938 0 46.5 0 C48.7794 0 51.8823 2.03781 52.788 4.12952 L72 48.5 L142.214 216.279 C150.252 235.486 178.07 254 198.891 254 L521.109 254 C541.93 254 569.748 235.486 577.786 216.279 L577.786 216.279 Z M195.264 344.987 L303.251 605.236 C325.428 658.681 394.572 658.681 416.749 605.236 L524.736 344.987 C542.714 301.659 514.897 260 467.987 260 L252.013 260 C205.103 260 177.286 301.659 195.264 344.987 L195.264 344.987 Z " />
<glyph glyph-name="aogonek" unicode="&#x105;" horiz-adv-x="550" d="M82.5 381.5 C84.3709 380.698 87.5011 384.48 88.1894 386.395 C117.807 468.814 192.175 523 277 523 C366 523 425 483 425 381 C425 269 353 238 246 238 C133 238 57 179 57 91 C57 31 111 -9 249 -9 C330.375 -9 391.078 13.9688 416.371 86.7031 C417.457 89.8259 425 87.8062 425 84.5 L425 48 C425 6.375 428.423 0.68625 497.001 0.0670781 C502.084 0.0211831 504.342 -7.50956 500.347 -10.6526 C470.182 -34.3825 429 -76.5 429 -102 C429 -161 470 -200 532 -200 C556.538 -200 582.151 -188.544 599.75 -172.903 C599.75 -172.903 599.501 -172.793 599.501 -172.793 C581.931 -187.199 556.579 -195 533 -195 C487 -195 457 -156 457 -97 C457 -64.625 490.688 -22.2969 511.838 -4.85156 C514.786 -2.4195 520 8.15506 520 11.9772 L520 19.5 C520 29.5851 510.461 37.9413 500.377 38.0661 C476.339 38.3636 475 40 475 49 L475 361 C475 483 396 530 277 530 C189.25 530 111.006 474.388 81.1968 390.044 C80.4754 388.003 80.51 382.353 82.5 381.5 L82.5 381.5 Z M425 296.208 L425 175 C425 36 355 -3 251 -3 C147 -3 106 36 106 94 C106 178 164 234 250 234 C325.9 234 384.444 249.995 411.594 300.514 C413.579 304.208 425 300.401 425 296.208 L425 296.208 Z " />
<glyph glyph-name="Cacute" unicode="&#x106;" horiz-adv-x="712" d="M381.5 830 C392.305 830 409.766 840.175 415.093 849.575 L472.977 951.724 C480.672 965.303 472.107 980 456.5 980 C440.04 980 417.622 965.282 411.078 950.179 L367.946 850.645 C363.415 840.189 370.105 830 381.5 830 L381.5 830 Z M681.283 169.041 C631.446 66.445 523.05 -2 408 -2 C242 -2 131 171 131 375 C131 579 242 752 408 752 C512 752 623 680 685 573 C686.185 570.955 686.577 574.126 688.5 575.5 C690.475 576.911 688.448 584.034 687.182 586.105 C623.353 690.555 513.3 759 408 759 C206 759 71 582 71 375 C71 168 206 -9 408 -9 C530 -9 644 63 692 172 C692.937 174.127 690.391 173.149 688.5 174.5 C686.654 175.819 682.274 171.082 681.283 169.041 L681.283 169.041 Z M688 578 L688 578 L688 578 Z " />
<glyph glyph-name="cacute" unicode="&#x107;" horiz-adv-x="547" d="M316 600 C327.045 600 344.894 610.401 350.339 620.011 L407.731 721.289 C415.544 735.077 406.847 750 391 750 C374.287 750 351.524 735.056 344.879 719.721 L302.145 621.104 C297.513 610.415 304.351 600 316 600 L316 600 Z M507.589 130.753 C475.144 50.235 399.85 -3 316 -3 C200 -3 122 79 122 260 C122 441 200 523 316 523 C401 523 464 460 510 366 C510.923 364.114 511.571 366.673 513.5 367.5 C515.455 368.338 514.483 374.033 513.512 375.926 C467.685 465.308 402.75 529 315 529 C166 529 66 446 66 260 C66 74 166 -9 315 -9 C404 -9 485 48 516 134 C516.623 135.73 514.644 134.678 513 135.5 C511.398 136.301 508.259 132.415 507.589 130.753 L507.589 130.753 Z M512 369 L511 369 L511 372 L512 369 L512 369 Z " />
<glyph glyph-name="Ccircumflex" unicode="&#x108;" horiz-adv-x="712" d="M397.951 936.23 C439.391 914.984 506 830 506 830 C506 830 502.919 830 529 830 C538.128 830 542.359 839.974 536.014 846.537 L424.723 961.666 C417.689 968.942 391.62 980 381.5 980 C371.346 980 345.372 968.929 338.34 961.605 L227.582 846.231 C221.377 839.768 225.541 830 234.5 830 C242.746 830 267.658 839.464 273.824 844.94 L368.167 928.716 C380.98 940.094 382.702 944.049 397.951 936.23 L397.951 936.23 Z M681.283 169.041 C631.446 66.445 523.05 -2 408 -2 C242 -2 131 171 131 375 C131 579 242 752 408 752 C512 752 623 680 685 573 C686.185 570.955 686.577 574.126 688.5 575.5 C690.475 576.911 688.448 584.034 687.182 586.105 C623.353 690.555 513.3 759 408 759 C206 759 71 582 71 375 C71 168 206 -9 408 -9 C530 -9 644 63 692 172 C692.937 174.127 690.391 173.149 688.5 174.5 C686.654 175.819 682.274 171.082 681.283 169.041 L681.283 169.041 Z M688 578 L688 578 L688 578 Z " />
<glyph glyph-name="Cdot" unicode="&#x10a;" horiz-adv-x="712" d="M382 830 C398.559 830 412 843.441 412 860 C412 876.559 398.559 890 382 890 C365.441 890 352 876.559 352 860 C352 843.441 365.441 830 382 830 L382 830 Z M681.283 169.041 C631.446 66.445 523.05 -2 408 -2 C242 -2 131 171 131 375 C131 579 242 752 408 752 C512 752 623 680 685 573 C686.185 570.955 686.577 574.126 688.5 575.5 C690.475 576.911 688.448 584.034 687.182 586.105 C623.353 690.555 513.3 759 408 759 C206 759 71 582 71 375 C71 168 206 -9 408 -9 C530 -9 644 63 692 172 C692.937 174.127 690.391 173.149 688.5 174.5 C686.654 175.819 682.274 171.082 681.283 169.041 L681.283 169.041 Z M688 578 L688 578 L688 578 Z " />
<glyph glyph-name="cdot" unicode="&#x10b;" horiz-adv-x="547" d="M316 600 C332.559 600 346 613.441 346 630 C346 646.559 332.559 660 316 660 C299.441 660 286 646.559 286 630 C286 613.441 299.441 600 316 600 L316 600 Z M507.589 130.753 C475.144 50.235 399.85 -3 316 -3 C200 -3 122 79 122 260 C122 441 200 523 316 523 C401 523 464 460 510 366 C510.923 364.114 511.571 366.673 513.5 367.5 C515.455 368.338 514.483 374.033 513.512 375.926 C467.685 465.308 402.75 529 315 529 C166 529 66 446 66 260 C66 74 166 -9 315 -9 C404 -9 485 48 516 134 C516.623 135.73 514.644 134.678 513 135.5 C511.398 136.301 508.259 132.415 507.589 130.753 L507.589 130.753 Z M512 369 L511 369 L511 372 L512 369 L512 369 Z " />
<glyph glyph-name="Ccaron" unicode="&#x10c;" horiz-adv-x="712" d="M368.167 881.284 L273.824 965.06 C267.658 970.536 242.746 980 234.5 980 C225.541 980 221.377 970.232 227.582 963.769 L338.34 848.395 C345.372 841.071 371.346 830 381.5 830 C391.62 830 417.689 841.058 424.723 848.334 L536.014 963.463 C542.359 970.026 538.128 980 529 980 C519.062 980 511.99 987.601 505.839 979.795 C502.214 975.196 438.207 894.409 397.951 873.77 C382.702 865.951 380.98 869.906 368.167 881.284 L368.167 881.284 Z M681.283 169.041 C631.446 66.445 523.05 -2 408 -2 C242 -2 131 171 131 375 C131 579 242 752 408 752 C512 752 623 680 685 573 C686.185 570.955 686.577 574.126 688.5 575.5 C690.475 576.911 688.448 584.034 687.182 586.105 C623.353 690.555 513.3 759 408 759 C206 759 71 582 71 375 C71 168 206 -9 408 -9 C530 -9 644 63 692 172 C692.937 174.127 690.391 173.149 688.5 174.5 C686.654 175.819 682.274 171.082 681.283 169.041 L681.283 169.041 Z M688 578 L688 578 L688 578 Z " />
<glyph glyph-name="ccaron" unicode="&#x10d;" horiz-adv-x="547" d="M302.216 651.339 L209.137 734.66 C202.828 740.307 177.467 750 169 750 C159.872 750 155.641 740.026 161.986 733.463 L273.624 617.975 C280.52 610.841 306.078 600 316 600 C325.922 600 351.48 610.841 358.376 617.975 L470.014 733.463 C476.359 740.026 472.128 750 463 750 C453.062 750 445.99 757.601 439.839 749.795 C436.214 745.196 372.207 664.409 331.951 643.77 C316.705 635.953 314.982 639.912 302.216 651.339 L302.216 651.339 Z M507.589 130.753 C475.144 50.235 399.85 -3 316 -3 C200 -3 122 79 122 260 C122 441 200 523 316 523 C401 523 464 460 510 366 C510.923 364.114 511.571 366.673 513.5 367.5 C515.455 368.338 514.483 374.033 513.512 375.926 C467.685 465.308 402.75 529 315 529 C166 529 66 446 66 260 C66 74 166 -9 315 -9 C404 -9 485 48 516 134 C516.623 135.73 514.644 134.678 513 135.5 C511.398 136.301 508.259 132.415 507.589 130.753 L507.589 130.753 Z M512 369 L511 369 L511 372 L512 369 L512 369 Z " />
<glyph glyph-name="Dcaron" unicode="&#x10e;" horiz-adv-x="764" d="M363.216 881.339 L270.137 964.66 C263.828 970.307 238.467 980 230 980 C220.872 980 216.641 970.026 222.986 963.463 L334.624 847.975 C341.52 840.841 367.078 830 377 830 C386.922 830 412.48 840.841 419.376 847.975 L531.014 963.463 C537.359 970.026 533.128 980 524 980 C514.062 980 506.99 987.601 500.839 979.795 C497.214 975.196 433.207 894.409 392.951 873.77 C377.705 865.953 375.982 869.912 363.216 881.339 L363.216 881.339 Z M349 0 C593 0 709 121 709 375 C709 623 576 750 319 750 L166.44 750 C132.527 750 105 722.473 105 688.56 L105 61.44 C105 27.527 132.527 0 166.44 0 L349 0 L349 0 Z M161 35 L161 719.5 C161 732.406 170.87 742.998 183.776 743.064 C227.29 743.284 279.231 744 319 744 C537 744 649 619 649 375 C649 125 552 6 348 6 C299.179 6 235.918 6.76003 183.395 6.9549 C167.998 7.01204 161 19.6022 161 35 L161 35 Z " />
<glyph glyph-name="dcaron" unicode="&#x10f;" horiz-adv-x="588" d="M566.025 732.072 L558.353 627.45 C557.608 617.294 565.316 609 575.5 609 C585.538 609 595.553 617.318 597.395 627.186 L617.046 732.458 C619.734 746.86 609.65 759 595 759 C580.137 759 567.112 746.896 566.025 732.072 L566.025 732.072 Z M122 260 C122 418 182 523 271 523 C389 523 468 418 468 260 C468 102 389 -3 271 -3 C182 -3 122 102 122 260 L122 260 Z M67 260 C67 99 148 -9 269 -9 C357.275 -9 424.451 48.8531 454.243 143.222 C455.546 147.35 468 145.846 468 141.517 L468 25 C468 11.2007 479.201 0 493 0 C506.799 0 518 11.2007 518 25 L518 725 C518 738.799 506.799 750 493 750 C479.201 750 468 738.799 468 725 L468 378.483 C468 374.154 455.546 372.65 454.243 376.778 C424.451 471.147 357.275 529 269 529 C148 529 67 421 67 260 L67 260 Z " />
<glyph glyph-name="Dcroat" unicode="&#x110;" horiz-adv-x="764" d="M28 372 L65 372 C87.0788 372 105 354.079 105 332 L105 61.44 C105 27.527 132.527 0 166.44 0 L349 0 C593 0 709 121 709 375 C709 623 576 750 319 750 L166.44 750 C132.527 750 105 722.473 105 688.56 L105 418 C105 395.921 87.0788 378 65 378 L28 378 C26.3441 378 25 376.656 25 375 C25 373.344 26.3441 372 28 372 L28 372 Z M161 35 L161 310.56 C161 344.473 188.527 372 222.44 372 L374 372 C375.656 372 377 373.344 377 375 C377 376.656 375.656 378 374 378 L222.44 378 C188.527 378 161 405.527 161 439.44 L161 719.5 C161 732.406 170.87 742.998 183.776 743.064 C227.29 743.284 279.231 744 319 744 C537 744 649 619 649 375 C649 125 552 6 348 6 C299.179 6 235.918 6.76003 183.395 6.9549 C167.998 7.01204 161 19.6022 161 35 L161 35 Z " />
<glyph glyph-name="dcroat" unicode="&#x111;" horiz-adv-x="588" d="M269 637 L406.56 637 C440.473 637 468 609.473 468 575.56 L468 378.483 C468 374.154 455.546 372.65 454.243 376.778 C424.451 471.147 357.275 529 269 529 C148 529 67 421 67 260 C67 99 148 -9 269 -9 C357.275 -9 424.451 48.8531 454.243 143.222 C455.546 147.35 468 145.846 468 141.517 L468 25 C468 11.2007 479.201 0 493 0 C506.799 0 518 11.2007 518 25 L518 598.5 C518 619.751 535.249 637 556.5 637 L595 637 L595 642 L556.5 642 C535.249 642 518 659.249 518 680.5 L518 725 C518 738.799 506.799 750 493 750 C479.201 750 468 738.799 468 725 L468 696 C468 666.194 443.806 642 414 642 L269 642 L269 637 L269 637 Z M122 260 C122 418 182 523 271 523 C389 523 468 418 468 260 C468 102 389 -3 271 -3 C182 -3 122 102 122 260 L122 260 Z " />
<glyph glyph-name="Emacron" unicode="&#x112;" horiz-adv-x="586" d="M190.5 830 L435.5 830 C445.159 830 453 837.841 453 847.5 C453 857.159 445.159 865 435.5 865 L190.5 865 C180.841 865 173 857.159 173 847.5 C173 837.841 180.841 830 190.5 830 L190.5 830 Z M532.5 7 L222.44 7 C188.527 7 161 34.527 161 68.44 L161 322.56 C161 356.473 188.527 384 222.44 384 L498 384 C499.656 384 501 385.344 501 387 C501 388.656 499.656 390 498 390 L222.44 390 C188.527 390 161 417.527 161 451.44 L161 681.56 C161 715.473 188.527 743 222.44 743 L517.5 743 C519.432 743 521 744.568 521 746.5 C521 748.432 519.432 750 517.5 750 L166.44 750 C132.527 750 105 722.473 105 688.56 L105 61.44 C105 27.527 132.527 0 166.44 0 L532.5 0 C534.432 0 536 1.5681 536 3.5 C536 5.4319 534.432 7 532.5 7 L532.5 7 Z " />
<glyph glyph-name="emacron" unicode="&#x113;" horiz-adv-x="553" d="M176.5 600 L421.5 600 C431.159 600 439 607.841 439 617.5 C439 627.159 431.159 635 421.5 635 L176.5 635 C166.841 635 159 627.159 159 617.5 C159 607.841 166.841 600 176.5 600 L176.5 600 Z M514.154 130.753 C488.586 50.235 402.25 -3 295 -3 C205.75 -3 142.531 57.4844 126.111 189.172 C121.396 226.988 146.399 250 184.508 250 L468.56 250 C506.193 250 531.01 272.53 526.883 309.936 C512.172 443.25 444.25 529 299 529 C160 529 67 446 67 260 C67 74 158 -9 295 -9 C406.15 -9 495.436 45.1856 521.148 127.605 C521.797 129.685 521.503 134.642 519.5 135.5 C517.654 136.291 514.762 132.668 514.154 130.753 L514.154 130.753 Z M418.177 255 L183.105 255 C145.698 255 121.076 281.849 124.93 319.057 C139.313 457.922 205.375 523 299 523 C411.875 523 465.031 441.078 477.227 312.74 C480.738 275.786 455.298 255 418.177 255 L418.177 255 Z " />
<glyph glyph-name="Ebreve" unicode="&#x114;" horiz-adv-x="586" d="M174.933 928.766 C182.552 863.781 236.225 821 313 821 C389.775 821 443.448 863.781 451.067 928.766 C452.395 940.089 444.901 945 433.5 945 C425.337 945 414.757 933.956 413.119 925.959 C404.438 883.563 366.375 856 313 856 C259.625 856 221.563 883.563 212.881 925.959 C211.243 933.956 200.663 945 192.5 945 C181.099 945 173.605 940.089 174.933 928.766 L174.933 928.766 Z M532.5 7 L222.44 7 C188.527 7 161 34.527 161 68.44 L161 322.56 C161 356.473 188.527 384 222.44 384 L498 384 C499.656 384 501 385.344 501 387 C501 388.656 499.656 390 498 390 L222.44 390 C188.527 390 161 417.527 161 451.44 L161 681.56 C161 715.473 188.527 743 222.44 743 L517.5 743 C519.432 743 521 744.568 521 746.5 C521 748.432 519.432 750 517.5 750 L166.44 750 C132.527 750 105 722.473 105 688.56 L105 61.44 C105 27.527 132.527 0 166.44 0 L532.5 0 C534.432 0 536 1.5681 536 3.5 C536 5.4319 534.432 7 532.5 7 L532.5 7 Z " />
<glyph glyph-name="ebreve" unicode="&#x115;" horiz-adv-x="553" d="M160.933 698.766 C168.552 633.781 222.225 591 299 591 C375.775 591 429.448 633.781 437.067 698.766 C438.395 710.089 430.901 715 419.5 715 C411.337 715 400.757 703.956 399.119 695.959 C390.438 653.563 352.375 626 299 626 C245.625 626 207.563 653.563 198.881 695.959 C197.243 703.956 186.663 715 178.5 715 C167.099 715 159.605 710.089 160.933 698.766 L160.933 698.766 Z M514.154 130.753 C488.586 50.235 402.25 -3 295 -3 C205.75 -3 142.531 57.4844 126.111 189.172 C121.396 226.988 146.399 250 184.508 250 L468.56 250 C506.193 250 531.01 272.53 526.883 309.936 C512.172 443.25 444.25 529 299 529 C160 529 67 446 67 260 C67 74 158 -9 295 -9 C406.15 -9 495.436 45.1856 521.148 127.605 C521.797 129.685 521.503 134.642 519.5 135.5 C517.654 136.291 514.762 132.668 514.154 130.753 L514.154 130.753 Z M418.177 255 L183.105 255 C145.698 255 121.076 281.849 124.93 319.057 C139.313 457.922 205.375 523 299 523 C411.875 523 465.031 441.078 477.227 312.74 C480.738 275.786 455.298 255 418.177 255 L418.177 255 Z " />
<glyph glyph-name="Edot" unicode="&#x116;" horiz-adv-x="586" d="M313 830 C329.559 830 343 843.441 343 860 C343 876.559 329.559 890 313 890 C296.441 890 283 876.559 283 860 C283 843.441 296.441 830 313 830 L313 830 Z M532.5 7 L222.44 7 C188.527 7 161 34.527 161 68.44 L161 322.56 C161 356.473 188.527 384 222.44 384 L498 384 C499.656 384 501 385.344 501 387 C501 388.656 499.656 390 498 390 L222.44 390 C188.527 390 161 417.527 161 451.44 L161 681.56 C161 715.473 188.527 743 222.44 743 L517.5 743 C519.432 743 521 744.568 521 746.5 C521 748.432 519.432 750 517.5 750 L166.44 750 C132.527 750 105 722.473 105 688.56 L105 61.44 C105 27.527 132.527 0 166.44 0 L532.5 0 C534.432 0 536 1.5681 536 3.5 C536 5.4319 534.432 7 532.5 7 L532.5 7 Z " />
<glyph glyph-name="edot" unicode="&#x117;" horiz-adv-x="553" d="M299 600 C315.559 600 329 613.441 329 630 C329 646.559 315.559 660 299 660 C282.441 660 269 646.559 269 630 C269 613.441 282.441 600 299 600 L299 600 Z M514.154 130.753 C488.586 50.235 402.25 -3 295 -3 C205.75 -3 142.531 57.4844 126.111 189.172 C121.396 226.988 146.399 250 184.508 250 L468.56 250 C506.193 250 531.01 272.53 526.883 309.936 C512.172 443.25 444.25 529 299 529 C160 529 67 446 67 260 C67 74 158 -9 295 -9 C406.15 -9 495.436 45.1856 521.148 127.605 C521.797 129.685 521.503 134.642 519.5 135.5 C517.654 136.291 514.762 132.668 514.154 130.753 L514.154 130.753 Z M418.177 255 L183.105 255 C145.698 255 121.076 281.849 124.93 319.057 C139.313 457.922 205.375 523 299 523 C411.875 523 465.031 441.078 477.227 312.74 C480.738 275.786 455.298 255 418.177 255 L418.177 255 Z " />
<glyph glyph-name="Eogonek" unicode="&#x118;" horiz-adv-x="586" d="M533 7 L222.44 7 C188.527 7 161 34.527 161 68.44 L161 322.56 C161 356.473 188.527 384 222.44 384 L498 384 C499.656 384 501 385.344 501 387 C501 388.656 499.656 390 498 390 L222.44 390 C188.527 390 161 417.527 161 451.44 L161 681.56 C161 715.473 188.527 743 222.44 743 L517.5 743 C519.432 743 521 744.568 521 746.5 C521 748.432 519.432 750 517.5 750 L166.44 750 C132.527 750 105 722.473 105 688.56 L105 61.44 C105 27.527 132.527 0 166.44 0 L305.665 0 C310.765 0 312.355 -7.49965 308.347 -10.6526 C278.182 -34.3825 237 -76.5 237 -102 C237 -161 278 -200 340 -200 C364.538 -200 390.151 -188.544 407.75 -172.903 C407.75 -172.903 407.501 -172.793 407.501 -172.793 C389.931 -187.199 364.579 -195 341 -195 C295 -195 265 -156 265 -97 C265 -64.625 298.688 -22.2969 319.838 -4.85156 C323.815 -1.57076 333.821 1 338.977 1 L533 1 C534.656 1 536 2.34409 536 4 C536 5.65591 534.656 7 533 7 L533 7 Z " />
<glyph glyph-name="eogonek" unicode="&#x119;" horiz-adv-x="553" d="M514.154 130.753 C488.586 50.235 402.25 -3 295 -3 C205.75 -3 142.531 57.4844 126.111 189.172 C121.396 226.988 146.399 250 184.508 250 L468.56 250 C506.193 250 531.01 272.53 526.883 309.936 C512.172 443.25 444.25 529 299 529 C160 529 67 446 67 260 C67 74 158 -9 295 -9 C341.75 -9 384.165 0.3925 419.789 17.3351 C422.075 18.4225 426.338 15.1487 424.623 13.2862 C399.01 -14.53 373 -52.1 373 -81 C373 -153 414 -201 476 -201 C500.538 -201 526.151 -189.544 543.75 -173.903 C543.75 -173.903 543.501 -173.793 543.501 -173.793 C525.931 -188.199 500.579 -196 477 -196 C431 -196 401 -148 401 -76 C401 -35.15 428.977 11.115 449.78 33.6442 C450.136 34.0292 457.757 40.4931 458.174 40.8099 C489.615 64.6726 512.329 95.3375 523.149 132.013 C523.804 134.235 522.247 135.438 520 136 C517.883 136.529 514.814 132.832 514.154 130.753 L514.154 130.753 Z M419.177 256 L184.105 256 C146.698 256 122.076 282.849 125.93 320.057 C140.313 458.922 206.375 524 300 524 C412.875 524 466.031 442.078 478.227 313.74 C481.738 276.786 456.298 256 419.177 256 L419.177 256 Z " />
<glyph glyph-name="Ecaron" unicode="&#x11a;" horiz-adv-x="586" d="M299.216 881.339 L206.137 964.66 C199.828 970.307 174.467 980 166 980 C156.872 980 152.641 970.026 158.986 963.463 L270.624 847.975 C277.52 840.841 303.078 830 313 830 C322.922 830 348.48 840.841 355.376 847.975 L467.014 963.463 C473.359 970.026 469.128 980 460 980 C450.062 980 442.99 987.601 436.839 979.795 C433.214 975.196 369.207 894.409 328.951 873.77 C313.705 865.953 311.982 869.912 299.216 881.339 L299.216 881.339 Z M532.5 7 L222.44 7 C188.527 7 161 34.527 161 68.44 L161 322.56 C161 356.473 188.527 384 222.44 384 L498 384 C499.656 384 501 385.344 501 387 C501 388.656 499.656 390 498 390 L222.44 390 C188.527 390 161 417.527 161 451.44 L161 681.56 C161 715.473 188.527 743 222.44 743 L517.5 743 C519.432 743 521 744.568 521 746.5 C521 748.432 519.432 750 517.5 750 L166.44 750 C132.527 750 105 722.473 105 688.56 L105 61.44 C105 27.527 132.527 0 166.44 0 L532.5 0 C534.432 0 536 1.5681 536 3.5 C536 5.4319 534.432 7 532.5 7 L532.5 7 Z " />
<glyph glyph-name="ecaron" unicode="&#x11b;" horiz-adv-x="553" d="M285.216 651.339 L192.137 734.66 C185.828 740.307 160.467 750 152 750 C142.872 750 138.641 740.026 144.986 733.463 L256.624 617.975 C263.52 610.841 289.078 600 299 600 C308.922 600 334.48 610.841 341.376 617.975 L453.014 733.463 C459.359 740.026 455.128 750 446 750 C436.062 750 428.99 757.601 422.839 749.795 C419.214 745.196 355.207 664.409 314.951 643.77 C299.705 635.953 297.982 639.912 285.216 651.339 L285.216 651.339 Z M514.154 130.753 C488.586 50.235 402.25 -3 295 -3 C205.75 -3 142.531 57.4844 126.111 189.172 C121.396 226.988 146.399 250 184.508 250 L468.56 250 C506.193 250 531.01 272.53 526.883 309.936 C512.172 443.25 444.25 529 299 529 C160 529 67 446 67 260 C67 74 158 -9 295 -9 C406.15 -9 495.436 45.1856 521.148 127.605 C521.797 129.685 521.503 134.642 519.5 135.5 C517.654 136.291 514.762 132.668 514.154 130.753 L514.154 130.753 Z M418.177 255 L183.105 255 C145.698 255 121.076 281.849 124.93 319.057 C139.313 457.922 205.375 523 299 523 C411.875 523 465.031 441.078 477.227 312.74 C480.738 275.786 455.298 255 418.177 255 L418.177 255 Z " />
<glyph glyph-name="Gcircumflex" unicode="&#x11c;" horiz-adv-x="762" d="M452.951 936.23 C494.391 914.984 561 830 561 830 C561 830 557.919 830 584 830 C593.128 830 597.359 839.974 591.014 846.537 L479.376 962.025 C472.48 969.159 446.922 980 437 980 C427.078 980 401.52 969.159 394.624 962.025 L282.986 846.537 C276.641 839.974 280.872 830 290 830 C298.467 830 323.828 839.693 330.137 845.34 L423.216 928.661 C435.982 940.088 437.705 944.047 452.951 936.23 L452.951 936.23 Z M482.5 402 L647.56 402 C681.473 402 709 374.473 709 340.56 L709 137.453 C709 123.862 695.553 97.7554 684.671 89.611 C609.89 33.64 519.8 -2 437 -2 C253 -2 131 149 131 375 C131 601 253 752 437 752 C525 752 625 680 687 573 C688.065 571.162 688.368 574.14 690 575.5 C691.672 576.893 689.331 584.244 688.203 586.105 C624.907 690.555 525.725 759 437 759 C217 759 71 605 71 375 C71 145 217 -9 437 -9 C522.5 -9 614.48 28.26 691.799 85.284 C702.892 93.4655 717 120.083 717 133.867 L717 347.56 C717 381.473 689.473 409 655.56 409 L482.5 409 C480.568 409 479 407.432 479 405.5 C479 403.568 480.568 402 482.5 402 L482.5 402 Z M689 578 L688 578 L688 579 L689 578 L689 578 Z " />
<glyph glyph-name="Gbreve" unicode="&#x11e;" horiz-adv-x="762" d="M298.933 928.766 C306.552 863.781 360.225 821 437 821 C513.775 821 567.448 863.781 575.067 928.766 C576.395 940.089 568.901 945 557.5 945 C549.337 945 538.757 933.956 537.119 925.959 C528.438 883.563 490.375 856 437 856 C383.625 856 345.563 883.563 336.881 925.959 C335.243 933.956 324.663 945 316.5 945 C305.099 945 297.605 940.089 298.933 928.766 L298.933 928.766 Z M482.5 402 L647.56 402 C681.473 402 709 374.473 709 340.56 L709 137.453 C709 123.862 695.553 97.7554 684.671 89.611 C609.89 33.64 519.8 -2 437 -2 C253 -2 131 149 131 375 C131 601 253 752 437 752 C525 752 625 680 687 573 C688.065 571.162 688.368 574.14 690 575.5 C691.672 576.893 689.331 584.244 688.203 586.105 C624.907 690.555 525.725 759 437 759 C217 759 71 605 71 375 C71 145 217 -9 437 -9 C522.5 -9 614.48 28.26 691.799 85.284 C702.892 93.4655 717 120.083 717 133.867 L717 347.56 C717 381.473 689.473 409 655.56 409 L482.5 409 C480.568 409 479 407.432 479 405.5 C479 403.568 480.568 402 482.5 402 L482.5 402 Z M689 578 L688 578 L688 579 L689 578 L689 578 Z " />
<glyph glyph-name="gbreve" unicode="&#x11f;" horiz-adv-x="578" d="M148.933 698.766 C156.558 633.781 210.3 591 288 591 C364.775 591 418.448 633.781 426.067 698.766 C427.395 710.089 419.901 715 408.5 715 C400.337 715 389.757 703.956 388.119 695.959 C379.438 653.563 341.375 626 288 626 C233.75 626 195.578 653.563 186.883 695.959 C185.243 703.952 174.66 715 166.5 715 C155.099 715 147.605 710.09 148.933 698.766 L148.933 698.766 Z M79.1587 -95.5439 C83.2769 -140.889 167.2 -158 292 -158 C448 -158 508 -86 508 21 L508 495 C508 508.799 496.799 520 483 520 C469.201 520 458 508.799 458 495 L458 378.928 C458 374.866 446.043 373.455 444.854 377.34 C416.151 471.147 350.625 529 264 529 C146 529 67 454 67 260 C67 73 146 0 264 0 C350.625 0 416.151 55.8112 444.854 146.658 C446.077 150.527 458 149.116 458 145.059 L458 0 C458 -91 411 -152 291 -152 C172.05 -152 91.125 -135.839 87.1531 -95.1764 C86.9593 -93.1926 84.9932 -92 83 -92 C80.5924 -92 78.941 -93.1462 79.1587 -95.5439 L79.1587 -95.5439 Z M122 260 C122 449 180 523 266 523 C381 523 458 418 458 260 C458 108 381 6 266 6 C180 6 122 77 122 260 L122 260 Z " />
<glyph glyph-name="Gdot" unicode="&#x120;" horiz-adv-x="762" d="M437 830 C453.559 830 467 843.441 467 860 C467 876.559 453.559 890 437 890 C420.441 890 407 876.559 407 860 C407 843.441 420.441 830 437 830 L437 830 Z M482.5 402 L647.56 402 C681.473 402 709 374.473 709 340.56 L709 137.453 C709 123.862 695.553 97.7554 684.671 89.611 C609.89 33.64 519.8 -2 437 -2 C253 -2 131 149 131 375 C131 601 253 752 437 752 C525 752 625 680 687 573 C688.065 571.162 688.368 574.14 690 575.5 C691.672 576.893 689.331 584.244 688.203 586.105 C624.907 690.555 525.725 759 437 759 C217 759 71 605 71 375 C71 145 217 -9 437 -9 C522.5 -9 614.48 28.26 691.799 85.284 C702.892 93.4655 717 120.083 717 133.867 L717 347.56 C717 381.473 689.473 409 655.56 409 L482.5 409 C480.568 409 479 407.432 479 405.5 C479 403.568 480.568 402 482.5 402 L482.5 402 Z M689 578 L688 578 L688 579 L689 578 L689 578 Z " />
<glyph glyph-name="gdot" unicode="&#x121;" horiz-adv-x="578" d="M288 600 C304.559 600 318 613.441 318 630 C318 646.559 304.559 660 288 660 C271.441 660 258 646.559 258 630 C258 613.441 271.441 600 288 600 L288 600 Z M79.1587 -95.5439 C83.2769 -140.889 167.2 -158 292 -158 C448 -158 508 -86 508 21 L508 495 C508 508.799 496.799 520 483 520 C469.201 520 458 508.799 458 495 L458 378.928 C458 374.866 446.043 373.455 444.854 377.34 C416.151 471.147 350.625 529 264 529 C146 529 67 454 67 260 C67 73 146 0 264 0 C350.625 0 416.151 55.8112 444.854 146.658 C446.077 150.527 458 149.116 458 145.059 L458 0 C458 -91 411 -152 291 -152 C172.05 -152 91.125 -135.839 87.1531 -95.1764 C86.9593 -93.1926 84.9932 -92 83 -92 C80.5924 -92 78.941 -93.1462 79.1587 -95.5439 L79.1587 -95.5439 Z M122 260 C122 449 180 523 266 523 C381 523 458 418 458 260 C458 108 381 6 266 6 C180 6 122 77 122 260 L122 260 Z " />
<glyph glyph-name="Hcircumflex" unicode="&#x124;" horiz-adv-x="706" d="M378.951 936.23 C420.391 914.984 487 830 487 830 C487 830 483.919 830 510 830 C519.128 830 523.359 839.974 517.014 846.537 L405.376 962.025 C398.48 969.159 372.922 980 363 980 C353.078 980 327.52 969.159 320.624 962.025 L208.986 846.537 C202.641 839.974 206.872 830 216 830 C224.467 830 249.828 839.693 256.137 845.34 L349.216 928.661 C361.982 940.088 363.705 944.047 378.951 936.23 L378.951 936.23 Z M621 28 L621 722 C621 737.455 608.455 750 593 750 C577.545 750 565 737.455 565 722 L565 459.44 C565 425.527 537.473 398 503.56 398 L222.44 398 C188.527 398 161 425.527 161 459.44 L161 722 C161 737.455 148.455 750 133 750 C117.545 750 105 737.455 105 722 L105 28 C105 12.5448 117.545 0 133 0 C148.455 0 161 12.5448 161 28 L161 330.56 C161 364.473 188.527 392 222.44 392 L503.56 392 C537.473 392 565 364.473 565 330.56 L565 28 C565 12.5448 577.545 0 593 0 C608.455 0 621 12.5448 621 28 L621 28 Z " />
<glyph glyph-name="Itilde" unicode="&#x128;" horiz-adv-x="227" d="M34.9012 846.572 C38.1657 875.101 50.0769 893 67 893 C93 893 132 821 164 821 C163 821 161 860 161 860 C161 860 162.487 840.669 162.498 840.532 L162.5 840.5 C163.655 825.483 169.705 819.165 183.731 824.654 C209.121 834.592 226.39 864.148 230.204 905.321 C231.233 916.427 223.653 923 212.5 923 C203.662 923 193.967 912.621 192.778 903.864 C189.796 881.9 181.515 866.67 169.712 861.731 C162.088 858.541 166.437 854.016 160.88 860.133 C157.771 863.555 95.2 932 64 932 C64.8182 932 65.6364 925.306 66.4545 917.394 C66.4687 917.257 66.7559 916.881 66.7491 917.019 L66.5 922 C66.1787 928.426 63.5793 932.326 57.2253 931.317 C25.899 926.341 4.1355 894.531 -0.204 847.679 C-1.17703 837.174 5.94966 830 16.5 830 C25.0613 830 33.9279 838.066 34.9012 846.572 L34.9012 846.572 Z M144 28 L144 722 C144 737.455 131.455 750 116 750 C100.545 750 88 737.455 88 722 L88 28 C88 12.5448 100.545 0 116 0 C131.455 0 144 12.5448 144 28 L144 28 Z " />
<glyph glyph-name="itilde" unicode="&#x129;" horiz-adv-x="262" d="M87.9012 616.572 C91.1657 645.101 103.077 663 120 663 C146 663 185 591 217 591 C216 591 214 630 214 630 C214 630 215.487 610.669 215.498 610.532 L215.5 610.5 C216.655 595.483 222.705 589.165 236.731 594.654 C262.121 604.592 279.39 634.148 283.204 675.321 C284.233 686.427 276.653 693 265.5 693 C256.662 693 246.967 682.621 245.778 673.864 C242.796 651.9 234.515 636.67 222.712 631.731 C215.088 628.541 219.437 624.016 213.88 630.133 C210.771 633.555 148.2 702 117 702 C117.818 702 118.636 695.306 119.455 687.394 C119.469 687.257 119.756 686.881 119.749 687.019 L119.5 692 C119.179 698.426 116.579 702.326 110.225 701.317 C78.899 696.341 57.1355 664.531 52.796 617.679 C51.823 607.174 58.9497 600 69.5 600 C78.0613 600 86.9279 608.066 87.9012 616.572 L87.9012 616.572 Z M169 0 C182.799 0 194 11.2007 194 25 L194 495 C194 508.799 182.799 520 169 520 C155.201 520 144 508.799 144 495 L144 25 C144 11.2007 155.201 0 169 0 L169 0 Z " />
<glyph glyph-name="Imacron" unicode="&#x12a;" horiz-adv-x="227" d="M-8.5 830 L236.5 830 C246.159 830 254 837.841 254 847.5 C254 857.159 246.159 865 236.5 865 L-8.5 865 C-18.1595 865 -26 857.159 -26 847.5 C-26 837.841 -18.1595 830 -8.5 830 L-8.5 830 Z M142 28 L142 722 C142 737.455 129.455 750 114 750 C98.5448 750 86 737.455 86 722 L86 28 C86 12.5448 98.5448 0 114 0 C129.455 0 142 12.5448 142 28 L142 28 Z " />
<glyph glyph-name="imacron" unicode="&#x12b;" horiz-adv-x="262" d="M44.5 600 L289.5 600 C299.159 600 307 607.841 307 617.5 C307 627.159 299.159 635 289.5 635 L44.5 635 C34.8405 635 27 627.159 27 617.5 C27 607.841 34.8405 600 44.5 600 L44.5 600 Z M167 0 C180.799 0 192 11.2007 192 25 L192 495 C192 508.799 180.799 520 167 520 C153.201 520 142 508.799 142 495 L142 25 C142 11.2007 153.201 0 167 0 L167 0 Z " />
<glyph glyph-name="Ibreve" unicode="&#x12c;" horiz-adv-x="227" d="M-24.0672 928.766 C-16.4481 863.781 37.225 821 114 821 C190.775 821 244.448 863.781 252.067 928.766 C253.395 940.089 245.901 945 234.5 945 C226.337 945 215.757 933.956 214.119 925.959 C205.438 883.563 167.375 856 114 856 C60.625 856 22.5625 883.563 13.8809 925.959 C12.2433 933.956 1.66293 945 -6.5 945 C-17.9005 945 -25.3948 940.089 -24.0672 928.766 L-24.0672 928.766 Z M142 28 L142 722 C142 737.455 129.455 750 114 750 C98.5448 750 86 737.455 86 722 L86 28 C86 12.5448 98.5448 0 114 0 C129.455 0 142 12.5448 142 28 L142 28 Z " />
<glyph glyph-name="ibreve" unicode="&#x12d;" horiz-adv-x="262" d="M28.9328 698.766 C36.5519 633.781 90.225 591 167 591 C243.775 591 297.448 633.781 305.067 698.766 C306.395 710.089 298.901 715 287.5 715 C279.337 715 268.757 703.956 267.119 695.959 C258.438 653.563 220.375 626 167 626 C113.625 626 75.5625 653.563 66.8809 695.959 C65.2433 703.956 54.6629 715 46.5 715 C35.0995 715 27.6052 710.089 28.9328 698.766 L28.9328 698.766 Z M167 0 C180.799 0 192 11.2007 192 25 L192 495 C192 508.799 180.799 520 167 520 C153.201 520 142 508.799 142 495 L142 25 C142 11.2007 153.201 0 167 0 L167 0 Z " />
<glyph glyph-name="Idot" unicode="&#x130;" horiz-adv-x="227" d="M114 830 C130.559 830 144 843.441 144 860 C144 876.559 130.559 890 114 890 C97.4409 890 84 876.559 84 860 C84 843.441 97.4409 830 114 830 L114 830 Z M142 28 L142 722 C142 737.455 129.455 750 114 750 C98.5448 750 86 737.455 86 722 L86 28 C86 12.5448 98.5448 0 114 0 C129.455 0 142 12.5448 142 28 L142 28 Z " />
<glyph glyph-name="dotlessi" unicode="&#x131;" horiz-adv-x="262" d="M167 0 C180.799 0 192 11.2007 192 25 L192 495 C192 508.799 180.799 520 167 520 C153.201 520 142 508.799 142 495 L142 25 C142 11.2007 153.201 0 167 0 L167 0 Z " />
<glyph glyph-name="Jcircumflex" unicode="&#x134;" horiz-adv-x="493" d="M395.951 936.23 C437.391 914.984 504 830 504 830 C504 830 500.919 830 527 830 C536.128 830 540.359 839.974 534.014 846.537 L422.376 962.025 C415.48 969.159 389.922 980 380 980 C370.078 980 344.52 969.159 337.624 962.025 L225.986 846.537 C219.641 839.974 223.872 830 233 830 C241.467 830 266.828 839.693 273.137 845.34 L366.216 928.661 C378.982 940.088 380.705 944.047 395.951 936.23 L395.951 936.23 Z M67 254.641 L67 221 C67 62 120 -9 238 -9 C350 -9 408 83 408 220 L408 722 C408 737.455 395.455 750 380 750 C364.545 750 352 737.455 352 722 L352 220 C352 87 313 -1 238 -1 C159 -1 123 73 123 237 L123 264.5 C123 279.487 110.645 290.014 95.8484 287.636 L95 287.5 C79.7407 285.048 67 270.096 67 254.641 L67 254.641 Z " />
<glyph glyph-name="Lacute" unicode="&#x139;" horiz-adv-x="497" d="M114 830 C125.045 830 142.894 840.401 148.339 850.011 L205.731 951.289 C213.544 965.077 204.847 980 189 980 C172.287 980 149.524 965.056 142.879 949.721 L100.145 851.104 C95.5134 840.415 102.351 830 114 830 L114 830 Z M463.5 7 L203.44 7 C169.527 7 142 34.527 142 68.44 L142 722 C142 737.455 129.455 750 114 750 C98.5448 750 86 737.455 86 722 L86 61.44 C86 27.527 113.527 0 147.44 0 L463.5 0 C465.432 0 467 1.5681 467 3.5 C467 5.4319 465.432 7 463.5 7 L463.5 7 Z " />
<glyph glyph-name="lacute" unicode="&#x13a;" horiz-adv-x="222" d="M114.5 790 C125.305 790 142.766 800.175 148.093 809.575 L205.977 911.724 C213.672 925.303 205.107 940 189.5 940 C173.04 940 150.622 925.282 144.078 910.179 L100.946 810.645 C96.4153 800.189 103.105 790 114.5 790 L114.5 790 Z M152 25 L152 725 C152 738.799 140.799 750 127 750 C113.201 750 102 738.799 102 725 L102 25 C102 11.2007 113.201 0 127 0 C140.799 0 152 11.2007 152 25 L152 25 Z " />
<glyph glyph-name="Lcaron" unicode="&#x13d;" horiz-adv-x="497" d="M274.989 731.574 L267.353 627.45 C266.608 617.294 274.316 609 284.5 609 C294.526 609 304.609 617.32 306.512 627.164 L326.78 732 C329.609 746.632 319.403 759 304.5 759 C289.361 759 276.096 746.672 274.989 731.574 L274.989 731.574 Z M463.5 7 L203.44 7 C169.527 7 142 34.527 142 68.44 L142 722 C142 737.455 129.455 750 114 750 C98.5448 750 86 737.455 86 722 L86 61.44 C86 27.527 113.527 0 147.44 0 L463.5 0 C465.432 0 467 1.5681 467 3.5 C467 5.4319 465.432 7 463.5 7 L463.5 7 Z " />
<glyph glyph-name="lcaron" unicode="&#x13e;" horiz-adv-x="222" d="M200.025 732.072 L192.353 627.45 C191.608 617.294 199.316 609 209.5 609 C219.538 609 229.553 617.318 231.395 627.186 L251.046 732.458 C253.734 746.86 243.65 759 229 759 C214.137 759 201.112 746.896 200.025 732.072 L200.025 732.072 Z M152 25 L152 725 C152 738.799 140.799 750 127 750 C113.201 750 102 738.799 102 725 L102 25 C102 11.2007 113.201 0 127 0 C140.799 0 152 11.2007 152 25 L152 25 Z " />
<glyph glyph-name="Lslash" unicode="&#x141;" horiz-adv-x="497" d="M463.5 7 L203.44 7 C169.527 7 142 34.527 142 68.44 L142 322.888 C142 345.959 161.937 373.727 183.797 381.103 L302.157 421.041 C303.644 421.542 305 423.431 305 425 C305 426.569 303.644 427.542 302.157 427.041 L223.083 400.359 C180.677 386.05 142 413.819 142 458.575 L142 722 C142 737.455 129.455 750 114 750 C98.5448 750 86 737.455 86 722 L86 397.217 C86 375.138 66.9195 348.56 46 341.5 L8.84248 328.959 C7.3559 328.458 6 326.569 6 325 C6 323.431 7.3559 322.458 8.84248 322.959 L46 335.5 C66.9195 342.56 86 328.862 86 306.783 L86 61.44 C86 27.527 113.527 0 147.44 0 L463.5 0 C465.432 0 467 1.5681 467 3.5 C467 5.4319 465.432 7 463.5 7 L463.5 7 Z " />
<glyph glyph-name="lslash" unicode="&#x142;" horiz-adv-x="222" d="M24.7098 323.287 L62 341 C81.9433 350.473 102 337.796 102 315.717 L102 25 C102 11.2007 113.201 0 127 0 C140.799 0 152 11.2007 152 25 L152 345.165 C152 364.527 169.589 392.355 187.079 400.662 L229.29 420.713 C230.641 421.355 232 423.504 232 425 C232 426.496 230.641 427.355 229.29 426.713 L192 409 C172.057 399.527 152 412.204 152 434.283 L152 725 C152 738.799 140.799 750 127 750 C113.201 750 102 738.799 102 725 L102 404.835 C102 385.473 84.4109 357.645 66.9213 349.338 L24.7098 329.287 C23.3588 328.645 22 326.496 22 325 C22 323.504 23.3588 322.645 24.7098 323.287 L24.7098 323.287 Z " />
<glyph glyph-name="Nacute" unicode="&#x143;" horiz-adv-x="654" d="M243 830 C254.045 830 271.894 840.401 277.339 850.011 L334.731 951.289 C342.544 965.077 333.847 980 318 980 C301.287 980 278.524 965.056 271.879 949.721 L229.145 851.104 C224.513 840.415 231.351 830 243 830 L243 830 Z M125 4 L125 480.501 C125 544.564 211.732 565.585 241.062 508.63 L487.891 29.3381 C495.305 14.9413 519.806 0 536 0 C554.215 0 569 14.785 569 33 L569 746 C569 748.208 567.208 750 565 750 C562.792 750 561 748.208 561 746 L561 261.57 C561 197.505 474.258 176.488 444.934 233.447 L193.19 722.438 C186.226 735.964 163.213 750 148 750 C130.889 750 117 736.111 117 719 L117 4 C117 1.79212 118.792 0 121 0 C123.208 0 125 1.79212 125 4 L125 4 Z " />
<glyph glyph-name="nacute" unicode="&#x144;" horiz-adv-x="534" d="M278 600 C289.045 600 306.894 610.401 312.339 620.011 L369.731 721.289 C377.544 735.077 368.847 750 353 750 C336.287 750 313.524 735.056 306.879 719.721 L264.145 621.104 C259.513 610.415 266.351 600 278 600 L278 600 Z M469 24.5051 L469 315 C469 454 409 525 319 525 C237.325 525 175.388 485.524 149.473 421.732 C148.267 418.763 138 419.698 138 422.903 L138 496 C138 509.799 126.799 521 113 521 C99.2007 521 88 509.799 88 496 L88 26 C88 12.2007 99.2007 1 113 1 C126.799 1 138 12.2007 138 26 L138 349 C138 451 210 519 317 519 C379 519 420 450 420 316 L420 25.5051 C420 11.9818 430.98 0.775928 444.5 0.5 C458.02 0.224072 469 10.9818 469 24.5051 L469 24.5051 Z " />
<glyph glyph-name="Ncaron" unicode="&#x147;" horiz-adv-x="654" d="M329.216 881.339 L236.137 964.66 C229.828 970.307 204.467 980 196 980 C186.872 980 182.641 970.026 188.986 963.463 L300.624 847.975 C307.52 840.841 333.078 830 343 830 C352.922 830 378.48 840.841 385.376 847.975 L497.014 963.463 C503.359 970.026 499.128 980 490 980 C480.062 980 472.99 987.601 466.839 979.795 C463.214 975.196 399.207 894.409 358.951 873.77 C343.705 865.953 341.982 869.912 329.216 881.339 L329.216 881.339 Z M125 4 L125 480.501 C125 544.564 211.732 565.585 241.062 508.63 L487.891 29.3381 C495.305 14.9413 519.806 0 536 0 C554.215 0 569 14.785 569 33 L569 746 C569 748.208 567.208 750 565 750 C562.792 750 561 748.208 561 746 L561 261.57 C561 197.505 474.258 176.488 444.934 233.447 L193.19 722.438 C186.226 735.964 163.213 750 148 750 C130.889 750 117 736.111 117 719 L117 4 C117 1.79212 118.792 0 121 0 C123.208 0 125 1.79212 125 4 L125 4 Z " />
<glyph glyph-name="ncaron" unicode="&#x148;" horiz-adv-x="534" d="M264.216 651.339 L171.137 734.66 C164.828 740.307 139.467 750 131 750 C121.872 750 117.641 740.026 123.986 733.463 L235.624 617.975 C242.52 610.841 268.078 600 278 600 C287.922 600 313.48 610.841 320.376 617.975 L432.014 733.463 C438.359 740.026 434.128 750 425 750 C415.062 750 407.99 757.601 401.839 749.795 C398.214 745.196 334.207 664.409 293.951 643.77 C278.705 635.953 276.982 639.912 264.216 651.339 L264.216 651.339 Z M469 24.5051 L469 315 C469 454 409 525 319 525 C237.325 525 175.388 485.524 149.473 421.732 C148.267 418.763 138 419.698 138 422.903 L138 496 C138 509.799 126.799 521 113 521 C99.2007 521 88 509.799 88 496 L88 26 C88 12.2007 99.2007 1 113 1 C126.799 1 138 12.2007 138 26 L138 349 C138 451 210 519 317 519 C379 519 420 450 420 316 L420 25.5051 C420 11.9818 430.98 0.775928 444.5 0.5 C458.02 0.224072 469 10.9818 469 24.5051 L469 24.5051 Z " />
<glyph glyph-name="Omacron" unicode="&#x14c;" horiz-adv-x="814" d="M295.5 830 L540.5 830 C550.159 830 558 837.841 558 847.5 C558 857.159 550.159 865 540.5 865 L295.5 865 C285.841 865 278 857.159 278 847.5 C278 837.841 285.841 830 295.5 830 L295.5 830 Z M136 375 C136 590 257 752 418 752 C578 752 699 590 699 375 C699 149 587 -2 418 -2 C249 -2 136 149 136 375 L136 375 Z M76 375 C76 145 213 -9 418 -9 C623 -9 759 145 759 375 C759 594 612 759 418 759 C223 759 76 594 76 375 L76 375 Z " />
<glyph glyph-name="omacron" unicode="&#x14d;" horiz-adv-x="590" d="M181.5 600 L426.5 600 C436.159 600 444 607.841 444 617.5 C444 627.159 436.159 635 426.5 635 L181.5 635 C171.841 635 164 627.159 164 617.5 C164 607.841 171.841 600 181.5 600 L181.5 600 Z M122 260 C122 441 195 523 304 523 C429 523 485 418 485 260 C485 79 413 -3 304 -3 C178 -3 122 102 122 260 L122 260 Z M67 260 C67 99 140 -9 304 -9 C446 -9 540 74 540 260 C540 421 467 529 304 529 C162 529 67 446 67 260 L67 260 Z " />
<glyph glyph-name="Obreve" unicode="&#x14e;" horiz-adv-x="814" d="M279.933 928.766 C287.552 863.781 341.225 821 418 821 C494.775 821 548.448 863.781 556.067 928.766 C557.395 940.089 549.901 945 538.5 945 C530.337 945 519.757 933.956 518.119 925.959 C509.438 883.563 471.375 856 418 856 C364.625 856 326.563 883.563 317.881 925.959 C316.243 933.956 305.663 945 297.5 945 C286.099 945 278.605 940.089 279.933 928.766 L279.933 928.766 Z M136 375 C136 590 257 752 418 752 C578 752 699 590 699 375 C699 149 587 -2 418 -2 C249 -2 136 149 136 375 L136 375 Z M76 375 C76 145 213 -9 418 -9 C623 -9 759 145 759 375 C759 594 612 759 418 759 C223 759 76 594 76 375 L76 375 Z " />
<glyph glyph-name="obreve" unicode="&#x14f;" horiz-adv-x="590" d="M165.933 698.766 C173.552 633.781 227.225 591 304 591 C380.775 591 434.448 633.781 442.067 698.766 C443.395 710.089 435.901 715 424.5 715 C416.337 715 405.757 703.956 404.119 695.959 C395.438 653.563 357.375 626 304 626 C250.625 626 212.563 653.563 203.881 695.959 C202.243 703.956 191.663 715 183.5 715 C172.099 715 164.605 710.089 165.933 698.766 L165.933 698.766 Z M122 260 C122 441 195 523 304 523 C429 523 485 418 485 260 C485 79 413 -3 304 -3 C178 -3 122 102 122 260 L122 260 Z M67 260 C67 99 140 -9 304 -9 C446 -9 540 74 540 260 C540 421 467 529 304 529 C162 529 67 446 67 260 L67 260 Z " />
<glyph glyph-name="Racute" unicode="&#x154;" horiz-adv-x="624" d="M347 830 C358.045 830 375.894 840.401 381.339 850.011 L438.731 951.289 C446.544 965.077 437.847 980 422 980 C405.287 980 382.524 965.056 375.879 949.721 L333.145 851.104 C328.513 840.415 335.351 830 347 830 L347 830 Z M578 50 L450.072 311.26 C443.096 325.508 419.863 340 404 340 C388.128 340 379.076 325.507 386.04 311.244 L523.96 28.7557 C530.924 14.4926 554.128 0 570 0 L595.958 0 C598.994 0 600.756 2.73628 599.5 5.5 L597 11 L578.5 50.5 L578 50 Z M162 29 L162 283.56 C162 317.473 189.527 345 223.44 345 L399 345 C525 345 590 407 590 526 C590 675 525 751 399 751 L167.44 751 C133.527 751 106 723.473 106 689.56 L106 29 C106 13.5448 118.545 1 134 1 C149.455 1 162 13.5448 162 29 L162 29 Z M162 412.44 L162 705.5 C162 726.675 182.273 744.005 203.448 744.081 C269.918 744.319 341.425 745 400 745 C489 745 535 671 535 526 C535 411 489 352 400 352 C400 352 338.949 351.277 226.672 351.061 C192.694 350.995 162 378.461 162 412.44 L162 412.44 Z " />
<glyph glyph-name="racute" unicode="&#x155;" horiz-adv-x="370" d="M218.5 600 C229.305 600 246.766 610.175 252.093 619.575 L309.977 721.724 C317.672 735.303 309.107 750 293.5 750 C277.04 750 254.622 735.282 248.078 720.179 L204.946 620.645 C200.415 610.189 207.105 600 218.5 600 L218.5 600 Z M350 516 C350 518.208 348.208 520 346 520 L340 520 C231.1 520 171.205 462.828 147.4 369.82 C146.658 366.92 137 368.239 137 371.232 L137 494 C137 507.799 125.799 519 112 519 C98.2007 519 87 507.799 87 494 L87 24 C87 10.2007 98.2007 -1 112 -1 C125.799 -1 137 10.2007 137 24 L137 257 C137 409 194 511 339 511 C339.139 511 341.637 511.24 341.776 511.252 L346.016 511.638 C348.206 511.837 350 513.801 350 516 L350 516 Z " />
<glyph glyph-name="Rcaron" unicode="&#x158;" horiz-adv-x="624" d="M333.216 881.339 L240.137 964.66 C233.828 970.307 208.467 980 200 980 C190.872 980 186.641 970.026 192.986 963.463 L304.624 847.975 C311.52 840.841 337.078 830 347 830 C356.922 830 382.48 840.841 389.376 847.975 L501.014 963.463 C507.359 970.026 503.128 980 494 980 C484.062 980 476.99 987.601 470.839 979.795 C467.214 975.196 403.207 894.409 362.951 873.77 C347.705 865.953 345.982 869.912 333.216 881.339 L333.216 881.339 Z M578 50 L450.072 311.26 C443.096 325.508 419.863 340 404 340 C388.128 340 379.076 325.507 386.04 311.244 L523.96 28.7557 C530.924 14.4926 554.128 0 570 0 L595.958 0 C598.994 0 600.756 2.73628 599.5 5.5 L597 11 L578.5 50.5 L578 50 Z M162 29 L162 283.56 C162 317.473 189.527 345 223.44 345 L399 345 C525 345 590 407 590 526 C590 675 525 751 399 751 L167.44 751 C133.527 751 106 723.473 106 689.56 L106 29 C106 13.5448 118.545 1 134 1 C149.455 1 162 13.5448 162 29 L162 29 Z M162 412.44 L162 705.5 C162 726.675 182.273 744.005 203.448 744.081 C269.918 744.319 341.425 745 400 745 C489 745 535 671 535 526 C535 411 489 352 400 352 C400 352 338.949 351.277 226.672 351.061 C192.694 350.995 162 378.461 162 412.44 L162 412.44 Z " />
<glyph glyph-name="rcaron" unicode="&#x159;" horiz-adv-x="370" d="M205.167 651.284 L110.824 735.06 C104.658 740.536 79.7463 750 71.5 750 C62.5409 750 58.3775 740.232 64.582 733.769 L175.34 618.395 C182.372 611.071 208.346 600 218.5 600 C228.62 600 254.689 611.058 261.723 618.334 L373.014 733.463 C379.359 740.026 375.128 750 366 750 C356.062 750 348.99 757.601 342.839 749.795 C339.214 745.196 275.207 664.409 234.951 643.77 C219.702 635.951 217.98 639.906 205.167 651.284 L205.167 651.284 Z M350 516 C350 518.208 348.208 520 346 520 L340 520 C231.1 520 171.205 462.828 147.4 369.82 C146.658 366.92 137 368.239 137 371.232 L137 494 C137 507.799 125.799 519 112 519 C98.2007 519 87 507.799 87 494 L87 24 C87 10.2007 98.2007 -1 112 -1 C125.799 -1 137 10.2007 137 24 L137 257 C137 409 194 511 339 511 C339.139 511 341.637 511.24 341.776 511.252 L346.016 511.638 C348.206 511.837 350 513.801 350 516 L350 516 Z " />
<glyph glyph-name="Sacute" unicode="&#x15a;" horiz-adv-x="551" d="M266 830 C277.045 830 294.894 840.401 300.339 850.011 L357.731 951.289 C365.544 965.077 356.847 980 341 980 C324.287 980 301.524 965.056 294.879 949.721 L252.145 851.104 C247.513 840.415 254.351 830 266 830 L266 830 Z M465 609 L465 610 L465 609 L465 609 Z M467.239 612.761 L464 616 C464 616 338 760 245 760 C131 760 55 675 55 548 C55 450 128 386 271 359 C395 336 459 285 459 209 C459 83 407 -1 306 -1 C215 -1 122.75 60.5 65.75 183.5 C65.0791 184.948 64.6595 182.696 63.375 181.75 C62.0565 180.778 64.6901 172.281 65.4151 170.813 C123.651 52.84 214.35 -8 306 -8 C444 -8 515 79 515 210 C515 317 437 387 286 415 C171 436 112 484 112 555 C112 674 165 753 245 753 C296 753 376 703 464 605 C465.439 603.397 465.345 606.121 467 607.5 C468.649 608.874 468.757 611.243 467.239 612.761 L467.239 612.761 Z " />
<glyph glyph-name="sacute" unicode="&#x15b;" horiz-adv-x="509" d="M267 600 C278.045 600 295.894 610.401 301.339 620.011 L358.731 721.289 C366.544 735.077 357.847 750 342 750 C325.287 750 302.524 735.056 295.879 719.721 L253.145 621.104 C248.513 610.415 255.351 600 267 600 L267 600 Z M56 139 L56 139 L56 139 Z M456 378 L455 378 L455 381 L456 378 L456 378 Z M57 127 C93 48 178 -4 274 -4 C397 -4 479 54 479 141 C479 217 410 272 276 282 C174 289 122 329 122 383 C122 465 180 519 267 519 C338.175 519 410.301 463.864 449.083 381.397 C449.956 379.54 453.614 375.692 455.5 376.5 C457.423 377.324 458.179 379.506 457.177 381.343 L453 389 C413 471 339 525 266 525 C150 525 73 467 73 379 C73 303 138 247 263 238 C373 230 429 190 429 137 C429 55 367 1 273 1 C176 1 86.75 56.25 54.75 141.25 C54.2407 142.603 53.6815 140.744 52.375 140.125 L50 139 C51 136 56 130.5 56 127.5 L57 127 Z " />
<glyph glyph-name="Scircumflex" unicode="&#x15c;" horiz-adv-x="551" d="M281.951 936.23 C323.391 914.984 390 830 390 830 C390 830 386.919 830 413 830 C422.128 830 426.359 839.974 420.014 846.537 L308.376 962.025 C301.48 969.159 275.922 980 266 980 C256.078 980 230.52 969.159 223.624 962.025 L111.986 846.537 C105.641 839.974 109.872 830 119 830 C127.467 830 152.828 839.693 159.137 845.34 L252.216 928.661 C264.982 940.088 266.705 944.047 281.951 936.23 L281.951 936.23 Z M465 609 L465 610 L465 609 L465 609 Z M467.239 612.761 L464 616 C464 616 338 760 245 760 C131 760 55 675 55 548 C55 450 128 386 271 359 C395 336 459 285 459 209 C459 83 407 -1 306 -1 C215 -1 122.75 60.5 65.75 183.5 C65.0791 184.948 64.6595 182.696 63.375 181.75 C62.0565 180.778 64.6901 172.281 65.4151 170.813 C123.651 52.84 214.35 -8 306 -8 C444 -8 515 79 515 210 C515 317 437 387 286 415 C171 436 112 484 112 555 C112 674 165 753 245 753 C296 753 376 703 464 605 C465.439 603.397 465.345 606.121 467 607.5 C468.649 608.874 468.757 611.243 467.239 612.761 L467.239 612.761 Z " />
<glyph glyph-name="Scedilla" unicode="&#x15e;" horiz-adv-x="551" d="M271 -106 L271 -105 L271 -105 L271 -106 L271 -106 Z M314 -90 C340 -90 358 -111 358 -143 C358 -175 340 -197 313 -197 C286 -197 268.255 -189.881 266.372 -177.445 C266.347 -177.276 264.86 -178.55 264.833 -178.718 C260.81 -203.99 278.9 -221 314 -221 C357 -221 386 -190 386 -143 C386 -109 358 -86 315 -86 C298.85 -86 284.868 -89.6125 277.351 -94.9951 C276.686 -95.4714 275.34 -94.4529 275.629 -93.6877 L292.992 -47.7271 C299.267 -31.1175 329.793 -7.82983 347.386 -5.433 C459.49 9.84 517 92.1 517 210 C517 317 439 387 288 415 C173 436 114 484 114 555 C114 674 167 753 247 753 C298 753 378 703 466 605 C467.302 603.55 467.122 606.122 468.5 607.5 C469.88 608.88 469.88 611.12 468.5 612.5 L465 616 C465 616 339 760 246 760 C132 760 56 675 56 548 C56 450 129 386 272 359 C396 336 460 285 460 209 C460 83 408 -1 307 -1 C216 -1 123.75 60.5 66.75 183.5 C66.0791 184.948 65.6595 182.696 64.375 181.75 C63.0571 180.779 65.6147 172.427 66.3382 170.959 C113.282 75.6808 181.474 17.5868 254.53 -1.27519 C274.075 -6.32135 294.211 -32.8148 287.473 -51.8423 L270.743 -99.0793 C270.698 -99.205 271.82 -99.5824 271.917 -99.4907 C279 -92.7778 296.5 -90 314 -90 L314 -90 Z M465 610 L465 611 L465 610 L465 610 Z " />
<glyph glyph-name="scedilla" unicode="&#x15f;" horiz-adv-x="509" d="M238 -106 L238 -106 L238 -106 L238 -106 Z M281 -91 C307 -91 325 -112 325 -144 C325 -176 307 -198 280 -198 C253 -198 235.255 -190.881 233.372 -178.445 C233.347 -178.276 231.86 -179.55 231.833 -179.718 C227.81 -204.99 245.9 -222 281 -222 C324 -222 353 -191 353 -144 C353 -110 325 -87 282 -87 C264.857 -87 250.653 -90.6735 243.796 -96.1312 C243.318 -96.5118 242.243 -95.5259 242.449 -94.9504 L260.42 -44.7369 C266.681 -27.2445 300.36 -3.66333 318.793 -1.33789 C416.219 10.9531 479 64.875 479 141 C479 217 410 272 276 282 C174 289 122 329 122 383 C122 465 180 519 267 519 C338.175 519 410.301 463.864 449.083 381.397 C449.956 379.54 453.614 375.692 455.5 376.5 C457.423 377.324 458.179 379.506 457.177 381.343 L453 389 C413 471 339 525 266 525 C150 525 73 467 73 379 C73 303 138 247 263 238 C373 230 429 190 429 137 C429 55 367 1 273 1 C176 1 86.75 56.25 54.75 141.25 C54.2407 142.603 53.6815 140.744 52.375 140.125 L50 139 C51 136 55 131 55 128 C84.7 63.65 147.07 17.6769 221.334 2.99548 C242.402 -1.16955 261.478 -26.5919 254.446 -46.884 L236.709 -98.0676 C236.672 -98.1756 237.8 -98.6425 237.884 -98.5648 C244.875 -92.0833 262.167 -90 280.5 -90 L281 -91 Z M55 141 L55 141 L55 141 Z M455 380 L454 380 L454 383 L455 380 L455 380 Z " />
<glyph glyph-name="Scaron" unicode="&#x160;" horiz-adv-x="551" d="M252.216 881.339 L159.137 964.66 C152.828 970.307 127.467 980 119 980 C109.872 980 105.641 970.026 111.986 963.463 L223.624 847.975 C230.52 840.841 256.078 830 266 830 C275.922 830 301.48 840.841 308.376 847.975 L420.014 963.463 C426.359 970.026 422.128 980 413 980 C403.062 980 395.99 987.601 389.839 979.795 C386.214 975.196 322.207 894.409 281.951 873.77 C266.705 865.953 264.982 869.912 252.216 881.339 L252.216 881.339 Z M465 609 L465 610 L465 609 L465 609 Z M467.239 612.761 L464 616 C464 616 338 760 245 760 C131 760 55 675 55 548 C55 450 128 386 271 359 C395 336 459 285 459 209 C459 83 407 -1 306 -1 C215 -1 122.75 60.5 65.75 183.5 C65.0791 184.948 64.6595 182.696 63.375 181.75 C62.0565 180.778 64.6901 172.281 65.4151 170.813 C123.651 52.84 214.35 -8 306 -8 C444 -8 515 79 515 210 C515 317 437 387 286 415 C171 436 112 484 112 555 C112 674 165 753 245 753 C296 753 376 703 464 605 C465.439 603.397 465.345 606.121 467 607.5 C468.649 608.874 468.757 611.243 467.239 612.761 L467.239 612.761 Z " />
<glyph glyph-name="scaron" unicode="&#x161;" horiz-adv-x="509" d="M253.216 651.339 L160.137 734.66 C153.828 740.307 128.467 750 120 750 C110.872 750 106.641 740.026 112.986 733.463 L224.624 617.975 C231.52 610.841 257.078 600 267 600 C276.922 600 302.48 610.841 309.376 617.975 L421.014 733.463 C427.359 740.026 423.128 750 414 750 C404.062 750 396.99 757.601 390.839 749.795 C387.214 745.196 323.207 664.409 282.951 643.77 C267.705 635.953 265.982 639.912 253.216 651.339 L253.216 651.339 Z M56 139 L56 139 L56 139 Z M456 378 L455 378 L455 381 L456 378 L456 378 Z M57 127 C93 48 178 -4 274 -4 C397 -4 479 54 479 141 C479 217 410 272 276 282 C174 289 122 329 122 383 C122 465 180 519 267 519 C338.175 519 410.301 463.864 449.083 381.397 C449.956 379.54 453.614 375.692 455.5 376.5 C457.423 377.324 458.179 379.506 457.177 381.343 L453 389 C413 471 339 525 266 525 C150 525 73 467 73 379 C73 303 138 247 263 238 C373 230 429 190 429 137 C429 55 367 1 273 1 C176 1 86.75 56.25 54.75 141.25 C54.2407 142.603 53.6815 140.744 52.375 140.125 L50 139 C51 136 56 130.5 56 127.5 L57 127 Z " />
<glyph glyph-name="Tcaron" unicode="&#x164;" horiz-adv-x="595" d="M284.216 881.339 L191.137 964.66 C184.828 970.307 159.467 980 151 980 C141.872 980 137.641 970.026 143.986 963.463 L255.624 847.975 C262.52 840.841 288.078 830 298 830 C307.922 830 333.48 840.841 340.376 847.975 L452.014 963.463 C458.359 970.026 454.128 980 445 980 C435.062 980 427.99 987.601 421.839 979.795 C418.214 975.196 354.207 894.409 313.951 873.77 C298.705 865.953 296.982 869.912 284.216 881.339 L284.216 881.339 Z M581.5 750 L13.5 750 C11.5681 750 10 748.432 10 746.5 C10 744.568 11.5681 743 13.5 743 L208.56 743 C242.473 743 270 715.473 270 681.56 L270 27.5 C270 12.3208 282.321 0 297.5 0 C312.679 0 325 12.3208 325 27.5 L325 681.56 C325 715.473 352.527 743 386.44 743 L581.5 743 C583.432 743 585 744.568 585 746.5 C585 748.432 583.432 750 581.5 750 L581.5 750 Z " />
<glyph glyph-name="tcaron" unicode="&#x165;" horiz-adv-x="345" d="M220.025 732.072 L212.353 627.45 C211.608 617.294 219.316 609 229.5 609 C239.538 609 249.553 617.318 251.395 627.186 L271.046 732.458 C273.734 746.86 263.65 759 249 759 C234.137 759 221.112 746.896 220.025 732.072 L220.025 732.072 Z M312 520 L233.44 520 C199.527 520 172 547.527 172 581.44 L172 664.35 C172 678.15 157.566 684.876 147 676 L143.922 673.415 C134.657 665.632 122 638.47 122 626.37 L122 576 C122 545.09 96.9103 520 66 520 L13 520 C11.3441 520 10 518.656 10 517 C10 515.344 11.3441 514 13 514 L66 514 C96.9103 514 122 488.91 122 458 L122 137 C122 34 126 0 219 0 L312 0 C313.656 0 315 1.34409 315 3 C315 4.65591 313.656 6 312 6 L222 6 C174 6 172 39 172 137 L172 452.56 C172 486.473 199.527 514 233.44 514 L312 514 C313.656 514 315 515.344 315 517 C315 518.656 313.656 520 312 520 L312 520 Z " />
<glyph glyph-name="Utilde" unicode="&#x168;" horiz-adv-x="647" d="M253.901 837.572 C257.166 866.101 269.077 884 286 884 C312 884 351 812 383 812 C382 812 380 851 380 851 C380 851 381.487 831.669 381.498 831.532 L381.5 831.5 C382.658 816.452 388.611 810.114 402.649 815.654 C427.83 825.592 444.549 855.148 448.232 896.321 C449.196 907.099 441.821 914 431 914 C422.401 914 412.935 903.385 411.778 894.864 C408.796 872.9 400.515 857.67 388.712 852.731 C381.088 849.541 385.437 845.016 379.88 851.133 C376.771 854.555 314.2 923 283 923 C283.818 923 284.636 916.306 285.455 908.394 C285.469 908.257 285.756 907.881 285.749 908.019 L285.5 913 C285.179 919.426 282.579 923.326 276.225 922.317 C244.899 917.341 223.136 885.531 218.796 838.679 C217.823 828.174 224.95 821 235.5 821 C244.061 821 252.928 829.066 253.901 837.572 L253.901 837.572 Z M561 746 L561 296 C561 100 484 -1 335 -1 C217 -1 156 102 156 302 L156 722 C156 737.455 143.455 750 128 750 C112.545 750 100 737.455 100 722 L100 293 C100 94 180 -9 335 -9 C489 -9 569 94 569 295 L569 746 C569 748.208 567.208 750 565 750 C562.792 750 561 748.208 561 746 L561 746 Z " />
<glyph glyph-name="utilde" unicode="&#x169;" horiz-adv-x="519" d="M186.901 616.572 C190.166 645.101 202.077 663 219 663 C245 663 284 591 316 591 C315 591 313 630 313 630 C313 630 314.487 610.669 314.498 610.532 L314.5 610.5 C315.658 595.452 321.611 589.114 335.649 594.654 C360.83 604.592 377.549 634.148 381.232 675.321 C382.196 686.099 374.821 693 364 693 C355.401 693 345.935 682.385 344.778 673.864 C341.796 651.9 333.515 636.67 321.712 631.731 C314.088 628.541 318.437 624.016 312.88 630.133 C309.771 633.555 247.2 702 216 702 C216.818 702 217.636 695.306 218.455 687.394 C218.469 687.257 218.756 686.881 218.749 687.019 L218.5 692 C218.179 698.426 215.579 702.326 209.225 701.317 C177.899 696.341 156.136 664.531 151.796 617.679 C150.823 607.174 157.95 600 168.5 600 C177.061 600 185.928 608.066 186.901 616.572 L186.901 616.572 Z M451 25.005 L451 495 C451 508.799 439.799 520 426 520 C412.201 520 401 508.799 401 495 L401 149 C401 58 344 -2 258 -2 C161 -2 134 57 134 172 L134 495 C134 508.799 122.799 520 109 520 C95.2007 520 84 508.799 84 495 L84 172 C84 53 122 -9 255 -9 C320.175 -9 369.696 25.0312 391.209 80.7404 C392.271 83.4908 401 82.5625 401 79.6141 L401 24.005 C401 10.2057 412.204 -0.77593 426 -0.5 C439.796 -0.22407 451 11.2057 451 25.005 L451 25.005 Z " />
<glyph glyph-name="Umacron" unicode="&#x16a;" horiz-adv-x="647" d="M210.5 821 L455.5 821 C465.159 821 473 828.841 473 838.5 C473 848.159 465.159 856 455.5 856 L210.5 856 C200.841 856 193 848.159 193 838.5 C193 828.841 200.841 821 210.5 821 L210.5 821 Z M559 746 L559 296 C559 100 482 -1 333 -1 C215 -1 154 102 154 302 L154 722 C154 737.455 141.455 750 126 750 C110.545 750 98 737.455 98 722 L98 293 C98 94 178 -9 333 -9 C487 -9 567 94 567 295 L567 746 C567 748.208 565.208 750 563 750 C560.792 750 559 748.208 559 746 L559 746 Z " />
<glyph glyph-name="umacron" unicode="&#x16b;" horiz-adv-x="519" d="M143.5 600 L388.5 600 C398.159 600 406 607.841 406 617.5 C406 627.159 398.159 635 388.5 635 L143.5 635 C133.841 635 126 627.159 126 617.5 C126 607.841 133.841 600 143.5 600 L143.5 600 Z M449 25.005 L449 495 C449 508.799 437.799 520 424 520 C410.201 520 399 508.799 399 495 L399 149 C399 58 342 -2 256 -2 C159 -2 132 57 132 172 L132 495 C132 508.799 120.799 520 107 520 C93.2007 520 82 508.799 82 495 L82 172 C82 53 120 -9 253 -9 C318.175 -9 367.696 25.0312 389.209 80.7404 C390.271 83.4908 399 82.5625 399 79.6141 L399 24.005 C399 10.2057 410.204 -0.77593 424 -0.5 C437.796 -0.22407 449 11.2057 449 25.005 L449 25.005 Z " />
<glyph glyph-name="Ubreve" unicode="&#x16c;" horiz-adv-x="647" d="M193.933 919.766 C201.558 854.781 255.3 812 333 812 C409.775 812 463.448 854.781 471.067 919.766 C472.395 931.089 464.901 936 453.5 936 C445.337 936 434.757 924.956 433.119 916.959 C424.438 874.563 386.375 847 333 847 C278.75 847 240.578 874.563 231.883 916.959 C230.243 924.952 219.66 936 211.5 936 C200.099 936 192.605 931.09 193.933 919.766 L193.933 919.766 Z M559 746 L559 296 C559 100 482 -1 333 -1 C215 -1 154 102 154 302 L154 722 C154 737.455 141.455 750 126 750 C110.545 750 98 737.455 98 722 L98 293 C98 94 178 -9 333 -9 C487 -9 567 94 567 295 L567 746 C567 748.208 565.208 750 563 750 C560.792 750 559 748.208 559 746 L559 746 Z " />
<glyph glyph-name="ubreve" unicode="&#x16d;" horiz-adv-x="519" d="M126.933 698.766 C134.558 633.781 188.3 591 266 591 C342.775 591 396.448 633.781 404.067 698.766 C405.395 710.089 397.901 715 386.5 715 C378.337 715 367.757 703.956 366.119 695.959 C357.438 653.563 319.375 626 266 626 C211.75 626 173.578 653.563 164.883 695.959 C163.243 703.952 152.66 715 144.5 715 C133.099 715 125.605 710.09 126.933 698.766 L126.933 698.766 Z M449 25.005 L449 495 C449 508.799 437.799 520 424 520 C410.201 520 399 508.799 399 495 L399 149 C399 58 342 -2 256 -2 C159 -2 132 57 132 172 L132 495 C132 508.799 120.799 520 107 520 C93.2007 520 82 508.799 82 495 L82 172 C82 53 120 -9 253 -9 C318.175 -9 367.696 25.0312 389.209 80.7404 C390.271 83.4908 399 82.5625 399 79.6141 L399 24.005 C399 10.2057 410.204 -0.77593 424 -0.5 C437.796 -0.22407 449 11.2057 449 25.005 L449 25.005 Z " />
<glyph glyph-name="Uring" unicode="&#x16e;" horiz-adv-x="647" d="M277 906 C277 944 298 967 333 967 C368 967 388 944 388 906 C388 865 369 844 333 844 C296 844 277 865 277 906 L277 906 Z M252 906 C252 850 280 821 333 821 C386 821 413 850 413 906 C413 959 383 990 333 990 C282 990 252 959 252 906 L252 906 Z M559 746 L559 296 C559 100 482 -1 333 -1 C215 -1 154 102 154 302 L154 722 C154 737.455 141.455 750 126 750 C110.545 750 98 737.455 98 722 L98 293 C98 94 178 -9 333 -9 C487 -9 567 94 567 295 L567 746 C567 748.208 565.208 750 563 750 C560.792 750 559 748.208 559 746 L559 746 Z " />
<glyph glyph-name="uring" unicode="&#x16f;" horiz-adv-x="519" d="M210 685 C210 723 231 746 266 746 C301 746 321 723 321 685 C321 644 302 623 266 623 C229 623 210 644 210 685 L210 685 Z M185 685 C185 629 213 600 266 600 C319 600 346 629 346 685 C346 738 316 769 266 769 C215 769 185 738 185 685 L185 685 Z M449 25.005 L449 495 C449 508.799 437.799 520 424 520 C410.201 520 399 508.799 399 495 L399 149 C399 58 342 -2 256 -2 C159 -2 132 57 132 172 L132 495 C132 508.799 120.799 520 107 520 C93.2007 520 82 508.799 82 495 L82 172 C82 53 120 -9 253 -9 C318.175 -9 367.696 25.0312 389.209 80.7404 C390.271 83.4908 399 82.5625 399 79.6141 L399 24.005 C399 10.2057 410.204 -0.77593 424 -0.5 C437.796 -0.22407 449 11.2057 449 25.005 L449 25.005 Z " />
<glyph glyph-name="Wcircumflex" unicode="&#x174;" horiz-adv-x="732" d="M392.951 936.23 C434.391 914.984 501 830 501 830 C501 830 497.919 830 524 830 C533.128 830 537.359 839.974 531.014 846.537 L419.723 961.666 C412.689 968.942 386.62 980 376.5 980 C366.346 980 340.372 968.929 333.34 961.605 L222.582 846.231 C216.377 839.768 220.541 830 229.5 830 C237.746 830 262.658 839.464 268.824 844.94 L363.167 928.716 C375.98 940.094 377.702 944.049 392.951 936.23 L392.951 936.23 Z M712.159 745.364 C709.281 729.917 705.727 714.545 703 700 L630.041 325.881 C617.538 261.769 522.061 261.69 509.453 325.782 L431.212 723.508 C428.389 737.856 413.623 750 399 750 C384.373 750 369.628 737.856 366.823 723.501 L290.538 333.007 C277.994 268.792 181.908 269.156 169.85 333.464 L100 706 L96 724 L93.5 736.5 C92.1469 743.266 85.1521 749 78.2525 749 L61 749 C44.7501 749 33.6447 735.507 36.7702 719.56 L172.807 25.4959 C175.62 11.144 190.375 -1 205 -1 C219.615 -1 234.422 11.1455 237.281 25.4785 L316.747 423.903 C329.506 487.874 424.494 487.874 437.253 423.903 L516.817 24.9881 C519.622 10.9205 534.155 -1 548.5 -1 C562.85 -1 577.352 10.9197 580.13 24.9986 L722.027 744.07 C722.562 746.779 720.747 749.225 718 749.5 C715.276 749.772 712.66 748.056 712.159 745.364 L712.159 745.364 Z " />
<glyph glyph-name="Ycircumflex" unicode="&#x176;" horiz-adv-x="597" d="M326.951 936.23 C368.391 914.984 435 830 435 830 C435 830 431.919 830 458 830 C467.128 830 471.359 839.974 465.014 846.537 L353.376 962.025 C346.48 969.159 320.922 980 311 980 C301.078 980 275.52 969.159 268.624 962.025 L156.986 846.537 C150.641 839.974 154.872 830 164 830 C172.467 830 197.828 839.693 204.137 845.34 L297.216 928.661 C309.982 940.088 311.705 944.047 326.951 936.23 L326.951 936.23 Z M39.8 741.844 C48.2 727.586 56.6 713.44 65 700 L280.119 344.67 C282.657 340.477 289 317.753 289 312.851 L289 28 C289 12.5448 301.545 0 317 0 C332.455 0 345 12.5448 345 28 L345 332.816 C345 337.727 353.098 363.35 355.643 367.55 C423.003 478.697 489.55 589.8 557 700 L584.942 746.57 C585.916 748.193 584.893 750 583 750 C581.112 750 577.905 748.194 576.927 746.579 L341.332 357.848 C340.231 356.032 336.624 354 334.5 354 C332.371 354 328.779 356.032 327.682 357.857 L106.681 725.572 C99.7356 737.129 76.9833 750 63.5 750 L44.8615 750 C40.168 750 37.4176 745.888 39.8 741.844 L39.8 741.844 Z " />
<glyph glyph-name="Ydieresis" unicode="&#x178;" horiz-adv-x="597" d="M380 830 C396.559 830 410 843.441 410 860 C410 876.559 396.559 890 380 890 C363.441 890 350 876.559 350 860 C350 843.441 363.441 830 380 830 L380 830 Z M242 830 C258.559 830 272 843.441 272 860 C272 876.559 258.559 890 242 890 C225.441 890 212 876.559 212 860 C212 843.441 225.441 830 242 830 L242 830 Z M39.8 741.844 C48.2 727.586 56.6 713.44 65 700 L280.119 344.67 C282.657 340.477 289 317.753 289 312.851 L289 28 C289 12.5448 301.545 0 317 0 C332.455 0 345 12.5448 345 28 L345 332.816 C345 337.727 353.098 363.35 355.643 367.55 C423.003 478.697 489.55 589.8 557 700 L584.942 746.57 C585.916 748.193 584.893 750 583 750 C581.112 750 577.905 748.194 576.927 746.579 L341.332 357.848 C340.231 356.032 336.624 354 334.5 354 C332.371 354 328.779 356.032 327.682 357.857 L106.681 725.572 C99.7356 737.129 76.9833 750 63.5 750 L44.8615 750 C40.168 750 37.4176 745.888 39.8 741.844 L39.8 741.844 Z " />
<glyph glyph-name="Zacute" unicode="&#x179;" horiz-adv-x="655" d="M335 830 C346.045 830 363.894 840.401 369.339 850.011 L426.731 951.289 C434.544 965.077 425.847 980 410 980 C393.287 980 370.524 965.056 363.879 949.721 L321.145 851.104 C316.513 840.415 323.351 830 335 830 L335 830 Z M606.5 7 L224.277 7 C171.255 7 143.642 59.2566 173.519 103.06 L608.028 740.109 C608.641 741.008 610 745.411 610 746.5 C610 748.432 608.432 750 606.5 750 L63.5 750 C61.5681 750 60 748.432 60 746.5 C60 744.568 61.5681 743 63.5 743 L430.723 743 C483.745 743 511.358 690.743 481.481 646.94 L46.9722 9.89146 C46.3588 8.99215 45 4.58858 45 3.5 C45 1.5681 46.5681 0 48.5 0 L606.5 0 C608.432 0 610 1.5681 610 3.5 C610 5.4319 608.432 7 606.5 7 L606.5 7 Z " />
<glyph glyph-name="zacute" unicode="&#x17a;" horiz-adv-x="460" d="M242.5 600 C253.305 600 270.766 610.175 276.093 619.575 L333.977 721.724 C341.672 735.303 333.107 750 317.5 750 C301.04 750 278.622 735.282 272.078 720.179 L228.946 620.645 C224.415 610.189 231.105 600 242.5 600 L242.5 600 Z M415 70.5 C415.414 70.5 415.425 71.2373 415.011 71.2497 L414.989 71.2503 C414.575 71.2627 414.586 70.5 415 70.5 L415 70.5 Z M48 514 L145 514 C238 514 333 513 424 515 L424 520 L48 520 C46.3441 520 45 518.656 45 517 C45 515.344 46.3441 514 48 514 L48 514 Z M30 5 L30 0 L437 0 C438.656 0 440 1.34409 440 3 C440 4.65465 432.203 6.00239 430.548 6.00366 C310.802 6.09509 190.222 7.85616 71.3787 6.14259 C70.3899 6.12834 74.0226 7.84963 75 8 C80.3002 8.81542 92.3154 16.4859 95.2859 20.9506 L407.638 490.408 C414.893 501.313 407.581 514.165 394.5 513.5 C381.388 512.833 355.954 498.309 348.716 487.356 L30 5 L30 5 Z " />
<glyph glyph-name="Zdot" unicode="&#x17b;" horiz-adv-x="655" d="M335 830 C351.559 830 365 843.441 365 860 C365 876.559 351.559 890 335 890 C318.441 890 305 876.559 305 860 C305 843.441 318.441 830 335 830 L335 830 Z M606.5 7 L224.277 7 C171.255 7 143.642 59.2566 173.519 103.06 L608.028 740.109 C608.641 741.008 610 745.411 610 746.5 C610 748.432 608.432 750 606.5 750 L63.5 750 C61.5681 750 60 748.432 60 746.5 C60 744.568 61.5681 743 63.5 743 L430.723 743 C483.745 743 511.358 690.743 481.481 646.94 L46.9722 9.89146 C46.3588 8.99215 45 4.58858 45 3.5 C45 1.5681 46.5681 0 48.5 0 L606.5 0 C608.432 0 610 1.5681 610 3.5 C610 5.4319 608.432 7 606.5 7 L606.5 7 Z " />
<glyph glyph-name="zdot" unicode="&#x17c;" horiz-adv-x="460" d="M243 600 C259.559 600 273 613.441 273 630 C273 646.559 259.559 660 243 660 C226.441 660 213 646.559 213 630 C213 613.441 226.441 600 243 600 L243 600 Z M415 70.5 C415.414 70.5 415.425 71.2373 415.011 71.2497 L414.989 71.2503 C414.575 71.2627 414.586 70.5 415 70.5 L415 70.5 Z M48 514 L145 514 C238 514 333 513 424 515 L424 520 L48 520 C46.3441 520 45 518.656 45 517 C45 515.344 46.3441 514 48 514 L48 514 Z M30 5 L30 0 L437 0 C438.656 0 440 1.34409 440 3 C440 4.65465 432.203 6.00239 430.548 6.00366 C310.802 6.09509 190.222 7.85616 71.3787 6.14259 C70.3899 6.12834 74.0226 7.84963 75 8 C80.3002 8.81542 92.3154 16.4859 95.2859 20.9506 L407.638 490.408 C414.893 501.313 407.581 514.165 394.5 513.5 C381.388 512.833 355.954 498.309 348.716 487.356 L30 5 L30 5 Z " />
<glyph glyph-name="Zcaron" unicode="&#x17d;" horiz-adv-x="655" d="M321.216 881.339 L228.137 964.66 C221.828 970.307 196.467 980 188 980 C178.872 980 174.641 970.026 180.986 963.463 L292.624 847.975 C299.52 840.841 325.078 830 335 830 C344.922 830 370.48 840.841 377.376 847.975 L489.014 963.463 C495.359 970.026 491.128 980 482 980 C472.062 980 464.99 987.601 458.839 979.795 C455.214 975.196 391.207 894.409 350.951 873.77 C335.705 865.953 333.982 869.912 321.216 881.339 L321.216 881.339 Z M606.5 7 L224.277 7 C171.255 7 143.642 59.2566 173.519 103.06 L608.028 740.109 C608.641 741.008 610 745.411 610 746.5 C610 748.432 608.432 750 606.5 750 L63.5 750 C61.5681 750 60 748.432 60 746.5 C60 744.568 61.5681 743 63.5 743 L430.723 743 C483.745 743 511.358 690.743 481.481 646.94 L46.9722 9.89146 C46.3588 8.99215 45 4.58858 45 3.5 C45 1.5681 46.5681 0 48.5 0 L606.5 0 C608.432 0 610 1.5681 610 3.5 C610 5.4319 608.432 7 606.5 7 L606.5 7 Z " />
<glyph glyph-name="zcaron" unicode="&#x17e;" horiz-adv-x="460" d="M229.167 651.284 L134.824 735.06 C128.658 740.536 103.746 750 95.5 750 C86.5409 750 82.3775 740.232 88.582 733.769 L199.34 618.395 C206.372 611.071 232.346 600 242.5 600 C252.62 600 278.689 611.058 285.723 618.334 L397.014 733.463 C403.359 740.026 399.128 750 390 750 C380.062 750 372.99 757.601 366.839 749.795 C363.214 745.196 299.207 664.409 258.951 643.77 C243.702 635.951 241.98 639.906 229.167 651.284 L229.167 651.284 Z M415 70.5 C415.414 70.5 415.425 71.2373 415.011 71.2497 L414.989 71.2503 C414.575 71.2627 414.586 70.5 415 70.5 L415 70.5 Z M48 514 L145 514 C238 514 333 513 424 515 L424 520 L48 520 C46.3441 520 45 518.656 45 517 C45 515.344 46.3441 514 48 514 L48 514 Z M30 5 L30 0 L437 0 C438.656 0 440 1.34409 440 3 C440 4.65465 432.203 6.00239 430.548 6.00366 C310.802 6.09509 190.222 7.85616 71.3787 6.14259 C70.3899 6.12834 74.0226 7.84963 75 8 C80.3002 8.81542 92.3154 16.4859 95.2859 20.9506 L407.638 490.408 C414.893 501.313 407.581 514.165 394.5 513.5 C381.388 512.833 355.954 498.309 348.716 487.356 L30 5 L30 5 Z " />
<glyph glyph-name="oogonek" unicode="&#x1eb;" horiz-adv-x="754" d="M131 298 C131 470 242 600 389 600 C535 600 646 470 646 298 C646 159.3 585.532 56.7 488.604 15.9213 C482.523 13.3628 467.838 12.6705 462.118 15.9583 C444.413 26.1351 428.973 37.5076 417.373 49.5515 C416.308 50.6583 415.087 50.0866 414 49 C412.89 47.8902 412.448 46.5484 413.564 45.4445 C424.567 34.5567 436.757 23.6913 449.665 13.3188 C453.367 10.3437 452.839 4.36233 448.203 3.33091 C429.232 -0.889698 408.968 -3 388 -3 C233 -3 130.5 117 130.5 298 L131 298 Z M77 298 C77 114 201 -9 388 -9 C411.2 -9 433.713 -6.94041 454.972 -3.39006 C459.327 -2.6626 476.256 -6.65895 479.942 -9.09087 C556.068 -59.315 640 -90 640 -90 C640 -90 641.711 -88.3483 654.5 -76 C661.242 -69.4908 677.913 -64.1664 668.807 -61.9533 C664.711 -60.9578 596.103 -44.1063 528.519 -16.0068 C513.329 -9.69101 507.608 10.6395 522.797 16.958 C631.58 62.21 698 164 698 299 C698 475 565 607 388 607 C211 607 77 474.5 77 298.5 L77 298 Z " />
<glyph glyph-name="Adotabove" unicode="&#x226;" horiz-adv-x="738" d="M386 830 C402.559 830 416 843.441 416 860 C416 876.559 402.559 890 386 890 C369.441 890 356 876.559 356 860 C356 843.441 369.441 830 386 830 L386 830 Z M577.786 216.279 L648 48.5 L658.5 24.25 C663.819 11.9667 682.04 0 695.426 0 L715.537 0 C722.437 0 726.562 6.09386 724 12.5 L719 25 C715 36 711 44 709 48 L427.748 721.853 C421.764 736.191 401.036 750 385.5 750 L381.426 750 C368.04 750 349.819 738.033 344.5 725.75 L334 701.5 L61 47 L51 25 L42.6713 4.17815 C41.8148 2.03688 43.1938 0 45.5 0 C47.7794 0 50.8823 2.03781 51.788 4.12952 L71 48.5 L141.214 216.279 C149.252 235.486 177.07 254 197.891 254 L521.109 254 C541.93 254 569.748 235.486 577.786 216.279 L577.786 216.279 Z M194.264 344.987 L302.251 605.236 C324.428 658.681 393.572 658.681 415.749 605.236 L523.736 344.987 C541.714 301.659 513.897 260 466.987 260 L251.013 260 C204.103 260 176.286 301.659 194.264 344.987 L194.264 344.987 Z " />
<glyph glyph-name="G_sc" unicode="&#x262;" horiz-adv-x="704" d="M455 336 L590.56 336 C624.473 336 652 308.473 652 274.56 L652 137.685 C652 124.255 638.344 97.6945 627.64 89.583 C553.57 33.45 471.4 -3 403 -3 C237 -3 126 117 126 298 C126 479 237 600 403 600 C477 600 568 528 630 420 C630.938 418.366 631.168 421.168 632.5 422.5 C633.864 423.864 631.214 431.453 630.219 433.105 C567.361 537.555 477.1 606 403 606 C205 606 73 483 73 298 C73 114 205 -9 403 -9 C474.1 -9 558.16 28.26 634.039 85.284 C644.862 93.4179 659 120.328 659 133.867 L659 280.56 C659 314.473 631.473 342 597.56 342 L455 342 C453.344 342 452 340.656 452 339 C452 337.344 453.344 336 455 336 L455 336 Z M632 425 L630 425 L630 428 L632 425 L632 425 Z " />
<glyph glyph-name="I_sc" unicode="&#x26a;" horiz-adv-x="224" d="M139 25 L139 572 C139 585.799 127.799 597 114 597 C100.201 597 89 585.799 89 572 L89 25 C89 11.2007 100.201 0 114 0 C127.799 0 139 11.2008 139 25 L139 25 Z " />
<glyph glyph-name="N_sc" unicode="&#x274;" horiz-adv-x="574" d="M125 4 L125 336.658 C125 400.482 210.549 421.905 240.629 365.615 L423.511 23.3723 C429.591 11.9941 449.599 0 462.5 0 C477.127 0 489 11.8728 489 26.5 L489 593 C489 595.208 487.208 597 485 597 C482.792 597 481 595.208 481 593 L481 253.852 C481 190.013 395.375 168.615 365.343 224.949 L178.761 574.939 C173.032 585.684 154.177 597 142 597 C128.201 597 117 585.799 117 572 L117 4 C117 1.79212 118.792 0 121 0 C123.208 0 125 1.79212 125 4 L125 4 Z " />
<glyph glyph-name="R_sc" unicode="&#x280;" horiz-adv-x="564" d="M512 0 C525.726 0 533.142 13.0973 526.08 24.8673 L390.663 250.561 C383.723 262.128 360.989 275 347.5 275 C333.989 275 326.677 262.126 333.598 250.522 L468.146 24.9072 C475.188 13.0994 498.252 0 512 0 L512 0 Z M157 25.5 L157 217.56 C157 251.473 184.527 279 218.44 279 L343 279 C466 279 529 326 529 418 C529 536 466 597 343 597 L167.44 597 C133.527 597 106 569.473 106 535.56 L106 25.5 C106 11.4248 117.425 0 131.5 0 C145.575 0 157 11.4248 157 25.5 L157 25.5 Z M157 346.44 L157 529.56 C157 563.473 184.527 591 218.44 591 L343 591 C432 591 478 532 478 418 C478 330 432 285 343 285 L218.44 285 C184.527 285 157 312.527 157 346.44 L157 346.44 Z " />
<glyph glyph-name="Y_sc" unicode="&#x28f;" horiz-adv-x="537" d="M77.5 547 L247.368 347.209 C252.6 341.056 262 315.488 262 307.411 L262 25 C262 11.2007 273.201 0 287 0 C300.799 0 312 11.2007 312 25 L312 329.787 C312 338.26 321.747 364.058 327.349 370.414 L483 547 C483 547 495 560 507 574 L523.063 592.472 C524.831 594.506 523.65 597.118 521.003 596.613 C515.133 595.493 514.053 591.421 503 578 L311.97 361.499 C310.327 359.637 304.483 357 302 357 C299.471 357 293.758 359.65 292.125 361.581 L111.405 575.24 C103.649 584.41 76.5108 597 64.5 597 L42.7268 597 C39.9991 597 38.9889 593.608 40.7606 591.534 C52.4441 577.856 74.0556 551.306 77.5 547 L77.5 547 Z " />
<glyph glyph-name="B_sc" unicode="&#x299;" horiz-adv-x="631" d="M435.518 340.493 C512.037 356.49 559 391.8 559 438 C559 552 490 597 314 597 L167.44 597 C133.527 597 106 569.473 106 535.56 L106 61.44 C106 27.527 133.527 0 167.44 0 L351 0 C527 0 596 49 596 174 C596 253.9 534.587 312.125 437.556 328.409 C434.965 328.844 432.946 339.955 435.518 340.493 L435.518 340.493 Z M157 395.44 L157 529.56 C157 563.473 184.527 591 218.44 591 L314 591 C453 591 507 547 507 435 C507 374 437 334 331 334 L218.44 334 C184.527 334 157 361.527 157 395.44 L157 395.44 Z M157 67.44 L157 266.56 C157 300.473 184.527 328 218.44 328 L376 328 C476 328 542 269 542 180 C542 55 488 6 349 6 L218.44 6 C184.527 6 157 33.527 157 67.44 L157 67.44 Z " />
<glyph glyph-name="H_sc" unicode="&#x29c;" horiz-adv-x="627" d="M542 25 L542 572 C542 585.799 530.799 597 517 597 C503.201 597 492 585.799 492 572 L492 367.44 C492 333.527 464.473 306 430.56 306 L218.44 306 C184.527 306 157 333.527 157 367.44 L157 571.5 C157 585.575 145.575 597 131.5 597 C117.425 597 106 585.575 106 571.5 L106 25.5 C106 11.4248 117.425 0 131.5 0 C145.575 0 157 11.4248 157 25.5 L157 238.56 C157 272.473 184.527 300 218.44 300 L430.56 300 C464.473 300 492 272.473 492 238.56 L492 25 C492 11.2007 503.201 0 517 0 C530.799 0 542 11.2008 542 25 L542 25 Z " />
<glyph glyph-name="L_sc" unicode="&#x29f;" horiz-adv-x="434" d="M401 6 L200.44 6 C166.527 6 139 33.527 139 67.44 L139 572 C139 585.799 127.799 597 114 597 C100.201 597 89 585.799 89 572 L89 61.44 C89 27.527 116.527 0 150.44 0 L401 0 C402.656 0 404 1.34409 404 3 C404 4.65591 402.656 6 401 6 L401 6 Z " />
<glyph glyph-name="circumflex" unicode="&#x2c6;" horiz-adv-x="340" d="M185.951 706.23 C227.391 684.984 294 600 294 600 C294 600 290.919 600 317 600 C326.128 600 330.359 609.974 324.014 616.537 L212.376 732.025 C205.48 739.159 179.922 750 170 750 C160.078 750 134.52 739.159 127.624 732.025 L15.9855 616.537 C9.6415 609.974 13.8722 600 23 600 C31.4674 600 56.828 609.693 63.1369 615.34 L156.216 698.661 C168.982 710.088 170.705 714.047 185.951 706.23 L185.951 706.23 Z " />
<glyph glyph-name="caron" unicode="&#x2c7;" horiz-adv-x="340" d="M156.216 651.339 L63.1369 734.66 C56.828 740.307 31.4674 750 23 750 C13.8722 750 9.6415 740.026 15.9855 733.463 L127.624 617.975 C134.52 610.841 160.078 600 170 600 C179.922 600 205.48 610.841 212.376 617.975 L324.014 733.463 C330.359 740.026 326.128 750 317 750 C307.062 750 299.99 757.601 293.839 749.795 C290.214 745.196 226.207 664.409 185.951 643.77 C170.705 635.953 168.982 639.912 156.216 651.339 L156.216 651.339 Z " />
<glyph glyph-name="firsttonechinese" unicode="&#x2c9;" horiz-adv-x="340" d="M47.5 600 L292.5 600 C302.159 600 310 607.841 310 617.5 C310 627.159 302.159 635 292.5 635 L47.5 635 C37.8405 635 30 627.159 30 617.5 C30 607.841 37.8405 600 47.5 600 L47.5 600 Z " />
<glyph glyph-name="breve" unicode="&#x2d8;" horiz-adv-x="340" d="M31.9328 698.766 C39.5519 633.781 93.225 591 170 591 C246.775 591 300.448 633.781 308.067 698.766 C309.395 710.089 301.901 715 290.5 715 C282.337 715 271.757 703.956 270.119 695.959 C261.438 653.563 223.375 626 170 626 C116.625 626 78.5625 653.563 69.8809 695.959 C68.2433 703.956 57.6629 715 49.5 715 C38.0995 715 30.6052 710.089 31.9328 698.766 L31.9328 698.766 Z " />
<glyph glyph-name="dotaccent" unicode="&#x2d9;" horiz-adv-x="340" d="M170 600 C186.559 600 200 613.441 200 630 C200 646.559 186.559 660 170 660 C153.441 660 140 646.559 140 630 C140 613.441 153.441 600 170 600 L170 600 Z " />
<glyph glyph-name="ring" unicode="&#x2da;" horiz-adv-x="340" d="M114 685 C114 723 135 746 170 746 C205 746 226 723 226 685 C226 644 207 623 170 623 C133 623 114 644 114 685 L114 685 Z M90 685 C90 629 117 600 170 600 C223 600 250 629 250 685 C250 738 220 769 170 769 C120 769 90 738 90 685 L90 685 Z " />
<glyph glyph-name="A_sc" unicode="&#x1d00;" horiz-adv-x="676" d="M74 50 L129.313 166.004 C137.627 183.44 165.454 201 184.771 201 L514.646 201 C516.302 201 517.241 202.519 516.5 204 C515.759 205.481 513.302 207 511.646 207 L245.231 207 C196.76 207 168.932 251.038 189.741 294.816 L275.657 475.568 C299.385 525.488 362.752 525.553 386.583 475.683 L590 50 C590 50 604.792 18.8581 611.708 4.6611 C612.937 2.13818 616.784 0 619.59 0 L651.017 0 C658.468 0 662.733 6.7861 659.5 13.5 L653 27 L644 47 L391.684 572.659 C385.87 584.771 366.436 597 353 597 L329.808 597 C327.964 597 325.164 595.114 324.387 593.442 C318.593 580.975 302 547 302 547 L43.7172 3.61266 C42.8611 1.81168 44.0059 0 46 0 L46.1921 0 C48.0361 0 50.8359 1.88607 51.6132 3.5583 C57.4074 16.0247 74 50 74 50 L74 50 Z " />
<glyph glyph-name="C_sc" unicode="&#x1d04;" horiz-adv-x="653" d="M624.303 168.041 C574.998 65.445 477.425 -3 377 -3 C226 -3 126 135 126 298 C126 461 226 600 377 600 C465 600 566 528 628 420 C628.938 418.366 629.168 421.168 630.5 422.5 C631.869 423.869 629.206 431.449 628.203 433.105 C564.907 537.555 465.725 606 377 606 C195 606 73 464 73 298 C73 132 195 -9 377 -9 C482 -9 585 63 633 172 C633.688 173.563 631.834 172.933 630.5 174 C629.191 175.047 625.029 169.552 624.303 168.041 L624.303 168.041 Z M630 425 L628 425 L628 428 L630 425 L630 425 Z " />
<glyph glyph-name="D_sc" unicode="&#x1d05;" horiz-adv-x="703" d="M318 0 C542 0 648 96 648 298 C648 495 526 597 288 597 L167.44 597 C133.527 597 106 569.473 106 535.56 L106 61.44 C106 27.527 133.527 0 167.44 0 L318 0 L318 0 Z M157 67.44 L157 529.56 C157 563.473 184.527 591 218.44 591 L288 591 C491 591 595 491 595 298 C595 100 505 6 317 6 L218.44 6 C184.527 6 157 33.527 157 67.44 L157 67.44 Z " />
<glyph glyph-name="E_sc" unicode="&#x1d07;" horiz-adv-x="522" d="M469 6 L218.44 6 C184.527 6 157 33.527 157 67.44 L157 243.56 C157 277.473 184.527 305 218.44 305 L434 305 C435.656 305 437 306.344 437 308 C437 309.656 435.656 311 434 311 L218.44 311 C184.527 311 157 338.527 157 372.44 L157 529.56 C157 563.473 184.527 591 218.44 591 L454 591 C455.656 591 457 592.344 457 594 C457 595.656 455.656 597 454 597 L167.44 597 C133.527 597 106 569.473 106 535.56 L106 61.44 C106 27.527 133.527 0 167.44 0 L469 0 C470.656 0 472 1.34409 472 3 C472 4.65591 470.656 6 469 6 L469 6 Z " />
<glyph glyph-name="J_sc" unicode="&#x1d0a;" horiz-adv-x="428" d="M68 257.106 L68 221 C68 62 111 -9 206 -9 C296 -9 343 65 343 175 L343 571.5 C343 585.575 331.575 597 317.5 597 C303.425 597 292 585.575 292 571.5 L292 175 C292 69 263 -2 206 -2 C146 -2 119 72 119 236 L119 266.106 C119 280.181 107.361 289.946 93.5 287.5 C79.6389 285.054 68 271.181 68 257.106 L68 257.106 Z " />
<glyph glyph-name="K_sc" unicode="&#x1d0b;" horiz-adv-x="541" d="M515 23 L499 46 L291.314 346.819 C283.145 358.651 267.835 359.435 258.5 348.5 C249.131 337.525 248.258 317.794 256.621 306.035 L438 51 C437 51 459 22 465 13 L469 7 C470.816 4.27648 476.937 0.932116 480.21 0.875689 L502.986 0.482995 C515.526 0.2668 522.162 12.7049 515 23 L515 23 Z M459.38 594.977 L423 553 L418 548 L263.099 367.185 C224.28 321.871 155 347.489 155 407.157 L155 572.5 C155 586.575 143.575 598 129.5 598 C115.425 598 104 586.575 104 572.5 L104 26.5 C104 12.4248 115.425 1 129.5 1 C143.575 1 155 12.4248 155 26.5 L155 208.218 C155 216.416 164.508 242.058 169.853 248.274 L431 552 C435 557 470 598 470 598 C470 598 467.018 598 466 598 C464.332 598 460.473 596.238 459.38 594.977 L459.38 594.977 Z " />
<glyph glyph-name="M_sc" unicode="&#x1d0d;" horiz-adv-x="737" d="M124 3.5 L124 294.5 C124 350.924 206.638 365.726 226.223 312.81 L334.364 20.6322 C338.317 9.95189 352.612 0 364 0 C375.395 0 389.665 9.95144 393.602 20.6447 L501.715 314.234 C521.224 367.215 604 352.458 604 296 L604 24 C604 10.7527 614.753 0 628 0 C641.247 0 652 10.7527 652 24 L652 570.5 C652 585.127 640.127 597 625.5 597 C611.773 597 594.589 585.013 589.849 572.13 L440.794 167.061 C420.153 110.967 345.998 111.023 325.442 167.147 L176.77 573.056 C172.225 585.466 155.717 597 142.5 597 C128.425 597 117 585.575 117 571.5 L117 3.5 C117 1.5681 118.568 0 120.5 0 C122.432 0 124 1.5681 124 3.5 L124 3.5 Z " />
</font>
</svg>
