<svg width="14" height="9" viewBox="0 0 14 9" fill="none" xmlns="http://www.w3.org/2000/svg">
<path d="M6.375 8.25L1.0625 2.9375C0.880208 2.75521 0.789062 2.53385 0.789062 2.27344C0.789062 2.01302 0.880208 1.79167 1.0625 1.60938L1.96094 0.75C2.14323 0.567708 2.36458 0.476562 2.625 0.476562C2.88542 0.476562 3.10677 0.567708 3.28906 0.75L7.03906 4.5L10.7891 0.75C10.9714 0.567708 11.1927 0.476562 11.4531 0.476562C11.7135 0.476562 11.9349 0.567708 12.1172 0.75L13.0156 1.60938C13.1979 1.79167 13.2891 2.01302 13.2891 2.27344C13.2891 2.53385 13.1979 2.75521 13.0156 2.9375L7.70312 8.25C7.52083 8.43229 7.29948 8.52344 7.03906 8.52344C6.77865 8.52344 6.55729 8.43229 6.375 8.25Z" fill="#333333"/>
</svg>
