<?xml version="1.0" encoding="iso-8859-1"?>
<!-- Generator: Adobe Illustrator 19.0.0, SVG Export Plug-In . SVG Version: 6.00 Build 0)  -->
<svg version="1.1" id="Capa_1" xmlns="http://www.w3.org/2000/svg" xmlns:xlink="http://www.w3.org/1999/xlink" x="0px" y="0px"
	 viewBox="0 0 512 512" style="enable-background:new 0 0 512 512;" xml:space="preserve">
<g>
		<path d="M467,101H45c-24.813,0-45,20.187-45,45v6.665l256,116.846l256-116.847V146C512,121.187,491.813,101,467,101z"/>
		<path d="M377.078,247.225l130.527,138.158C510.42,379.51,512,372.936,512,366V185.642L377.078,247.225z"/>
		<path d="M0,185.642V366c0,6.936,1.58,13.51,4.395,19.383l130.527-138.158L0,185.642z"/>
		<path d="M348.242,260.387l-86.013,39.259c-3.956,1.805-8.5,1.806-12.457,0l-86.013-39.259L25.616,406.605
			C31.49,409.42,38.063,411,45,411h422c6.937,0,13.51-1.58,19.384-4.395L348.242,260.387z"/>
</g>
</svg>
