<?xml version="1.0" encoding="utf-8"?>
<!-- Generator: Adobe Illustrator 22.1.0, SVG Export Plug-In . SVG Version: 6.00 Build 0)  -->
<svg version="1.1" id="Capa_1" xmlns="http://www.w3.org/2000/svg" xmlns:xlink="http://www.w3.org/1999/xlink" x="0px" y="0px"
	 viewBox="0 0 97.7 97.7" style="enable-background:new 0 0 97.7 97.7;" xml:space="preserve">
<g>
	<path d="M48.9,0.4c-19.6,0-35.5,16-35.5,35.7c0,5.1,1,10,3.1,14.6c8.9,19.5,25.9,40.2,30.9,46c0.4,0.4,0.9,0.7,1.5,0.7
		c0.6,0,1.1-0.3,1.5-0.7c5-5.9,22-26.5,30.9-46c2.1-4.5,3.1-9.4,3.1-14.6C84.4,16.4,68.4,0.4,48.9,0.4z M48.9,54.6
		c-10.2,0-18.4-8.3-18.4-18.5c0-10.2,8.3-18.6,18.4-18.6s18.4,8.3,18.4,18.6C67.3,46.3,59,54.6,48.9,54.6z"/>
</g>
</svg>
