<svg xmlns="http://www.w3.org/2000/svg" width="97.71" height="97.71" viewBox="0 0 97.713 97.713" enable-background="new 0 0 97.713 97.713"><path d="m48.855 0c-19.834 0-35.972 16.14-35.972 35.974 0 5.174 1.059 10.114 3.146 14.684 8.994 19.681 26.24 40.46 31.31 46.36.38.441.934.695 1.517.695s1.137-.254 1.517-.695c5.07-5.898 22.314-26.676 31.31-46.36 2.088-4.57 3.146-9.51 3.146-14.684-.002-19.836-16.14-35.974-35.975-35.974m0 54.659c-10.303 0-18.686-8.383-18.686-18.686 0-10.304 8.383-18.687 18.686-18.687s18.686 8.383 18.686 18.687c.0001 10.303-8.382 18.686-18.686 18.686"/></svg>