<svg display="none" xmlns="http://www.w3.org/2000/svg">
  <symbol id="mail" viewBox="0 0 512 512">
    <g>
      <path d="M467,101H45c-24.813,0-45,20.187-45,45v6.665l256,116.846l256-116.847V146C512,121.187,491.813,101,467,101z"/>
		<path d="M377.078,247.225l130.527,138.158C510.42,379.51,512,372.936,512,366V185.642L377.078,247.225z"/>
		<path d="M0,185.642V366c0,6.936,1.58,13.51,4.395,19.383l130.527-138.158L0,185.642z"/>
		<path d="M348.242,260.387l-86.013,39.259c-3.956,1.805-8.5,1.806-12.457,0l-86.013-39.259L25.616,406.605
			C31.49,409.42,38.063,411,45,411h422c6.937,0,13.51-1.58,19.384-4.395L348.242,260.387z"/>
    </g>
  </symbol>
  <symbol id="map" viewBox="0 0 97.713 97.713">
    <g>
      <path d="M48.855,0C29.021,0,12.883,16.138,12.883,35.974c0,5.174,1.059,10.114,3.146,14.684
		c8.994,19.681,26.238,40.46,31.31,46.359c0.38,0.441,0.934,0.695,1.517,0.695s1.137-0.254,1.517-0.695
		c5.07-5.898,22.314-26.676,31.311-46.359c2.088-4.57,3.146-9.51,3.146-14.684C84.828,16.138,68.69,0,48.855,0z M48.855,54.659
		c-10.303,0-18.686-8.383-18.686-18.686c0-10.304,8.383-18.687,18.686-18.687s18.686,8.383,18.686,18.687
		C67.542,46.276,59.159,54.659,48.855,54.659z"/>
    </g>
  </symbol>
  <symbol id="phone" viewBox="0 0 513.64 513.64">
    <g>
      <path d="M499.66,376.96l-71.68-71.68c-25.6-25.6-69.12-15.359-79.36,17.92c-7.68,23.041-33.28,35.841-56.32,30.72
			c-51.2-12.8-120.32-79.36-133.12-133.12c-7.68-23.041,7.68-48.641,30.72-56.32c33.28-10.24,43.52-53.76,17.92-79.36l-71.68-71.68
			c-20.48-17.92-51.2-17.92-69.12,0l-48.64,48.64c-48.64,51.2,5.12,186.88,125.44,307.2c120.32,120.32,256,176.641,307.2,125.44
			l48.64-48.64C517.581,425.6,517.581,394.88,499.66,376.96z"/>
    </g>
  </symbol>
</svg>